<?xml version="1.0" encoding="utf-8"?>
<!-- Generator: Adobe Illustrator 15.0.2, SVG Export Plug-In . SVG Version: 6.00 Build 0)  -->
<!DOCTYPE svg PUBLIC "-//W3C//DTD SVG 1.1//EN" "http://www.w3.org/Graphics/SVG/1.1/DTD/svg11.dtd">
<svg version="1.1" id="Layer_1" xmlns="http://www.w3.org/2000/svg" xmlns:xlink="http://www.w3.org/1999/xlink" x="0px" y="0px"
	 width="100px" height="50px" viewBox="50 0 100 50" enable-background="new 50 0 100 50" xml:space="preserve">
<g>
	<path fill="#27578C" d="M100,37.5c0,6.903-5.597,12.5-12.502,12.5h-25C55.595,50,50,44.403,50,37.5v-25C50,5.595,55.595,0,62.498,0
		h25C94.403,0,100,5.595,100,12.5V37.5z"/>
	<g>
		<path fill="#FFFFFF" d="M70.833,40.625h6.25c0,0,0-8.627,0-15.625h4.638l0.569-6.25h-4.966v-2.499
			c0-1.218,0.812-1.501,1.381-1.501s3.507,0,3.507,0V9.395l-4.828-0.02c-5.36,0-6.578,3.994-6.578,6.55v2.825h-3.099V25h3.125
			C70.833,32.082,70.833,40.625,70.833,40.625z"/>
	</g>
</g>
<g>
	<path fill="#878787" d="M150,37.5c0,6.903-5.596,12.5-12.502,12.5h-25C105.596,50,100,44.403,100,37.5v-25
		C100,5.595,105.596,0,112.498,0h25C144.404,0,150,5.595,150,12.5V37.5z"/>
	<g>
		<path fill="#FFFFFF" d="M120.834,40.625h6.25c0,0,0-8.627,0-15.625h4.639l0.568-6.25h-4.965v-2.499
			c0-1.218,0.811-1.501,1.381-1.501c0.568,0,3.506,0,3.506,0V9.395l-4.828-0.02c-5.359,0-6.577,3.994-6.577,6.55v2.825h-3.099V25
			h3.125C120.834,32.082,120.834,40.625,120.834,40.625z"/>
	</g>
</g>
</svg>
