<?xml version="1.0" encoding="utf-8"?>
<!-- Generator: Adobe Illustrator 15.0.2, SVG Export Plug-In . SVG Version: 6.00 Build 0)  -->
<!DOCTYPE svg PUBLIC "-//W3C//DTD SVG 1.1//EN" "http://www.w3.org/Graphics/SVG/1.1/DTD/svg11.dtd">
<svg version="1.1" id="Layer_1" xmlns="http://www.w3.org/2000/svg" xmlns:xlink="http://www.w3.org/1999/xlink" x="0px" y="0px"
	 width="100px" height="50px" viewBox="50 0 100 50" enable-background="new 50 0 100 50" xml:space="preserve">
<g>
	<path fill="#27578C" d="M100,37.5c0,6.905-5.597,12.5-12.5,12.5h-25C55.595,50,50,44.405,50,37.5v-25C50,5.597,55.595,0,62.5,0h25
		C94.403,0,100,5.597,100,12.5V37.5z"/>
	<g>
		<path fill="#FFFFFF" d="M83.268,30.381h1.343c0.36,0,0.651-0.291,0.651-0.652v-4.72h4.711c0.358,0,0.651-0.293,0.651-0.654V23.01
			c0-0.36-0.293-0.654-0.651-0.654h-4.711v-4.721c0-0.358-0.291-0.652-0.651-0.652h-1.343c-0.36,0-0.652,0.293-0.652,0.652v4.721
			h-4.712c-0.358,0-0.651,0.293-0.651,0.654v1.344c0,0.361,0.293,0.654,0.651,0.654h4.712v4.72
			C82.615,30.09,82.908,30.381,83.268,30.381z"/>
		<path fill="#FFFFFF" d="M64.708,38.604c1.191,0.305,2.474,0.459,3.804,0.459c1.196,0,2.335-0.157,3.39-0.463
			c3.286-0.953,5.41-3.377,5.41-6.176c0-2.684-0.86-4.291-3.172-5.93c-0.991-0.703-1.893-1.731-1.909-2.05
			c0-0.577,0.051-0.852,1.343-1.862c1.67-1.308,2.589-3.031,2.589-4.851c0-1.649-0.502-3.115-1.361-4.144h0.666
			c0.139,0,0.273-0.042,0.383-0.122l1.853-1.345c0.229-0.166,0.327-0.46,0.238-0.73c-0.087-0.27-0.337-0.453-0.62-0.453h-8.288
			c-0.907,0-1.829,0.159-2.732,0.471c-3.021,1.044-5.133,3.622-5.133,6.272c0,3.749,2.899,6.592,6.777,6.681
			c-0.075,0.298-0.114,0.591-0.114,0.878c0,0.577,0.147,1.125,0.448,1.653c-0.037,0.002-0.069,0.002-0.108,0.002
			c-3.695,0-7.031,1.816-8.297,4.521c-0.332,0.701-0.498,1.413-0.498,2.114c0,0.683,0.175,1.339,0.517,1.957
			C60.689,36.914,62.398,38.021,64.708,38.604z M65.446,17.578c-0.179-1.374,0.107-2.607,0.792-3.388
			c0.442-0.505,1.019-0.771,1.667-0.771l0.075,0.002c1.832,0.053,3.583,2.098,3.906,4.557c0.182,1.378-0.124,2.672-0.815,3.464
			c-0.442,0.505-1.012,0.771-1.687,0.771c0,0,0,0-0.002,0h-0.028C67.558,22.16,65.768,20.034,65.446,17.578z M68.968,28.973
			l0.075,0.002c0.615,0.007,1.213,0.098,1.778,0.271c0.194,0.132,0.38,0.26,0.562,0.383c1.306,0.893,2.169,1.482,2.41,2.428
			c0.056,0.237,0.083,0.476,0.083,0.706c0,2.431-1.811,3.665-5.381,3.665c-2.708,0-4.826-1.664-4.826-3.788
			C63.67,30.687,66.146,28.973,68.968,28.973z"/>
	</g>
	<g id="Layer_1_1_">
	</g>
</g>
<g>
	<path fill="#878787" d="M150,37.5c0,6.905-5.597,12.5-12.5,12.5h-25c-6.905,0-12.5-5.595-12.5-12.5v-25
		C100,5.597,105.595,0,112.5,0h25c6.903,0,12.5,5.597,12.5,12.5V37.5z"/>
	<g>
		<path fill="#FFFFFF" d="M133.268,30.381h1.343c0.36,0,0.651-0.291,0.651-0.652v-4.72h4.711c0.358,0,0.651-0.293,0.651-0.654V23.01
			c0-0.36-0.293-0.654-0.651-0.654h-4.711v-4.721c0-0.358-0.291-0.652-0.651-0.652h-1.343c-0.36,0-0.652,0.293-0.652,0.652v4.721
			h-4.712c-0.358,0-0.651,0.293-0.651,0.654v1.344c0,0.361,0.293,0.654,0.651,0.654h4.712v4.72
			C132.615,30.09,132.908,30.381,133.268,30.381z"/>
		<path fill="#FFFFFF" d="M114.707,38.604c1.191,0.305,2.475,0.459,3.805,0.459c1.195,0,2.335-0.157,3.389-0.463
			c3.286-0.953,5.41-3.377,5.41-6.176c0-2.684-0.86-4.291-3.172-5.93c-0.99-0.703-1.893-1.731-1.908-2.05
			c0-0.577,0.051-0.852,1.342-1.862c1.67-1.308,2.59-3.031,2.59-4.851c0-1.649-0.502-3.115-1.361-4.144h0.666
			c0.139,0,0.273-0.042,0.383-0.122l1.853-1.345c0.229-0.166,0.327-0.46,0.238-0.73c-0.087-0.27-0.337-0.453-0.62-0.453h-8.288
			c-0.907,0-1.829,0.159-2.732,0.471c-3.021,1.044-5.134,3.622-5.134,6.272c0,3.749,2.899,6.592,6.777,6.681
			c-0.074,0.298-0.113,0.591-0.113,0.878c0,0.577,0.146,1.125,0.448,1.653c-0.036,0.002-0.069,0.002-0.108,0.002
			c-3.695,0-7.031,1.816-8.297,4.521c-0.332,0.701-0.498,1.413-0.498,2.114c0,0.683,0.175,1.339,0.517,1.957
			C110.689,36.914,112.398,38.021,114.707,38.604z M115.445,17.578c-0.179-1.374,0.107-2.607,0.792-3.388
			c0.442-0.505,1.019-0.771,1.667-0.771l0.074,0.002c1.832,0.053,3.583,2.098,3.906,4.557c0.182,1.378-0.123,2.672-0.814,3.464
			c-0.442,0.505-1.012,0.771-1.688,0.771c0,0,0,0-0.002,0h-0.027C117.559,22.16,115.768,20.034,115.445,17.578z M118.968,28.973
			l0.075,0.002c0.614,0.007,1.213,0.098,1.777,0.271c0.194,0.132,0.381,0.26,0.562,0.383c1.306,0.893,2.168,1.482,2.41,2.428
			c0.055,0.237,0.083,0.476,0.083,0.706c0,2.431-1.811,3.665-5.382,3.665c-2.707,0-4.825-1.664-4.825-3.788
			C113.67,30.687,116.146,28.973,118.968,28.973z"/>
	</g>
</g>
<g id="Layer_1_2_">
</g>
</svg>
