<?xml version="1.0" encoding="utf-8"?>
<!DOCTYPE svg PUBLIC "-//W3C//DTD SVG 1.1//EN" "http://www.w3.org/Graphics/SVG/1.1/DTD/svg11.dtd">
<svg version="1.1" id="Layer_1" xmlns="http://www.w3.org/2000/svg" xmlns:xlink="http://www.w3.org/1999/xlink" x="0px" y="0px"
	 width="355px" height="108px" viewBox="0 0 355 108" enable-background="new 0 0 355 108" xml:space="preserve">
<g id="inquiry-stacked">
	<g id="Magazine" transform="translate(159.000000, 88.000000)">
		<path id="Shape" fill="#E37528" d="M76.7,16.771L87.124,3.712H76.965V1.57h13.145v2.412l-10.521,13.07H90.29v2.153H76.7V16.771
			L76.7,16.771z"/>
		<path id="Shape_1_" fill="#E37528" d="M92.89,1.57h2.504v17.659H92.89V1.57L92.89,1.57z"/>
		<path id="Shape_2_" fill="#E37528" d="M99.438,1.57h3.479l8.884,14.588V1.57h2.3v17.659h-3.202l-9.185-14.988v14.988h-2.275V1.57
			L99.438,1.57L99.438,1.57z"/>
		<path id="Shape_3_" fill="#E37528" d="M118.012,1.57h11.338v2.07h-8.835v5.506h8.401v2.06h-8.401v5.858h9.028v2.153h-11.531V1.57
			L118.012,1.57L118.012,1.57z"/>
		<path id="Shape_4_" fill="#E37528" d="M0.036,1.57h4.43l5.104,14.541L14.793,1.57h4.129v17.659h-2.456V3.336l-5.935,15.894H8.161
			L2.456,3.441v15.788H0.036V1.57L0.036,1.57L0.036,1.57z"/>
		<path id="Shape_5_" fill="#E37528" d="M28.938,1.57h2.684l7.307,17.659h-2.721l-1.949-4.601h-8.379l-1.949,4.601h-2.588
			L28.938,1.57L28.938,1.57z M26.674,12.641h6.825l-3.334-8.646L26.674,12.641L26.674,12.641z"/>
		<path id="Shape_6_" fill="#E37528" d="M52.445,5.971c-0.265-1.635-1.625-2.753-4.08-2.753c-1.709,0-3.13,0.435-4.081,1.494
			c-1.577,1.718-1.926,4-1.926,5.671c0,1.494,0.313,4,1.661,5.541c1.18,1.329,2.997,1.729,4.803,1.729
			c2.059,0,3.346-0.388,3.924-0.564v-5.234h-4.129V9.83h6.633v8.693c-1.047,0.342-3.346,1.07-6.428,1.07
			c-3.334,0-5.272-0.93-6.561-2.199c-1.77-1.766-2.516-4.225-2.516-6.719c0-1.764,0.445-5.917,3.876-8.164
			c1.77-1.164,4.129-1.247,5.02-1.247c1.421,0,3.599,0.177,5.32,1.882c1.071,1.106,1.144,2.118,1.192,2.801h-2.709V5.971z"/>
		<path id="Shape_7_" fill="#E37528" d="M65.108,1.57h2.685L75.1,19.229h-2.732l-1.951-4.601h-8.365l-1.949,4.601h-2.588
			L65.108,1.57L65.108,1.57z M62.821,12.641h6.825l-3.334-8.646L62.821,12.641L62.821,12.641z"/>
	</g>
	<g id="Research" transform="translate(0.000000, 88.000000)">
		<path id="Shape_8_" fill="#E37528" d="M0.251,1.57h6.434c0.922,0,2.804,0,4.122,0.824c1.354,0.823,1.989,2.176,1.989,3.6
			c0,1.247-0.479,2.354-1.27,3.129c-0.779,0.766-1.569,1-2.109,1.153c1.713,0.436,2.492,1.2,2.744,3.399
			c0.252,2.071,0.432,3.601,1.126,5.554h-2.672c-0.396-1.165-0.647-3.317-0.827-4.671c-0.299-2.576-0.922-3.306-3.942-3.306H2.708
			v7.965H0.251V1.57L0.251,1.57L0.251,1.57z M2.672,9.182h3.942c0.263,0,1.701,0,2.36-0.388c0.348-0.2,1.222-0.823,1.222-2.294
			c0-2.871-2.588-2.871-3.582-2.871H2.672V9.182L2.672,9.182L2.672,9.182z"/>
		<path id="Shape_9_" fill="#E37528" d="M16.282,1.57h11.274v2.07h-8.794v5.506h8.363v2.06h-8.363v5.858h8.986v2.153H16.271V1.57
			H16.282L16.282,1.57z"/>
		<path id="Shape_10_" fill="#E37528" d="M32.756,14.053c0.048,1.212,0.192,3.494,4.337,3.494c3.726,0,4.205-2.271,4.205-3.152
			c0-1.977-1.617-2.365-4.122-2.977c-2.744-0.659-3.954-0.953-4.876-1.553c-1.474-0.977-1.869-2.295-1.869-3.482
			c0-3.601,3.462-5.153,6.841-5.153c1.186,0,3.606,0.2,5.044,1.729c0.995,1.07,1.042,2.271,1.09,3.012H40.82
			c-0.132-2.2-2.013-2.694-3.774-2.694c-2.492,0-3.99,1.106-3.99,2.87c0,1.554,1.042,2.106,3.235,2.612
			c4.289,1.071,4.756,1.165,5.799,1.858c1.665,1.071,1.797,2.789,1.797,3.518c0,3.13-2.492,5.506-7.093,5.506
			c-1.366,0-4.157-0.223-5.571-2.012c-1.018-1.293-1.054-2.705-1.054-3.564h2.588V14.053z"/>
		<path id="Shape_11_" fill="#E37528" d="M46.93,1.57h11.286v2.07h-8.794v5.506h8.363v2.06h-8.363v5.858h8.986v2.153H46.93V1.57
			L46.93,1.57L46.93,1.57z"/>
		<path id="Shape_12_" fill="#E37528" d="M67.957,1.57h2.672l7.272,17.659h-2.72l-1.941-4.601h-8.339l-1.941,4.601h-2.576
			L67.957,1.57L67.957,1.57z M65.681,12.641h6.793l-3.318-8.646L65.681,12.641L65.681,12.641z"/>
		<path id="Shape_13_" fill="#E37528" d="M80.142,1.57h6.434c0.922,0,2.804,0,4.122,0.824c1.354,0.823,1.989,2.176,1.989,3.6
			c0,1.247-0.479,2.354-1.27,3.129c-0.779,0.766-1.569,1-2.109,1.153c1.713,0.436,2.492,1.2,2.744,3.399
			c0.251,2.071,0.431,3.601,1.126,5.554h-2.672c-0.396-1.165-0.647-3.317-0.827-4.671c-0.299-2.576-0.922-3.306-3.942-3.306h-3.139
			v7.965h-2.457V1.57L80.142,1.57L80.142,1.57z M82.562,9.182h3.942c0.275,0,1.701,0,2.36-0.388c0.347-0.2,1.222-0.823,1.222-2.294
			c0-2.871-2.588-2.871-3.582-2.871h-3.942V9.182L82.562,9.182L82.562,9.182z"/>
		<path id="Shape_14_" fill="#E37528" d="M107.027,6.348c-0.096-0.612-0.431-3.06-3.894-3.06c-4.337,0-5.116,4.353-5.116,7.282
			c0,3.318,0.971,6.918,5.08,6.918c1.09,0,2.145-0.271,2.899-1.047c0.647-0.683,0.791-1.447,0.875-1.859h2.744
			c-0.383,3.471-3.63,4.906-6.733,4.906c-6.314,0-7.536-5.471-7.536-8.895c0-3.705,1.474-9.27,7.872-9.27
			c2.54,0,6.123,1,6.446,5.023H107.027L107.027,6.348L107.027,6.348z"/>
		<path id="Shape_15_" fill="#E37528" d="M114.971,1.57v7.576h8.543V1.57h2.492v17.659h-2.492v-7.965h-8.543v7.965h-2.492V1.57
			H114.971L114.971,1.57z"/>
	</g>
	<g id="Inquiry">
		<path id="Shape_16_" fill="#44BAD8" d="M0.11,0.63h18.47v15.08H0.11V0.63L0.11,0.63z M0.7,25.88H18V85H0.7V25.88L0.7,25.88z"/>
		<path id="Shape_17_" fill="#44BAD8" d="M28.28,36.52c0-0.24,0-6.66-0.34-10.76h16.6L45,34.64c1.64-2.69,6.31-10.28,19.17-10.28
			c11.56,0,16.48,7.01,17.99,11.1c1.29,3.62,1.64,6.66,1.64,17.65v31.9H66.14v-36.7c0-2.45,0-4.56-0.94-6.43
			c-1.28-2.57-3.97-5.02-8.41-5.02c-3.74,0-7.13,1.75-8.99,4.56c-1.05,1.52-2.11,4.44-2.11,8.99V85H28.28V36.52L28.28,36.52z"/>
		<path id="Shape_18_" fill="#44BAD8" d="M151.55,25.88c0,1.05-0.34,8.99-0.34,11.34v70.219h-17.76V78.12
			c-1.75,2.11-6.43,7.71-16.36,7.71c-11.92,0-25.94-8.53-25.94-31.08c0-22.67,13.21-30.03,24.89-30.03c12.15,0,16.48,7.37,17.88,9.7
			l0.58-8.53h17.05V25.88L151.55,25.88z M112.65,70.17c2.69,3.74,6.66,4.21,9.11,4.21c11.22,0,12.62-12.39,12.62-18.81
			c0-6.42-1.64-19.53-13.57-19.53c-9.94,0-12.04,10.28-12.04,19.17C108.79,59.07,109.26,65.609,112.65,70.17L112.65,70.17z"/>
		<path id="Shape_19_" fill="#44BAD8" d="M178.311,26v35.17c0,5.141,0,12.971,9.229,12.971c11.101,0,11.101-8.291,11.101-18.351V26
			h17.76v38.91c0.24,12.74,0.34,14.25,0.34,15.779c0.119,1.631,0.24,2.69,0.46,4.32h-16.8l-0.58-7.83
			c-1.75,2.57-6.19,9.35-17.41,9.35c-7.95,0-14.49-3.619-17.76-7.949c-3.85-4.801-3.85-12.971-3.85-15.9v-36.7h17.53V26H178.311z"/>
		<path id="Shape_20_" fill="#44BAD8" d="M226.811,0.63h18.469v15.08h-18.469V0.63L226.811,0.63z M227.4,25.88h17.3V85h-17.3V25.88
			L227.4,25.88z"/>
		<path id="Shape_21_" fill="#44BAD8" d="M254.859,40.48c0-2.81-0.459-11.34-0.819-14.72h16.239l0.341,11.34
			c2.229-5.02,6.08-12.15,20.101-11.45V41.2c-17.531-1.63-18.591,7.37-18.591,14.72v29.09h-17.3V40.48H254.859L254.859,40.48z"/>
		<path id="Shape_22_" fill="#44BAD8" d="M311.05,26l12.97,40.891L337.23,26h17.18l-22.32,57.96l-7.13,23.49h-17.41l7.479-22.2
			L292.359,26H311.05L311.05,26z"/>
	</g>
</g>
</svg>
