<?xml version="1.0" standalone="no"?><!DOCTYPE svg PUBLIC "-//W3C//DTD SVG 1.1//EN" "http://www.w3.org/Graphics/SVG/1.1/DTD/svg11.dtd"><svg width="100%" height="100%" viewBox="0 0 554 95" version="1.1" xmlns="http://www.w3.org/2000/svg" xmlns:xlink="http://www.w3.org/1999/xlink" xml:space="preserve" style="fill-rule:evenodd;clip-rule:evenodd;stroke-linejoin:round;stroke-miterlimit:1.41421;"><g><path d="M360.904,68.544l0,-4.867l2.754,0c1.302,0 3.754,-0.189 3.754,2.434c0,2.32 -2.15,2.433 -3.886,2.433l-2.622,0ZM360.904,69.676l3.377,0c2.471,0 2.659,0.547 2.942,3.659c0.076,0.963 0.151,1.925 0.472,2.83l1.415,0c-0.547,-0.83 -0.472,-1.849 -0.717,-4.056c-0.17,-1.584 -0.547,-2.754 -2.283,-3.037l0,-0.038c1.585,-0.396 2.623,-1.452 2.623,-2.923c0,-1.302 -0.453,-2.283 -1.396,-2.849c-1.038,-0.641 -2.019,-0.717 -3.207,-0.717l-4.452,0l0,13.62l1.226,0l0,-6.489ZM380.222,76.165l0,-1.132l-7.149,0l0,-5.338l6.602,0l0,-1.132l-6.602,0l0,-4.886l6.866,0l0,-1.132l-8.092,0l0,13.62l8.375,0ZM391.312,72.581c0,-4.697 -7.696,-2.943 -7.696,-6.81c0,-1.66 1.754,-2.377 3.169,-2.377c1.396,0 2.924,0.434 2.962,2.113l1.32,0c-0.302,-2.622 -2.641,-3.245 -4.433,-3.245c-2.15,0 -4.339,1.302 -4.339,3.679c0,2.943 3.358,3.641 5.565,4.376c1.151,0.377 2.132,1.019 2.132,2.377c0,1.736 -1.754,2.622 -3.282,2.622c-1.83,0 -3.377,-0.603 -3.415,-2.697l-1.32,0c0.056,2.244 1.886,3.829 4.056,3.829c2.735,0 5.281,-0.905 5.281,-3.867ZM402.361,76.165l0,-1.132l-7.15,0l0,-5.338l6.603,0l0,-1.132l-6.603,0l0,-4.886l6.867,0l0,-1.132l-8.093,0l0,13.62l8.376,0ZM407.073,71.355l2.999,-7.678l2.943,7.678l-5.942,0ZM405.243,76.165l1.434,-3.678l6.772,0l1.453,3.678l1.339,0l-5.433,-13.62l-1.434,0l-5.395,13.62l1.264,0ZM419.44,68.544l0,-4.867l2.754,0c1.302,0 3.754,-0.189 3.754,2.434c0,2.32 -2.15,2.433 -3.886,2.433l-2.622,0ZM419.44,69.676l3.377,0c2.471,0 2.66,0.547 2.943,3.659c0.075,0.963 0.15,1.925 0.471,2.83l1.415,0c-0.547,-0.83 -0.472,-1.849 -0.717,-4.056c-0.17,-1.584 -0.547,-2.754 -2.282,-3.037l0,-0.038c1.584,-0.396 2.622,-1.452 2.622,-2.923c0,-1.302 -0.453,-2.283 -1.396,-2.849c-1.038,-0.641 -2.019,-0.717 -3.207,-0.717l-4.452,0l0,13.62l1.226,0l0,-6.489ZM439.99,65.733c-0.188,-2.452 -2.301,-3.471 -4.527,-3.471c-4.112,0 -5.867,3.358 -5.867,7.093c0,3.773 1.736,7.093 5.867,7.093c2.188,0 4.282,-1.302 4.678,-3.584l-1.32,0c-0.34,1.698 -1.849,2.452 -3.358,2.452c-3.49,0 -4.546,-3.169 -4.546,-5.961c0,-2.792 1.056,-5.961 4.546,-5.961c1.547,0 2.981,0.679 3.207,2.339l1.32,0ZM443.757,76.165l0,-6.508l7.433,0l0,6.508l1.226,0l0,-13.62l-1.226,0l0,5.98l-7.433,0l0,-5.98l-1.226,0l0,13.62l1.226,0ZM462.017,76.165l0,-12.526l0.038,0l5.207,12.526l1.226,0l5.206,-12.582l0.038,0l0,12.582l1.226,0l0,-13.62l-1.867,0l-5.226,11.866l-5.112,-11.866l-1.962,0l0,13.62l1.226,0ZM479.989,71.355l2.999,-7.678l2.943,7.678l-5.942,0ZM478.159,76.165l1.434,-3.678l6.772,0l1.452,3.678l1.34,0l-5.433,-13.62l-1.434,0l-5.395,13.62l1.264,0ZM495.916,69.223l0,1.132l3.414,0l0,4.395c-0.962,0.283 -2,0.566 -3.018,0.566c-3.679,0 -5.131,-2.49 -5.131,-5.961c0,-2.829 1.226,-5.961 4.489,-5.961c1.623,0 3.151,0.774 3.396,2.509l1.396,0c-0.208,-2.415 -2.528,-3.641 -4.792,-3.641c-3.942,0 -5.81,3.584 -5.81,7.093c0,4.188 2.094,7.093 5.81,7.093c1.755,0 3.245,-0.207 4.886,-0.849l0,-6.376l-4.64,0ZM505.474,71.355l2.999,-7.678l2.943,7.678l-5.942,0ZM503.644,76.165l1.434,-3.678l6.772,0l1.452,3.678l1.34,0l-5.433,-13.62l-1.434,0l-5.395,13.62l1.264,0ZM525.034,76.165l0,-1.132l-7.584,0l7.584,-11.356l0,-1.132l-9.017,0l0,1.132l7.564,0l-7.564,11.356l0,1.132l9.017,0ZM528.55,62.489l-1.226,0l0,13.676l1.226,0l0,-13.676ZM531.898,76.165l1.226,0l0,-11.771l0.038,0l7.357,11.771l1.547,0l0,-13.62l-1.226,0l0,11.979l-0.038,0l-7.508,-11.979l-1.396,0l0,13.62ZM553.776,76.165l0,-1.132l-7.149,0l0,-5.338l6.602,0l0,-1.132l-6.602,0l0,-4.886l6.866,0l0,-1.132l-8.092,0l0,13.62l8.375,0Z" style="fill:#faa619;fill-rule:nonzero;"/><path d="M360.268,40.727l0,12.219c0.052,4.047 2.324,7.023 6.893,7.023c4.569,0 6.84,-2.976 6.893,-7.023l0,-12.219l-1.698,0l0,12.193c-0.13,3.42 -2.088,5.483 -5.195,5.483c-3.107,0 -5.065,-2.063 -5.196,-5.483l0,-12.193l-1.697,0ZM392.055,45.139c-0.261,-3.394 -3.185,-4.804 -6.266,-4.804c-5.692,0 -8.12,4.648 -8.12,9.817c0,5.222 2.402,9.817 8.12,9.817c3.029,0 5.927,-1.801 6.475,-4.96l-1.827,0c-0.47,2.349 -2.559,3.394 -4.648,3.394c-4.83,0 -6.292,-4.387 -6.292,-8.251c0,-3.864 1.462,-8.25 6.292,-8.25c2.141,0 4.125,0.94 4.439,3.237l1.827,0ZM414.404,54.617c0,-6.501 -10.652,-4.073 -10.652,-9.425c0,-2.298 2.428,-3.29 4.386,-3.29c1.932,0 4.047,0.6 4.099,2.924l1.828,0c-0.418,-3.629 -3.655,-4.491 -6.136,-4.491c-2.976,0 -6.005,1.802 -6.005,5.092c0,4.073 4.648,5.039 7.702,6.057c1.593,0.522 2.951,1.41 2.951,3.29c0,2.402 -2.428,3.629 -4.543,3.629c-2.533,0 -4.674,-0.836 -4.726,-3.734l-1.828,0c0.079,3.107 2.611,5.3 5.614,5.3c3.786,0 7.31,-1.253 7.31,-5.352ZM420.109,52.92l4.151,-10.626l4.073,10.626l-8.224,0ZM417.576,59.578l1.985,-5.092l9.373,0l2.01,5.092l1.854,0l-7.519,-18.851l-1.985,0l-7.467,18.851l1.749,0ZM435.32,59.578l1.697,0l0,-16.292l0.052,0l10.183,16.292l2.141,0l0,-18.851l-1.697,0l0,16.579l-0.053,0l-10.391,-16.579l-1.932,0l0,18.851ZM458.089,59.578l1.671,0l0.026,-17.284l5.979,0l0,-1.567l-13.785,0l0,1.567l6.083,0l0.026,17.284ZM468.494,52.92l4.151,-10.626l4.073,10.626l-8.224,0ZM465.961,59.578l1.984,-5.092l9.374,0l2.01,5.092l1.854,0l-7.52,-18.851l-1.984,0l-7.467,18.851l1.749,0ZM503.845,45.139c-0.261,-3.394 -3.185,-4.804 -6.266,-4.804c-5.692,0 -8.12,4.648 -8.12,9.817c0,5.222 2.402,9.817 8.12,9.817c3.029,0 5.927,-1.801 6.475,-4.96l-1.828,0c-0.47,2.349 -2.558,3.394 -4.647,3.394c-4.83,0 -6.292,-4.387 -6.292,-8.251c0,-3.864 1.462,-8.25 6.292,-8.25c2.141,0 4.125,0.94 4.438,3.237l1.828,0ZM509.041,49.03l0,-6.736l3.811,0c1.802,0 5.195,-0.262 5.195,3.368c0,3.211 -2.975,3.368 -5.378,3.368l-3.628,0ZM509.041,50.596l4.673,0c3.419,0 3.681,0.757 4.073,5.065c0.105,1.332 0.208,2.663 0.653,3.917l1.958,0c-0.757,-1.149 -0.653,-2.559 -0.992,-5.614c-0.235,-2.193 -0.757,-3.812 -3.159,-4.203l0,-0.052c2.193,-0.549 3.628,-2.011 3.628,-4.047c0,-1.802 -0.626,-3.16 -1.932,-3.943c-1.435,-0.888 -2.793,-0.992 -4.438,-0.992l-6.162,0l0,18.851l1.698,0l0,-8.982ZM523.828,40.727l0,12.219c0.052,4.047 2.324,7.023 6.893,7.023c4.569,0 6.841,-2.976 6.893,-7.023l0,-12.219l-1.697,0l0,12.193c-0.131,3.42 -2.089,5.483 -5.196,5.483c-3.107,0 -5.065,-2.063 -5.195,-5.483l0,-12.193l-1.698,0ZM553.075,59.578l0,-1.567l-10.495,0l10.495,-15.717l0,-1.567l-12.48,0l0,1.567l10.47,0l-10.47,15.717l0,1.567l12.48,0Z" style="fill:#ffd200;fill-rule:nonzero;"/><path d="M318.564,52.09c0,-4.553 3.614,-7.3 6.938,-7.3c2.53,0 4.988,2.024 4.988,5.638c0,4.481 -3.614,7.227 -6.65,7.227c-2.819,0 -5.276,-2.023 -5.276,-5.565ZM333.164,40.164c-2.169,-3.107 -5.132,-4.336 -8.89,-4.336c-9.035,0 -15.539,7.733 -15.539,17.418c0,7.3 4.697,13.805 12.431,13.805c3.18,0 5.71,-1.229 7.444,-3.758l0.145,0c0.361,3.035 2.53,3.758 4.192,3.758c4.336,0 19.153,-5.131 19.153,-22.261c0,-12.431 -9.902,-21.899 -27.465,-21.899c-15.178,0 -27.465,12.286 -27.465,27.464c0,15.178 12.287,27.465 27.465,27.465c11.275,0 18.864,-3.975 24.068,-11.781l-8.384,0c-3.686,2.964 -7.806,4.554 -14.961,4.554c-10.697,0 -20.093,-7.589 -20.093,-20.165c0,-11.781 8.673,-20.31 20.382,-20.31c10.625,0 18.792,5.204 18.792,16.913c0,9.106 -4.264,11.925 -6.216,11.925c-0.578,0 -0.94,-0.723 -0.94,-1.807c0,-0.867 0.217,-2.385 0.579,-4.409l2.891,-15.611l-6.794,0l-0.795,3.035Z" style="fill:#0bc0df;fill-rule:nonzero;"/><path d="M0,13.838l16.336,0l0,-13.338l-16.336,0l0,13.338ZM0.517,75.149l15.302,0l0,-52.316l-15.302,0l0,52.316ZM24.886,75.149l15.406,0l0,-30.604c0,-4.032 0.93,-6.617 1.861,-7.961c1.654,-2.482 4.652,-4.033 7.961,-4.033c3.929,0 6.307,2.172 7.444,4.446c0.827,1.655 0.827,3.516 0.827,5.687l0,32.465l15.612,0l0,-28.226c0,-9.719 -0.31,-12.407 -1.447,-15.612c-1.344,-3.619 -5.687,-9.822 -15.922,-9.822c-11.373,0 -15.509,6.72 -16.957,9.098l-0.413,-7.858l-14.682,0c0.31,3.619 0.31,9.305 0.31,9.512l0,42.908ZM118.734,22.833l-0.517,7.547c-1.24,-2.068 -5.066,-8.581 -15.819,-8.581c-10.339,0 -22.022,6.513 -22.022,26.571c0,19.955 12.407,27.503 22.953,27.503c8.788,0 12.924,-4.963 14.475,-6.824l0,25.951l15.715,0l0,-62.138c0,-2.068 0.31,-9.099 0.31,-10.029l-15.095,0ZM95.988,48.784c0,-7.858 1.861,-16.956 10.649,-16.956c10.546,0 11.994,11.58 11.994,17.266c0,5.687 -1.241,16.646 -11.166,16.646c-2.172,0 -5.687,-0.412 -8.065,-3.722c-2.998,-4.032 -3.412,-9.822 -3.412,-13.234ZM141.904,22.936l0,32.465c0,2.585 0,9.822 3.411,14.061c2.895,3.826 8.685,7.031 15.716,7.031c9.926,0 13.854,-5.997 15.405,-8.271l0.517,6.927l14.889,0c-0.207,-1.448 -0.31,-2.378 -0.414,-3.826c0,-1.344 -0.103,-2.688 -0.31,-13.958l0,-34.429l-15.716,0l0,26.365c0,8.892 0,16.232 -9.822,16.232c-8.168,0 -8.168,-6.927 -8.168,-11.476l0,-31.121l-15.508,0ZM200.174,13.838l16.336,0l0,-13.338l-16.336,0l0,13.338ZM200.691,75.149l15.302,0l0,-52.316l-15.302,0l0,52.316ZM224.988,75.149l15.302,0l0,-25.745c0,-6.513 0.931,-14.475 16.44,-13.027l0,-13.751c-12.407,-0.621 -15.819,5.686 -17.784,10.132l-0.31,-10.029l-14.371,0c0.31,2.999 0.723,10.546 0.723,13.028l0,39.392ZM258.052,22.936l20.058,52.42l-6.617,19.644l15.405,0l6.307,-20.782l19.748,-51.282l-15.198,0l-11.684,36.187l-11.476,-36.187l-16.543,0Z" style="fill:#fff;fill-rule:nonzero;"/></g></svg>