<?xml version="1.0" encoding="utf-8"?>
<!-- Generator: Adobe Illustrator 15.0.2, SVG Export Plug-In . SVG Version: 6.00 Build 0)  -->
<!DOCTYPE svg PUBLIC "-//W3C//DTD SVG 1.1//EN" "http://www.w3.org/Graphics/SVG/1.1/DTD/svg11.dtd">
<svg version="1.1" id="Layer_1" xmlns="http://www.w3.org/2000/svg" xmlns:xlink="http://www.w3.org/1999/xlink" x="0px" y="0px"
	 width="100%" height="100%" viewBox="0 0 628.3 107.5" style="enable-background:new 0 0 628.3 107.5;" xml:space="preserve"
	>
<style type="text/css">
<![CDATA[
	.st0{fill:#AFCA2F;}
	.st1{fill:#E37527;}
	.st2{fill:#005E9D;}
	.st3{fill:#42B9D7;}
]]>
</style>
<g>
	<path class="st0" d="M409.27,45.61v13.94c0.15,3.91,2.38,6.27,5.93,6.27c3.55,0,5.79-2.36,5.95-6.27V45.61h1.93v13.98
		c-0.05,4.62-2.66,8.03-7.88,8.03c-5.22,0-7.82-3.4-7.88-8.03V45.61H409.27z"/>
	<path class="st0" d="M441.63,50.66c-0.36-2.62-2.62-3.7-5.07-3.7c-5.52,0-7.19,5.02-7.19,9.43c0,4.42,1.67,9.43,7.19,9.43
		c2.38,0,4.78-1.19,5.31-3.88h2.09c-0.62,3.62-3.93,5.67-7.41,5.67c-6.54,0-9.29-5.26-9.29-11.22c0-5.91,2.78-11.22,9.29-11.22
		c3.52,0,6.86,1.62,7.17,5.5h-2.09V50.66z"/>
	<path class="st0" d="M460.96,67.62c-3.43,0-6.33-2.5-6.41-6.05h2.09c0.05,3.31,2.5,4.27,5.41,4.27c2.42,0,5.19-1.4,5.19-4.15
		c0-2.15-1.55-3.17-3.38-3.76c-3.5-1.17-8.81-2.27-8.81-6.93c0-3.76,3.46-5.82,6.86-5.82c2.83,0,6.54,0.98,7.02,5.14h-2.09
		c-0.05-2.66-2.48-3.34-4.69-3.34c-2.24,0-5.02,1.14-5.02,3.76c0,6.12,12.19,3.34,12.19,10.78
		C469.32,66.18,465.28,67.62,460.96,67.62z"/>
	<path class="st0" d="M470.96,67.17l8.54-21.55h2.27l8.6,21.55h-2.12l-2.3-5.82h-10.72l-2.26,5.82H470.96z M485.25,59.55L480.6,47.4
		l-4.74,12.15H485.25z"/>
	<path class="st0" d="M493.32,45.61h2.21l11.88,18.96h0.05V45.61h1.93v21.55h-2.45l-11.64-18.63h-0.05v18.63h-1.93V45.61z"/>
	<path class="st0" d="M519.39,47.4h-6.96v-1.79h15.76v1.79h-6.84l-0.03,19.76h-1.91L519.39,47.4z"/>
	<path class="st0" d="M526.46,67.17l8.54-21.55h2.27l8.6,21.55h-2.12l-2.3-5.82h-10.72l-2.26,5.82H526.46z M540.77,59.55
		l-4.66-12.15l-4.74,12.15H540.77z"/>
	<path class="st0" d="M569.74,50.66c-0.36-2.62-2.62-3.7-5.07-3.7c-5.52,0-7.19,5.02-7.19,9.43c0,4.42,1.67,9.43,7.19,9.43
		c2.38,0,4.78-1.19,5.31-3.88h2.09c-0.62,3.62-3.93,5.67-7.41,5.67c-6.54,0-9.29-5.26-9.29-11.22c0-5.91,2.78-11.22,9.29-11.22
		c3.52,0,6.86,1.62,7.17,5.5h-2.09V50.66z"/>
	<path class="st0" d="M577.84,67.17h-1.93V45.61h7.05c1.88,0,3.43,0.12,5.07,1.14c1.5,0.9,2.21,2.45,2.21,4.5
		c0,2.33-1.64,4-4.15,4.62v0.05c2.74,0.45,3.34,2.3,3.62,4.81c0.38,3.5,0.26,5.1,1.14,6.42h-2.24c-0.5-1.43-0.62-2.95-0.74-4.48
		c-0.45-4.93-0.74-5.79-4.66-5.79h-5.34v10.27H577.84z M581.98,55.11c2.74,0,6.15-0.19,6.15-3.86c0-4.15-3.88-3.85-5.93-3.85h-4.36
		v7.7h4.15V55.11z"/>
	<path class="st0" d="M596.74,45.61v13.94c0.15,3.91,2.38,6.27,5.93,6.27c3.55,0,5.79-2.36,5.95-6.27V45.61h1.93v13.98
		c-0.05,4.62-2.66,8.03-7.88,8.03s-7.82-3.4-7.88-8.03V45.61H596.74z"/>
	<path class="st0" d="M614.03,67.17v-1.79L626,47.4h-11.98v-1.79h14.27v1.79l-12,17.98h12v1.79H614.03z"/>
</g>
<g>
	<path class="st1" d="M406.21,70.91h5.37c0.77,0,2.34,0,3.44,0.7c1.13,0.7,1.66,1.85,1.66,3.06c0,1.06-0.4,2-1.06,2.66
		c-0.65,0.65-1.31,0.85-1.76,0.98c1.43,0.37,2.08,1.02,2.29,2.89c0.21,1.76,0.36,3.06,0.94,4.72h-2.23
		c-0.33-0.99-0.54-2.82-0.69-3.97c-0.25-2.19-0.77-2.81-3.29-2.81h-2.62v6.77h-2.05V70.91L406.21,70.91z M408.23,77.38h3.29
		c0.22,0,1.42,0,1.97-0.33c0.29-0.17,1.02-0.7,1.02-1.95c0-2.44-2.16-2.44-2.99-2.44h-3.29V77.38L408.23,77.38z"/>
	<path class="st1" d="M419.59,70.91H429v1.76h-7.34v4.68h6.98v1.75h-6.98v4.98h7.5v1.83h-9.58V70.91L419.59,70.91z"/>
	<path class="st1" d="M433.34,81.52c0.04,1.03,0.16,2.97,3.62,2.97c3.11,0,3.51-1.93,3.51-2.68c0-1.68-1.35-2.01-3.44-2.53
		c-2.29-0.56-3.3-0.81-4.07-1.32c-1.23-0.83-1.56-1.95-1.56-2.96c0-3.06,2.89-4.38,5.71-4.38c0.99,0,3.01,0.17,4.21,1.47
		c0.83,0.91,0.87,1.93,0.91,2.56h-2.16c-0.11-1.87-1.68-2.29-3.15-2.29c-2.08,0-3.33,0.94-3.33,2.44c0,1.32,0.87,1.79,2.7,2.22
		c3.58,0.91,3.97,0.99,4.84,1.58c1.39,0.91,1.5,2.37,1.5,2.99c0,2.66-2.08,4.68-5.92,4.68c-1.14,0-3.47-0.19-4.65-1.71
		c-0.85-1.1-0.88-2.3-0.88-3.03H433.34z"/>
	<path class="st1" d="M445.17,70.91h9.42v1.76h-7.34v4.68h6.98v1.75h-6.98v4.98h7.5v1.83h-9.58V70.91L445.17,70.91z"/>
</g>
<g>
	<path class="st1" d="M462.72,70.91h2.23l6.07,15.01h-2.27l-1.62-3.91h-6.96l-1.62,3.91h-2.15L462.72,70.91z M460.82,80.32h5.67
		l-2.77-7.35L460.82,80.32z"/>
</g>
<g>
	<path class="st1" d="M472.89,70.91h5.37c0.77,0,2.34,0,3.44,0.7c1.13,0.7,1.66,1.85,1.66,3.06c0,1.06-0.4,2-1.06,2.66
		c-0.65,0.65-1.31,0.85-1.76,0.98c1.43,0.37,2.08,1.02,2.29,2.89c0.21,1.76,0.36,3.06,0.94,4.72h-2.23
		c-0.33-0.99-0.54-2.82-0.69-3.97c-0.25-2.19-0.77-2.81-3.29-2.81h-2.62v6.77h-2.05V70.91L472.89,70.91z M474.91,77.38h3.29
		c0.23,0,1.42,0,1.97-0.33c0.29-0.17,1.02-0.7,1.02-1.95c0-2.44-2.16-2.44-2.99-2.44h-3.29V77.38L474.91,77.38z"/>
	<path class="st1" d="M495.33,74.97c-0.08-0.52-0.36-2.6-3.25-2.6c-3.62,0-4.27,3.7-4.27,6.19c0,2.82,0.81,5.88,4.24,5.88
		c0.91,0,1.79-0.23,2.42-0.89c0.54-0.58,0.66-1.23,0.73-1.58h2.29c-0.32,2.95-3.03,4.17-5.62,4.17c-5.27,0-6.29-4.65-6.29-7.56
		c0-3.15,1.23-7.88,6.57-7.88c2.12,0,5.11,0.85,5.38,4.27H495.33L495.33,74.97z"/>
	<path class="st1" d="M501.96,70.91v6.44h7.13v-6.44h2.08v15.01h-2.08v-6.77h-7.13v6.77h-2.08V70.91H501.96z"/>
</g>
<g>
	<path class="st1" d="M520.03,70.91h3.68l4.24,12.36l4.34-12.36h3.43v15.01h-2.04V72.41l-4.93,13.51h-1.97l-4.74-13.42v13.42h-2.01
		V70.91L520.03,70.91z"/>
</g>
<g>
	<path class="st1" d="M544.04,70.91h2.23l6.07,15.01h-2.26l-1.62-3.91h-6.96l-1.62,3.91h-2.15L544.04,70.91z M542.16,80.32h5.67
		l-2.77-7.35L542.16,80.32z"/>
</g>
<g>
	<path class="st1" d="M563.57,74.65c-0.22-1.39-1.35-2.34-3.39-2.34c-1.42,0-2.6,0.37-3.39,1.27c-1.31,1.46-1.6,3.4-1.6,4.82
		c0,1.27,0.26,3.4,1.38,4.71c0.98,1.13,2.49,1.47,3.99,1.47c1.71,0,2.78-0.33,3.26-0.48v-4.45h-3.43v-1.72h5.51v7.39
		c-0.87,0.29-2.78,0.91-5.34,0.91c-2.77,0-4.38-0.79-5.45-1.87c-1.47-1.5-2.09-3.59-2.09-5.71c0-1.5,0.37-5.03,3.22-6.94
		c1.47-0.99,3.43-1.06,4.17-1.06c1.18,0,2.99,0.15,4.42,1.6c0.89,0.94,0.95,1.8,0.99,2.38H563.57z"/>
</g>
<g>
	<path class="st1" d="M574.09,70.91h2.23l6.07,15.01h-2.27l-1.62-3.91h-6.95l-1.62,3.91h-2.15L574.09,70.91z M572.19,80.32h5.67
		l-2.77-7.35L572.19,80.32z"/>
</g>
<g>
	<path class="st1" d="M583.72,83.83l8.66-11.1h-8.44v-1.82h10.92v2.05l-8.74,11.11h8.89v1.83h-11.29V83.83z"/>
	<path class="st1" d="M597.17,70.91h2.08v15.01h-2.08V70.91z"/>
	<path class="st1" d="M602.61,70.91h2.89l7.38,12.4v-12.4h1.91v15.01h-2.66l-7.63-12.74v12.74h-1.89V70.91H602.61z"/>
	<path class="st1" d="M618.04,70.91h9.42v1.76h-7.34v4.68h6.98v1.75h-6.98v4.98h7.5v1.83h-9.58V70.91L618.04,70.91z"/>
</g>
<path class="st2" d="M376.65,44.98c-2.45-3.51-5.8-4.9-10.04-4.9c-10.21,0-17.57,8.74-17.57,19.69c0,8.25,5.31,15.61,14.06,15.61
	c3.59,0,6.45-1.39,8.41-4.25h0.16c0.41,3.43,2.86,4.25,4.74,4.25c4.9,0,21.65-5.8,21.65-25.16c0-14.05-11.19-24.75-31.04-24.75
	c-17.15,0-31.04,13.88-31.04,31.04s13.88,31.04,31.04,31.04c12.74,0,21.31-4.49,27.2-13.31h-9.47c-4.16,3.35-8.82,5.14-16.9,5.14
	c-12.09,0-22.71-8.58-22.71-22.79c0-13.31,9.8-22.96,23.04-22.96c12,0,21.24,5.88,21.24,19.12c0,10.29-4.82,13.47-7.02,13.47
	c-0.65,0-1.06-0.82-1.06-2.04c0-0.98,0.24-2.7,0.65-4.98l3.27-17.65h-7.68L376.65,44.98z M360.16,58.45c0-5.15,4.08-8.25,7.84-8.25
	c2.86,0,5.63,2.29,5.63,6.37c0,5.06-4.08,8.17-7.51,8.17C362.93,64.74,360.16,62.45,360.16,58.45"/>
<g>
	<path class="st3" d="M0.11,0.13h18.47v15.08H0.11V0.13z M0.7,25.38H18v59.12H0.7V25.38z"/>
	<path class="st3" d="M28.28,36.02c0-0.24,0-6.66-0.34-10.76h16.6l0.46,8.88c1.64-2.69,6.31-10.28,19.17-10.28
		c11.56,0,16.48,7.01,17.99,11.1c1.29,3.62,1.64,6.66,1.64,17.65v31.9H66.14V47.81c0-2.45,0-4.56-0.94-6.43
		c-1.28-2.57-3.97-5.02-8.41-5.02c-3.74,0-7.13,1.75-8.99,4.56c-1.05,1.52-2.11,4.44-2.11,8.99v34.59H28.28V36.02z"/>
	<path class="st3" d="M151.55,25.38c0,1.05-0.34,8.99-0.34,11.34v70.22h-17.76V77.62c-1.75,2.11-6.43,7.71-16.36,7.71
		c-11.92,0-25.94-8.53-25.94-31.08c0-22.67,13.21-30.03,24.89-30.03c12.15,0,16.48,7.37,17.88,9.7l0.58-8.53H151.55L151.55,25.38z
		 M112.65,69.67c2.69,3.74,6.66,4.21,9.11,4.21c11.22,0,12.62-12.39,12.62-18.81s-1.64-19.53-13.57-19.53
		c-9.94,0-12.04,10.28-12.04,19.17C108.79,58.57,109.26,65.11,112.65,69.67z"/>
	<path class="st3" d="M178.31,25.5v35.17c0,5.14,0,12.97,9.23,12.97c11.1,0,11.1-8.29,11.1-18.35V25.5h17.76v38.91
		c0.24,12.74,0.34,14.25,0.34,15.78c0.12,1.63,0.24,2.69,0.46,4.32H200.4l-0.58-7.83c-1.75,2.57-6.19,9.35-17.41,9.35
		c-7.95,0-14.49-3.62-17.76-7.95c-3.85-4.8-3.85-12.97-3.85-15.9v-36.7h17.53V25.5z"/>
	<path class="st3" d="M226.81,0.13h18.47v15.08h-18.47V0.13z M227.4,25.38h17.3v59.12h-17.3V25.38z"/>
	<path class="st3" d="M254.86,39.98c0-2.81-0.46-11.34-0.82-14.72h16.24l0.34,11.34c2.23-5.02,6.08-12.15,20.1-11.45V40.7
		c-17.53-1.63-18.59,7.37-18.59,14.72v29.09h-17.3V39.98H254.86z"/>
	<path class="st3" d="M311.05,25.5l12.97,40.89l13.21-40.89h17.18l-22.32,57.96l-7.13,23.49h-17.41l7.48-22.2L292.36,25.5H311.05z"
		/>
</g>
</svg>
