<?xml version="1.0" encoding="UTF-8" standalone="no"?>
<svg width="355px" height="108px" viewBox="0 0 355 108" version="1.1" xmlns="http://www.w3.org/2000/svg" xmlns:xlink="http://www.w3.org/1999/xlink" xmlns:sketch="http://www.bohemiancoding.com/sketch/ns">
    <!-- Generator: Sketch 3.4.3 (16618) - http://www.bohemiancoding.com/sketch -->
    <title>Untitled 2</title>
    <desc>Created with Sketch.</desc>
    <defs></defs>
    <g id="Page-1" stroke="none" stroke-width="1" fill="none" fill-rule="evenodd" sketch:type="MSPage">
        <g id="inquiry-stacked" sketch:type="MSLayerGroup">
            <g id="Magazine" transform="translate(159.000000, 88.000000)" fill="#E37527" sketch:type="MSShapeGroup">
                <path d="M76.7,16.2705882 L87.1240741,3.21176471 L76.9648148,3.21176471 L76.9648148,1.07058824 L90.1092593,1.07058824 L90.1092593,3.48235294 L79.5888889,16.5529412 L90.2898148,16.5529412 L90.2898148,18.7058824 L76.7,18.7058824 L76.7,16.2705882 L76.7,16.2705882 Z" id="Shape"></path>
                <path d="M92.8898148,1.07058824 L95.3935185,1.07058824 L95.3935185,18.7294118 L92.8898148,18.7294118 L92.8898148,1.07058824 L92.8898148,1.07058824 Z" id="Shape"></path>
                <path d="M99.437963,1.07058824 L102.916667,1.07058824 L111.8,15.6588235 L111.8,1.07058824 L114.099074,1.07058824 L114.099074,18.7294118 L110.897222,18.7294118 L101.712963,3.74117647 L101.712963,18.7294118 L99.437963,18.7294118 L99.437963,1.07058824 L99.437963,1.07058824 L99.437963,1.07058824 Z" id="Shape"></path>
                <path d="M118.011111,1.07058824 L129.35,1.07058824 L129.35,3.14117647 L120.514815,3.14117647 L120.514815,8.64705882 L128.916667,8.64705882 L128.916667,10.7058824 L120.514815,10.7058824 L120.514815,16.5647059 L129.542593,16.5647059 L129.542593,18.7176471 L118.011111,18.7176471 L118.011111,1.07058824 L118.011111,1.07058824 L118.011111,1.07058824 Z" id="Shape"></path>
                <path d="M0.0361111111,1.07058824 L4.46574074,1.07058824 L9.56944444,15.6117647 L14.7935185,1.07058824 L18.9222222,1.07058824 L18.9222222,18.7294118 L16.4666667,18.7294118 L16.4666667,2.83529412 L10.5324074,18.7294118 L8.16111111,18.7294118 L2.45555556,2.94117647 L2.45555556,18.7294118 L0.0361111111,18.7294118 L0.0361111111,1.07058824 L0.0361111111,1.07058824 L0.0361111111,1.07058824 Z" id="Shape"></path>
                <path d="M28.937037,1.07058824 L31.6212963,1.07058824 L38.9277778,18.7294118 L36.2074074,18.7294118 L34.2574074,14.1294118 L25.8796296,14.1294118 L23.9296296,18.7294118 L21.3416667,18.7294118 L28.937037,1.07058824 L28.937037,1.07058824 Z M26.6740741,12.1411765 L33.4990741,12.1411765 L30.1648148,3.49411765 L26.6740741,12.1411765 L26.6740741,12.1411765 Z" id="Shape"></path>
                <path d="M52.4453704,5.47058824 C52.1805556,3.83529412 50.8203704,2.71764706 48.3648148,2.71764706 C46.6555556,2.71764706 45.2351852,3.15294118 44.2842593,4.21176471 C42.7074074,5.92941176 42.3583333,8.21176471 42.3583333,9.88235294 C42.3583333,11.3764706 42.6712963,13.8823529 44.0194444,15.4235294 C45.1990741,16.7529412 47.0166667,17.1529412 48.8222222,17.1529412 C50.8805556,17.1529412 52.1685185,16.7647059 52.7462963,16.5882353 L52.7462963,11.3529412 L48.6175926,11.3529412 L48.6175926,9.32941176 L55.25,9.32941176 L55.25,18.0235294 C54.2027778,18.3647059 51.9037037,19.0941176 48.8222222,19.0941176 C45.487963,19.0941176 43.55,18.1647059 42.262037,16.8941176 C40.4925926,15.1294118 39.7462963,12.6705882 39.7462963,10.1764706 C39.7462963,8.41176471 40.1916667,4.25882353 43.6222222,2.01176471 C45.3916667,0.847058824 47.7509259,0.764705882 48.6416667,0.764705882 C50.062037,0.764705882 52.2407407,0.941176471 53.962037,2.64705882 C55.0333333,3.75294118 55.1055556,4.76470588 55.1537037,5.44705882 L52.4453704,5.44705882 L52.4453704,5.47058824 Z" id="Shape"></path>
                <path d="M65.1083333,1.07058824 L67.7925926,1.07058824 L75.0990741,18.7294118 L72.3666667,18.7294118 L70.4166667,14.1294118 L62.0509259,14.1294118 L60.1009259,18.7294118 L57.512963,18.7294118 L65.1083333,1.07058824 L65.1083333,1.07058824 Z M62.8212963,12.1411765 L69.6462963,12.1411765 L66.312037,3.49411765 L62.8212963,12.1411765 L62.8212963,12.1411765 Z" id="Shape"></path>
            </g>
            <g id="Research" transform="translate(0.000000, 88.000000)" fill="#E37527" sketch:type="MSShapeGroup">
                <path d="M0.251603774,1.07058824 L6.6854717,1.07058824 C7.60801887,1.07058824 9.4890566,1.07058824 10.8069811,1.89411765 C12.1608491,2.71764706 12.7958491,4.07058824 12.7958491,5.49411765 C12.7958491,6.74117647 12.3166038,7.84705882 11.5258491,8.62352941 C10.7470755,9.38823529 9.95632075,9.62352941 9.41716981,9.77647059 C11.1304717,10.2117647 11.9092453,10.9764706 12.1608491,13.1764706 C12.4124528,15.2470588 12.5921698,16.7764706 13.2870755,18.7294118 L10.615283,18.7294118 C10.2199057,17.5647059 9.96830189,15.4117647 9.78858491,14.0588235 C9.4890566,11.4823529 8.86603774,10.7529412 5.84679245,10.7529412 L2.70773585,10.7529412 L2.70773585,18.7176471 L0.251603774,18.7176471 L0.251603774,1.07058824 L0.251603774,1.07058824 L0.251603774,1.07058824 Z M2.67179245,8.68235294 L6.61358491,8.68235294 C6.87716981,8.68235294 8.31490566,8.68235294 8.97386792,8.29411765 C9.32132075,8.09411765 10.1959434,7.47058824 10.1959434,6 C10.1959434,3.12941176 7.60801887,3.12941176 6.61358491,3.12941176 L2.67179245,3.12941176 L2.67179245,8.68235294 L2.67179245,8.68235294 L2.67179245,8.68235294 Z" id="Shape"></path>
                <path d="M16.2823585,1.07058824 L27.5566038,1.07058824 L27.5566038,3.14117647 L18.7624528,3.14117647 L18.7624528,8.64705882 L27.125283,8.64705882 L27.125283,10.7058824 L18.7624528,10.7058824 L18.7624528,16.5647059 L27.7483019,16.5647059 L27.7483019,18.7176471 L16.2703774,18.7176471 L16.2703774,1.07058824 L16.2823585,1.07058824 L16.2823585,1.07058824 Z" id="Shape"></path>
                <path d="M32.7564151,13.5529412 C32.8043396,14.7647059 32.9481132,17.0470588 37.0935849,17.0470588 C40.819717,17.0470588 41.2989623,14.7764706 41.2989623,13.8941176 C41.2989623,11.9176471 39.6815094,11.5294118 37.1774528,10.9176471 C34.4337736,10.2588235 33.2236792,9.96470588 32.3011321,9.36470588 C30.8274528,8.38823529 30.4320755,7.07058824 30.4320755,5.88235294 C30.4320755,2.28235294 33.8946226,0.729411765 37.2733019,0.729411765 C38.459434,0.729411765 40.8796226,0.929411765 42.3173585,2.45882353 C43.3117925,3.52941176 43.359717,4.72941176 43.4076415,5.47058824 L40.819717,5.47058824 C40.6879245,3.27058824 38.8068868,2.77647059 37.0456604,2.77647059 C34.5535849,2.77647059 33.0559434,3.88235294 33.0559434,5.64705882 C33.0559434,7.2 34.0983019,7.75294118 36.2908491,8.25882353 C40.5800943,9.32941176 41.0473585,9.42352941 42.089717,10.1176471 C43.7550943,11.1882353 43.8868868,12.9058824 43.8868868,13.6352941 C43.8868868,16.7647059 41.3948113,19.1411765 36.7940566,19.1411765 C35.4282075,19.1411765 32.6366038,18.9176471 31.2228302,17.1294118 C30.204434,15.8352941 30.1684906,14.4235294 30.1684906,13.5647059 L32.7564151,13.5647059 L32.7564151,13.5529412 Z" id="Shape"></path>
                <path d="M46.9300943,1.07058824 L58.2163208,1.07058824 L58.2163208,3.14117647 L49.4221698,3.14117647 L49.4221698,8.64705882 L57.785,8.64705882 L57.785,10.7058824 L49.4221698,10.7058824 L49.4221698,16.5647059 L58.4080189,16.5647059 L58.4080189,18.7176471 L46.9300943,18.7176471 L46.9300943,1.07058824 L46.9300943,1.07058824 L46.9300943,1.07058824 Z" id="Shape"></path>
                <path d="M67.9569811,1.07058824 L70.6287736,1.07058824 L77.9013208,18.7294118 L75.1816038,18.7294118 L73.2406604,14.1294118 L64.9017925,14.1294118 L62.9608491,18.7294118 L60.3849057,18.7294118 L67.9569811,1.07058824 L67.9569811,1.07058824 Z M65.680566,12.1411765 L72.4738679,12.1411765 L69.1550943,3.49411765 L65.680566,12.1411765 L65.680566,12.1411765 Z" id="Shape"></path>
                <path d="M80.1417925,1.07058824 L86.5756604,1.07058824 C87.4982075,1.07058824 89.3792453,1.07058824 90.6971698,1.89411765 C92.0510377,2.71764706 92.6860377,4.07058824 92.6860377,5.49411765 C92.6860377,6.74117647 92.2067925,7.84705882 91.4160377,8.62352941 C90.6372642,9.38823529 89.8465094,9.62352941 89.3073585,9.77647059 C91.0206604,10.2117647 91.799434,10.9764706 92.0510377,13.1764706 C92.3026415,15.2470588 92.4823585,16.7764706 93.1772642,18.7294118 L90.5054717,18.7294118 C90.1100943,17.5647059 89.8584906,15.4117647 89.6787736,14.0588235 C89.3792453,11.4823529 88.7562264,10.7529412 85.7369811,10.7529412 L82.5979245,10.7529412 L82.5979245,18.7176471 L80.1417925,18.7176471 L80.1417925,1.07058824 L80.1417925,1.07058824 L80.1417925,1.07058824 Z M82.5619811,8.68235294 L86.5037736,8.68235294 C86.7793396,8.68235294 88.2050943,8.68235294 88.8640566,8.29411765 C89.2115094,8.09411765 90.0861321,7.47058824 90.0861321,6 C90.0861321,3.12941176 87.4982075,3.12941176 86.5037736,3.12941176 L82.5619811,3.12941176 L82.5619811,8.68235294 L82.5619811,8.68235294 L82.5619811,8.68235294 Z" id="Shape"></path>
                <path d="M107.027453,5.84705882 C106.931604,5.23529412 106.596132,2.78823529 103.133585,2.78823529 C98.7964151,2.78823529 98.0176415,7.14117647 98.0176415,10.0705882 C98.0176415,13.3882353 98.9881132,16.9882353 103.097642,16.9882353 C104.187925,16.9882353 105.242264,16.7176471 105.997075,15.9411765 C106.644057,15.2588235 106.78783,14.4941176 106.871698,14.0823529 L109.615377,14.0823529 C109.231981,17.5529412 105.985094,18.9882353 102.881981,18.9882353 C96.5679245,18.9882353 95.3458491,13.5176471 95.3458491,10.0941176 C95.3458491,6.38823529 96.8195283,0.823529412 103.217453,0.823529412 C105.757453,0.823529412 109.339811,1.82352941 109.663302,5.84705882 L107.027453,5.84705882 L107.027453,5.84705882 L107.027453,5.84705882 Z" id="Shape"></path>
                <path d="M114.970943,1.07058824 L114.970943,8.64705882 L123.513491,8.64705882 L123.513491,1.07058824 L126.005566,1.07058824 L126.005566,18.7294118 L123.513491,18.7294118 L123.513491,10.7647059 L114.970943,10.7647059 L114.970943,18.7294118 L112.478868,18.7294118 L112.478868,1.07058824 L114.970943,1.07058824 L114.970943,1.07058824 Z" id="Shape"></path>
            </g>
            <g id="Inquiry" fill="#42B9D7" sketch:type="MSShapeGroup">
                <path d="M0.11,0.13 L18.58,0.13 L18.58,15.21 L0.11,15.21 L0.11,0.13 L0.11,0.13 Z M0.7,25.38 L18,25.38 L18,84.5 L0.7,84.5 L0.7,25.38 L0.7,25.38 Z" id="Shape"></path>
                <path d="M28.28,36.02 C28.28,35.78 28.28,29.36 27.94,25.26 L44.54,25.26 L45,34.14 C46.64,31.45 51.31,23.86 64.17,23.86 C75.73,23.86 80.65,30.87 82.16,34.96 C83.45,38.58 83.8,41.62 83.8,52.61 L83.8,84.51 L66.14,84.51 L66.14,47.81 C66.14,45.36 66.14,43.25 65.2,41.38 C63.92,38.81 61.23,36.36 56.79,36.36 C53.05,36.36 49.66,38.11 47.8,40.92 C46.75,42.44 45.69,45.36 45.69,49.91 L45.69,84.5 L28.28,84.5 L28.28,36.02 L28.28,36.02 Z" id="Shape"></path>
                <path d="M151.55,25.38 C151.55,26.43 151.21,34.37 151.21,36.72 L151.21,106.94 L133.45,106.94 L133.45,77.62 C131.7,79.73 127.02,85.33 117.09,85.33 C105.17,85.33 91.15,76.8 91.15,54.25 C91.15,31.58 104.36,24.22 116.04,24.22 C128.19,24.22 132.52,31.59 133.92,33.92 L134.5,25.39 L151.55,25.39 L151.55,25.38 L151.55,25.38 Z M112.65,69.67 C115.34,73.41 119.31,73.88 121.76,73.88 C132.98,73.88 134.38,61.49 134.38,55.07 C134.38,48.65 132.74,35.54 120.81,35.54 C110.87,35.54 108.77,45.82 108.77,54.71 C108.79,58.57 109.26,65.11 112.65,69.67 L112.65,69.67 Z" id="Shape"></path>
                <path d="M178.31,25.5 L178.31,60.67 C178.31,65.81 178.31,73.64 187.54,73.64 C198.64,73.64 198.64,65.35 198.64,55.29 L198.64,25.5 L216.4,25.5 L216.4,64.41 C216.64,77.15 216.74,78.66 216.74,80.19 C216.86,81.82 216.98,82.88 217.2,84.51 L200.4,84.51 L199.82,76.68 C198.07,79.25 193.63,86.03 182.41,86.03 C174.46,86.03 167.92,82.41 164.65,78.08 C160.8,73.28 160.8,65.11 160.8,62.18 L160.8,25.48 L178.33,25.48 L178.33,25.5 L178.31,25.5 Z" id="Shape"></path>
                <path d="M226.81,0.13 L245.28,0.13 L245.28,15.21 L226.81,15.21 L226.81,0.13 L226.81,0.13 Z M227.4,25.38 L244.7,25.38 L244.7,84.5 L227.4,84.5 L227.4,25.38 L227.4,25.38 Z" id="Shape"></path>
                <path d="M254.86,39.98 C254.86,37.17 254.4,28.64 254.04,25.26 L270.28,25.26 L270.62,36.6 C272.85,31.58 276.7,24.45 290.72,25.15 L290.72,40.7 C273.19,39.07 272.13,48.07 272.13,55.42 L272.13,84.51 L254.83,84.51 L254.83,39.98 L254.86,39.98 L254.86,39.98 Z" id="Shape"></path>
                <path d="M311.05,25.5 L324.02,66.39 L337.23,25.5 L354.41,25.5 L332.09,83.46 L324.96,106.95 L307.55,106.95 L315.03,84.75 L292.36,25.5 L311.05,25.5 L311.05,25.5 Z" id="Shape"></path>
            </g>
        </g>
    </g>
</svg>