<?xml version="1.0" encoding="utf-8"?>
<!-- Generator: Adobe Illustrator 15.0.2, SVG Export Plug-In . SVG Version: 6.00 Build 0)  -->
<!DOCTYPE svg PUBLIC "-//W3C//DTD SVG 1.1//EN" "http://www.w3.org/Graphics/SVG/1.1/DTD/svg11.dtd">
<svg version="1.1" id="Layer_1" xmlns="http://www.w3.org/2000/svg" xmlns:xlink="http://www.w3.org/1999/xlink" x="0px" y="0px"
	 width="100px" height="50px" viewBox="50 0 100 50" enable-background="new 50 0 100 50" xml:space="preserve">
<g>
	<path fill="#27578C" d="M100,37.537C100,44.439,94.422,50,87.519,50h-25C55.612,50,50,44.439,50,37.537v-25
		C50,5.631,55.612,0,62.519,0h25C94.422,0,100,5.631,100,12.537V37.537z"/>
	<g>
		<path fill="#FFFFFF" d="M89.782,12.997c-1.238,0.724-2.612,1.25-4.073,1.533c-1.168-1.227-2.834-1.994-4.679-1.994
			c-3.54,0-6.411,2.826-6.411,6.311c0,0.495,0.058,0.975,0.165,1.438c-5.328-0.263-10.052-2.776-13.214-6.594
			c-0.551,0.932-0.869,2.016-0.869,3.173c0,2.188,1.134,4.121,2.853,5.252c-1.05-0.033-2.04-0.317-2.904-0.789
			c0,0.026,0,0.053,0,0.079c0,3.057,2.21,5.608,5.144,6.189c-0.539,0.144-1.104,0.222-1.691,0.222c-0.413,0-0.813-0.04-1.206-0.114
			c0.817,2.507,3.184,4.333,5.989,4.384c-2.194,1.692-4.958,2.701-7.963,2.701c-0.519,0-1.027-0.029-1.53-0.088
			c2.84,1.791,6.21,2.834,9.831,2.834c11.793,0,18.242-9.615,18.242-17.956c0-0.273-0.004-0.547-0.018-0.816
			c1.252-0.89,2.34-2.001,3.199-3.268c-1.149,0.503-2.385,0.841-3.684,0.994C88.287,15.708,89.303,14.472,89.782,12.997z"/>
	</g>
</g>
<path fill="#878787" d="M150,37.537C150,44.439,144.422,50,137.52,50h-25C105.613,50,100,44.439,100,37.537v-25
	C100,5.631,105.613,0,112.52,0h25C144.422,0,150,5.631,150,12.537V37.537z"/>
<g>
	<path fill="#FFFFFF" d="M139.783,12.997c-1.238,0.724-2.613,1.25-4.074,1.533c-1.168-1.227-2.834-1.994-4.678-1.994
		c-3.541,0-6.411,2.826-6.411,6.311c0,0.495,0.058,0.975,0.165,1.438c-5.328-0.263-10.053-2.776-13.215-6.594
		c-0.551,0.932-0.869,2.016-0.869,3.173c0,2.188,1.135,4.121,2.854,5.252c-1.05-0.033-2.039-0.317-2.904-0.789
		c0,0.026,0,0.053,0,0.079c0,3.057,2.211,5.608,5.145,6.189c-0.539,0.144-1.105,0.222-1.691,0.222c-0.412,0-0.813-0.04-1.206-0.114
		c0.817,2.507,3.185,4.333,5.989,4.384c-2.194,1.692-4.958,2.701-7.963,2.701c-0.52,0-1.027-0.029-1.531-0.088
		c2.84,1.791,6.211,2.834,9.831,2.834c11.794,0,18.241-9.615,18.241-17.956c0-0.273-0.004-0.547-0.018-0.816
		c1.252-0.89,2.34-2.001,3.199-3.268c-1.148,0.503-2.385,0.841-3.684,0.994C138.287,15.708,139.303,14.472,139.783,12.997z"/>
</g>
</svg>
