<?xml version="1.0" encoding="UTF-8"?>
<svg viewBox="0 0 140 54" version="1.1" xmlns="http://www.w3.org/2000/svg" xmlns:xlink="http://www.w3.org/1999/xlink">
    <title>University of California Santa Cruz</title>
    <g id="Page-1" stroke="none" stroke-width="1" fill="none" fill-rule="evenodd">
        <g id="ucsc-reverse" fill-rule="nonzero" fill="#FFFFFF">
            <path d="M5.559,53.879 C0.863,53.879 0.525,51.383 0.525,48.846 L0.525,40.258 L3.106,40.258 L3.106,50.156 C3.106,51.468 3.529,52.906 5.517,52.906 C7.674,52.863 7.801,51.383 7.801,50.156 L7.801,41.146 C7.801,39.791 7.505,38.988 7.167,37.675 C6.659,35.689 5.982,34.587 5.009,32.728 L2.429,27.779 C1.54,26.171 1.244,25.156 0.906,23.38 C0.568,21.689 0.568,20.588 0.568,18.855 L0.568,16.867 C0.568,14.371 0.906,11.875 5.475,11.875 C10.171,11.875 10.467,14.413 10.467,16.909 L10.467,24.565 L7.844,24.565 L7.844,15.554 C7.844,14.284 7.548,12.889 5.56,12.889 C3.402,12.931 3.148,14.369 3.148,15.554 L3.148,18.261 C3.148,20.038 3.19,21.138 3.571,22.956 C3.909,24.563 4.29,25.537 5.094,27.103 L7.547,31.796 C8.055,32.941 9.027,34.462 9.535,36.239 C10.127,38.098 10.466,38.903 10.466,41.061 L10.466,48.928 C10.424,51.383 10.128,53.836 5.559,53.879 Z M25.695,53.582 L23.114,53.582 L23.114,32.305 L18.503,32.305 L18.503,53.582 L15.881,53.582 L15.881,16.95 C15.881,14.412 16.219,11.917 20.915,11.917 C25.484,11.917 25.737,14.412 25.737,16.908 L25.737,53.582 L25.695,53.582 L25.695,53.582 Z M23.114,30.656 L23.114,15.553 C23.114,14.326 22.987,12.93 20.83,12.888 C18.842,12.888 18.503,14.284 18.503,15.553 L18.503,30.613 L23.114,30.613 L23.114,30.656 Z M38.638,37.17 L38.638,12.085 L41.219,12.085 L41.219,53.582 L38.638,53.582 L38.638,45.672 L33.943,23.422 L33.943,53.582 L31.363,53.582 L31.363,12.085 L33.689,12.085 L38.638,37.17 Z M55.856,13.651 L52.005,13.651 L52.005,53.582 L49.382,53.582 L49.382,13.651 L45.617,13.651 L45.617,12.128 L55.854,12.128 L55.856,13.651 L55.856,13.651 Z M70.153,53.582 L67.573,53.582 L67.573,32.305 L62.961,32.305 L62.961,53.582 L60.34,53.582 L60.34,16.95 C60.34,14.412 60.678,11.917 65.373,11.917 C69.941,11.917 70.195,14.412 70.195,16.908 L70.195,53.582 L70.153,53.582 L70.153,53.582 Z M67.572,30.656 L67.572,15.553 C67.572,14.326 67.445,12.93 65.288,12.888 C63.301,12.888 62.961,14.284 62.961,15.553 L62.961,30.613 L67.572,30.613 L67.572,30.656 Z M93.631,40.258 L93.631,49.692 C93.631,51.975 92.445,53.88 88.766,53.88 C85.087,53.88 83.733,52.062 83.733,49.819 L83.733,16.95 C83.733,14.412 84.071,11.917 88.766,11.917 C93.334,11.917 93.631,14.412 93.631,16.908 L93.631,24.734 L91.008,24.734 L91.008,15.553 C91.008,14.326 90.881,12.93 88.766,12.888 C86.735,12.888 86.354,14.284 86.354,15.553 L86.354,50.748 C86.354,51.805 87.286,52.777 88.766,52.777 C90.287,52.736 91.008,51.845 91.008,50.791 L91.008,40.258 L93.631,40.258 L93.631,40.258 Z M106.701,53.582 L106.701,36.027 C106.701,34.8 106.531,33.531 105.685,32.982 C104.88,32.388 104.289,32.261 103.273,32.261 L102.089,32.261 L102.089,53.581 L99.466,53.581 L99.466,12.211 L104.161,12.211 C104.88,12.211 106.782,12.296 108.011,13.228 C109.281,14.158 109.281,15.426 109.281,16.908 L109.281,27.99 C109.281,28.752 109.154,29.302 108.646,29.978 C108.054,30.74 106.615,31.499 106.49,31.542 C106.615,31.585 107.76,32.22 108.308,32.854 C109.238,33.827 109.324,34.799 109.324,35.942 L109.324,53.581 L106.701,53.581 L106.701,53.582 Z M105.645,13.735 C105.178,13.524 104.459,13.355 103.698,13.355 L102.136,13.355 L102.136,31.121 L103.363,31.121 C104.463,31.121 105.605,30.613 106.07,30.062 C106.492,29.638 106.705,28.287 106.705,27.187 L106.705,16.062 C106.701,14.877 106.488,14.116 105.645,13.735 L105.645,13.735 Z M117.277,50.791 C117.277,51.848 118.037,52.779 119.56,52.779 C121.04,52.779 121.802,51.804 121.802,50.748 L121.802,12.17 L124.425,12.17 L124.425,49.861 C124.425,52.101 123.239,53.922 119.56,53.922 C115.882,53.922 114.654,52.018 114.654,49.734 L114.654,12.17 L117.277,12.17 L117.277,50.791 L117.277,50.791 Z M135.889,13.651 L130.221,13.651 L130.221,12.086 L139.106,12.086 L132.971,51.848 L139.487,51.848 L139.487,53.541 L129.757,53.541 L135.889,13.651 Z M5.898,5.741 C5.898,6.502 5.856,7.22 5.306,7.855 C4.798,8.49 3.994,8.744 3.191,8.744 C2.43,8.744 1.626,8.575 1.076,7.982 C0.484,7.347 0.441,6.544 0.441,5.741 L0.441,0.749 L1.414,0.749 L1.414,5.741 C1.414,6.206 1.414,6.841 1.71,7.262 C2.048,7.728 2.683,7.855 3.233,7.855 C3.74,7.855 4.291,7.686 4.629,7.304 C5.009,6.839 5.009,6.289 5.009,5.741 L5.009,0.749 L5.855,0.749 L5.855,5.741 L5.898,5.741 L5.898,5.741 Z M13.512,8.617 L12.539,8.617 L8.563,1.763 L8.563,8.617 L7.717,8.617 L7.717,0.749 L8.944,0.749 L12.667,7.137 L12.667,0.749 L13.513,0.749 L13.512,8.617 L13.512,8.617 Z M15.374,8.617 L15.374,0.749 L16.347,0.749 L16.347,8.617 L15.374,8.617 Z M21.042,8.617 L20.112,8.617 L17.447,0.749 L18.463,0.749 L20.662,7.222 L22.82,0.749 L23.666,0.749 L21.042,8.617 Z M29.84,8.617 L24.764,8.617 L24.764,0.749 L29.756,0.749 L29.756,1.596 L25.779,1.596 L25.779,4.09 L28.952,4.09 L28.952,4.895 L25.779,4.895 L25.779,7.772 L29.882,7.772 L29.882,8.618 L29.84,8.617 L29.84,8.617 Z M35.762,8.617 L34.324,5.233 L32.167,5.233 L32.167,8.617 L31.194,8.617 L31.194,0.749 L34.155,0.749 C34.79,0.749 35.424,0.834 35.932,1.215 C36.44,1.596 36.778,2.274 36.778,2.949 C36.778,3.88 36.228,4.724 35.297,4.979 L36.862,8.617 L35.762,8.617 Z M33.986,4.429 C34.493,4.429 34.959,4.386 35.34,4.006 C35.636,3.709 35.721,3.371 35.721,2.99 C35.721,2.524 35.552,2.144 35.171,1.889 C34.832,1.635 34.494,1.635 34.071,1.635 L32.125,1.635 L32.125,4.427 L33.986,4.429 L33.986,4.429 Z M38.681,6.291 C39.019,7.391 39.908,7.898 41.008,7.898 C41.473,7.898 42.066,7.813 42.404,7.516 C42.7,7.304 42.87,6.881 42.87,6.5 C42.87,5.696 42.235,5.4 41.516,5.231 L40.204,4.892 C39.697,4.764 39.189,4.637 38.766,4.256 C38.343,3.876 38.132,3.368 38.132,2.818 C38.132,1.295 39.444,0.661 40.797,0.661 C42.109,0.661 43.166,1.295 43.59,2.564 L42.7,2.82 C42.531,1.972 41.599,1.424 40.756,1.424 C39.993,1.424 39.064,1.805 39.064,2.695 C39.064,3.583 39.741,3.753 40.502,3.964 L41.686,4.26 C42.194,4.387 42.702,4.514 43.125,4.854 C43.631,5.235 43.844,5.785 43.844,6.418 C43.844,7.137 43.547,7.772 42.954,8.194 C42.362,8.616 41.6,8.786 40.924,8.786 C39.318,8.786 38.259,8.067 37.752,6.545 L38.681,6.291 Z M45.406,8.617 L45.406,0.749 L46.379,0.749 L46.379,8.617 L45.406,8.617 Z M50.779,8.617 L49.806,8.617 L49.806,1.637 L47.564,1.637 L47.564,0.792 L52.978,0.792 L52.978,1.638 L50.736,1.638 L50.736,8.617 L50.779,8.617 Z M56.828,5.317 L56.828,8.617 L55.855,8.617 L55.855,5.317 L53.232,0.749 L54.375,0.749 L56.447,4.387 L58.562,0.749 L59.451,0.749 L56.828,5.317 Z M63.301,4.768 C63.301,2.823 64.275,0.664 66.516,0.664 C68.715,0.664 69.732,2.694 69.732,4.598 C69.732,6.502 68.758,8.744 66.516,8.744 C64.274,8.744 63.301,6.713 63.301,4.768 Z M68.758,4.64 C68.758,3.921 68.631,3.119 68.291,2.484 C67.953,1.848 67.318,1.425 66.6,1.425 C64.867,1.425 64.359,3.329 64.359,4.725 C64.359,6.079 64.909,7.899 66.557,7.899 C68.25,7.94 68.758,5.994 68.758,4.64 L68.758,4.64 Z M71.252,8.617 L71.252,0.749 L76.075,0.749 L76.075,1.596 L72.267,1.596 L72.267,4.09 L75.441,4.09 L75.441,4.895 L72.267,4.895 L72.267,8.618 L71.252,8.617 L71.252,8.617 Z M85.848,6.164 C85.467,7.644 84.578,8.744 82.928,8.744 C80.645,8.744 79.713,6.545 79.713,4.598 C79.713,2.569 80.73,0.621 82.971,0.621 C84.535,0.621 85.467,1.679 85.805,3.117 L84.873,3.286 C84.578,2.271 84.111,1.425 82.928,1.425 C81.238,1.425 80.772,3.286 80.772,4.64 C80.772,5.276 80.857,6.036 81.152,6.586 C81.491,7.305 82.085,7.856 82.885,7.856 C84.071,7.856 84.662,6.967 84.916,5.911 L85.848,6.164 Z M92.699,8.617 L91.683,8.617 L90.88,6.333 L87.96,6.333 L87.239,8.617 L86.393,8.617 L88.932,0.749 L90.073,0.749 L92.699,8.617 L92.699,8.617 Z M89.484,1.806 L88.257,5.572 L90.669,5.572 L89.484,1.806 L89.484,1.806 Z M98.367,8.617 L93.715,8.617 L93.715,0.749 L94.688,0.749 L94.688,7.728 L98.327,7.728 L98.327,8.617 L98.367,8.617 L98.367,8.617 Z M99.51,8.617 L99.51,0.749 L100.483,0.749 L100.483,8.617 L99.51,8.617 Z M102.43,8.617 L102.43,0.749 L107.252,0.749 L107.252,1.596 L103.443,1.596 L103.443,4.09 L106.615,4.09 L106.615,4.895 L103.443,4.895 L103.443,8.618 L102.43,8.617 L102.43,8.617 Z M107.547,4.768 C107.547,2.823 108.52,0.664 110.762,0.664 C112.961,0.664 113.977,2.694 113.977,4.598 C113.977,6.502 113.004,8.744 110.762,8.744 C108.52,8.744 107.547,6.713 107.547,4.768 Z M112.961,4.64 C112.961,3.921 112.834,3.119 112.496,2.484 C112.158,1.848 111.523,1.425 110.805,1.425 C109.071,1.425 108.563,3.329 108.563,4.725 C108.563,6.079 109.114,7.899 110.762,7.899 C112.453,7.94 112.961,5.994 112.961,4.64 Z M120.111,8.617 L118.673,5.233 L116.515,5.233 L116.515,8.617 L115.542,8.617 L115.542,0.749 L118.503,0.749 C119.138,0.749 119.773,0.834 120.278,1.215 C120.786,1.596 121.126,2.274 121.126,2.949 C121.126,3.88 120.575,4.724 119.646,4.979 L121.212,8.617 L120.111,8.617 Z M118.334,4.429 C118.842,4.429 119.307,4.386 119.688,4.006 C119.985,3.709 120.069,3.371 120.069,2.99 C120.069,2.524 119.899,2.144 119.518,1.889 C119.18,1.635 118.842,1.635 118.418,1.635 L116.473,1.635 L116.473,4.427 L118.334,4.429 L118.334,4.429 Z M128.361,8.617 L127.386,8.617 L123.366,1.763 L123.366,8.617 L122.563,8.617 L122.563,0.749 L123.79,0.749 L127.513,7.137 L127.513,0.749 L128.361,0.749 L128.361,8.617 L128.361,8.617 Z M130.221,8.617 L130.221,0.749 L131.196,0.749 L131.196,8.617 L130.221,8.617 Z M138.512,8.617 L137.496,8.617 L136.693,6.333 L133.773,6.333 L133.054,8.617 L132.208,8.617 L134.745,0.749 L135.888,0.749 L138.512,8.617 Z M135.297,1.806 L134.07,5.572 L136.48,5.572 L135.297,1.806 L135.297,1.806 Z" id="Shape"></path>
        </g>
    </g>
</svg>