<?xml version="1.0" encoding="UTF-8" standalone="no"?><!DOCTYPE svg PUBLIC "-//W3C//DTD SVG 1.1//EN" "http://www.w3.org/Graphics/SVG/1.1/DTD/svg11.dtd"><svg width="100%" height="100%" viewBox="0 0 143 59" version="1.1" xmlns="http://www.w3.org/2000/svg" xmlns:xlink="http://www.w3.org/1999/xlink" xml:space="preserve" xmlns:serif="http://www.serif.com/" style="fill-rule:evenodd;clip-rule:evenodd;stroke-linejoin:round;stroke-miterlimit:2;"><rect id="Artboard1" x="0" y="0" width="142.045" height="58.002" style="fill:none;"/><clipPath id="_clip1"><rect x="0" y="0" width="142.045" height="58.002"/></clipPath><g clip-path="url(#_clip1)"><path d="M6.51,55.548c-4.696,0 -5.034,-2.496 -5.034,-5.033l0,-8.588l2.581,0l0,9.898c0,1.312 0.423,2.75 2.411,2.75c2.157,-0.043 2.284,-1.523 2.284,-2.75l0,-9.01c0,-1.355 -0.296,-2.158 -0.634,-3.471c-0.508,-1.986 -1.185,-3.088 -2.158,-4.947l-2.58,-4.949c-0.889,-1.608 -1.185,-2.623 -1.523,-4.399c-0.338,-1.691 -0.338,-2.792 -0.338,-4.525l0,-1.988c0,-2.496 0.338,-4.992 4.907,-4.992c4.696,0 4.992,2.538 4.992,5.034l0,7.656l-2.623,0l0,-9.011c0,-1.27 -0.296,-2.665 -2.284,-2.665c-2.158,0.042 -2.412,1.48 -2.412,2.665l0,2.707c0,1.777 0.042,2.877 0.423,4.695c0.338,1.607 0.719,2.581 1.523,4.147l2.453,4.693c0.508,1.145 1.48,2.666 1.988,4.443c0.592,1.859 0.931,2.664 0.931,4.822l0,7.867c-0.042,2.455 -0.338,4.908 -4.907,4.951Zm20.136,-0.297l-2.581,0l0,-21.277l-4.611,0l0,21.277l-2.622,0l0,-36.632c0,-2.538 0.338,-5.033 5.034,-5.033c4.569,0 4.822,2.495 4.822,4.991l0,36.674l-0.042,0Zm-2.581,-22.926l0,-15.103c0,-1.227 -0.127,-2.623 -2.284,-2.665c-1.988,0 -2.327,1.396 -2.327,2.665l0,15.06l4.611,0l0,0.043Zm15.524,6.514l0,-25.085l2.581,0l0,41.497l-2.581,0l0,-7.91l-4.695,-22.25l0,30.16l-2.58,0l0,-41.497l2.326,0l4.949,25.085Zm17.218,-23.519l-3.851,0l0,39.931l-2.623,0l0,-39.931l-3.765,0l0,-1.523l10.237,0l0.002,1.523Zm14.297,39.931l-2.58,0l0,-21.277l-4.612,0l0,21.277l-2.621,0l0,-36.632c0,-2.538 0.338,-5.033 5.033,-5.033c4.568,0 4.822,2.495 4.822,4.991l0,36.674l-0.042,0Zm-2.581,-22.926l0,-15.103c0,-1.227 -0.127,-2.623 -2.284,-2.665c-1.987,0 -2.327,1.396 -2.327,2.665l0,15.06l4.611,0l0,0.043Zm26.059,9.602l0,9.434c0,2.283 -1.186,4.188 -4.865,4.188c-3.679,0 -5.033,-1.818 -5.033,-4.061l0,-32.869c0,-2.538 0.338,-5.033 5.033,-5.033c4.568,0 4.865,2.495 4.865,4.991l0,7.826l-2.623,0l0,-9.181c0,-1.227 -0.127,-2.623 -2.242,-2.665c-2.031,0 -2.412,1.396 -2.412,2.665l0,35.195c0,1.057 0.932,2.029 2.412,2.029c1.521,-0.041 2.242,-0.932 2.242,-1.986l0,-10.533l2.623,0Zm13.07,13.324l0,-17.555c0,-1.227 -0.17,-2.496 -1.016,-3.045c-0.805,-0.594 -1.396,-0.721 -2.412,-0.721l-1.184,0l0,21.32l-2.623,0l0,-41.37l4.695,0c0.719,0 2.621,0.085 3.85,1.017c1.27,0.93 1.27,2.198 1.27,3.68l0,11.082c0,0.762 -0.127,1.312 -0.635,1.988c-0.592,0.762 -2.031,1.521 -2.156,1.564c0.125,0.043 1.27,0.678 1.818,1.312c0.93,0.973 1.016,1.945 1.016,3.088l0,17.639l-2.623,0l0,0.001Zm-1.056,-39.847c-0.467,-0.211 -1.186,-0.38 -1.947,-0.38l-1.562,0l0,17.766l1.227,0c1.1,0 2.242,-0.508 2.707,-1.059c0.422,-0.424 0.635,-1.775 0.635,-2.875l0,-11.125c-0.004,-1.185 -0.217,-1.946 -1.06,-2.327Zm11.632,37.056c0,1.057 0.76,1.988 2.283,1.988c1.48,0 2.242,-0.975 2.242,-2.031l0,-38.578l2.623,0l0,37.691c0,2.24 -1.186,4.061 -4.865,4.061c-3.678,0 -4.906,-1.904 -4.906,-4.188l0,-37.564l2.623,0l0,38.621Zm18.612,-37.14l-5.668,0l0,-1.565l8.885,0l-6.135,39.762l6.516,0l0,1.693l-9.73,0l6.132,-39.89Zm-129.991,-7.91c0,0.761 -0.042,1.479 -0.592,2.114c-0.508,0.635 -1.312,0.889 -2.115,0.889c-0.761,0 -1.565,-0.169 -2.115,-0.762c-0.592,-0.635 -0.635,-1.438 -0.635,-2.241l0,-4.992l0.973,0l0,4.992c0,0.465 0,1.1 0.296,1.521c0.338,0.466 0.973,0.593 1.523,0.593c0.507,0 1.058,-0.169 1.396,-0.551c0.38,-0.465 0.38,-1.015 0.38,-1.563l0,-4.992l0.846,0l0,4.992l0.043,0Zm7.614,2.876l-0.973,0l-3.976,-6.854l0,6.854l-0.846,0l0,-7.868l1.227,0l3.723,6.388l0,-6.388l0.846,0l-0.001,7.868Zm1.862,0l0,-7.868l0.973,0l0,7.868l-0.973,0Zm5.668,0l-0.93,0l-2.665,-7.868l1.016,0l2.199,6.473l2.158,-6.473l0.846,0l-2.624,7.868Zm8.798,0l-5.076,0l0,-7.868l4.992,0l0,0.847l-3.977,0l0,2.494l3.173,0l0,0.805l-3.173,0l0,2.877l4.103,0l0,0.846l-0.042,-0.001Zm5.922,0l-1.438,-3.384l-2.157,0l0,3.384l-0.973,0l0,-7.868l2.961,0c0.635,0 1.269,0.085 1.777,0.466c0.508,0.381 0.846,1.059 0.846,1.734c0,0.931 -0.55,1.775 -1.481,2.03l1.565,3.638l-1.1,0Zm-1.776,-4.188c0.507,0 0.973,-0.043 1.354,-0.423c0.296,-0.297 0.381,-0.635 0.381,-1.016c0,-0.466 -0.169,-0.846 -0.55,-1.101c-0.339,-0.254 -0.677,-0.254 -1.1,-0.254l-1.946,0l0,2.792l1.861,0.002Zm4.695,1.862c0.338,1.1 1.227,1.607 2.327,1.607c0.465,0 1.058,-0.085 1.396,-0.382c0.296,-0.212 0.466,-0.635 0.466,-1.016c0,-0.804 -0.635,-1.1 -1.354,-1.269l-1.312,-0.339c-0.507,-0.128 -1.015,-0.255 -1.438,-0.636c-0.423,-0.38 -0.634,-0.888 -0.634,-1.438c0,-1.523 1.312,-2.157 2.665,-2.157c1.312,0 2.369,0.634 2.793,1.903l-0.89,0.256c-0.169,-0.848 -1.101,-1.396 -1.944,-1.396c-0.763,0 -1.692,0.381 -1.692,1.271c0,0.888 0.677,1.058 1.438,1.269l1.184,0.296c0.508,0.127 1.016,0.254 1.439,0.594c0.506,0.381 0.719,0.931 0.719,1.564c0,0.719 -0.297,1.354 -0.89,1.776c-0.592,0.422 -1.354,0.592 -2.03,0.592c-1.606,0 -2.665,-0.719 -3.172,-2.241l0.929,-0.254Zm6.725,2.326l0,-7.868l0.973,0l0,7.868l-0.973,0Zm5.373,0l-0.973,0l0,-6.98l-2.242,0l0,-0.845l5.414,0l0,0.846l-2.242,0l0,6.979l0.043,0Zm6.049,-3.3l0,3.3l-0.973,0l0,-3.3l-2.623,-4.568l1.143,0l2.072,3.638l2.115,-3.638l0.889,0l-2.623,4.568Zm6.473,-0.549c0,-1.945 0.974,-4.104 3.215,-4.104c2.199,0 3.216,2.03 3.216,3.934c0,1.904 -0.974,4.146 -3.216,4.146c-2.242,0 -3.215,-2.031 -3.215,-3.976Zm5.457,-0.128c0,-0.719 -0.127,-1.521 -0.467,-2.156c-0.338,-0.636 -0.973,-1.059 -1.691,-1.059c-1.733,0 -2.241,1.904 -2.241,3.3c0,1.354 0.55,3.174 2.198,3.174c1.693,0.041 2.201,-1.905 2.201,-3.259Zm2.494,3.977l0,-7.868l4.823,0l0,0.847l-3.808,0l0,2.494l3.174,0l0,0.805l-3.174,0l0,3.723l-1.015,-0.001Zm14.596,-2.453c-0.381,1.48 -1.27,2.58 -2.92,2.58c-2.283,0 -3.215,-2.199 -3.215,-4.146c0,-2.029 1.017,-3.977 3.258,-3.977c1.564,0 2.496,1.058 2.834,2.496l-0.932,0.169c-0.295,-1.015 -0.762,-1.861 -1.945,-1.861c-1.69,0 -2.156,1.861 -2.156,3.215c0,0.636 0.085,1.396 0.38,1.946c0.339,0.719 0.933,1.27 1.733,1.27c1.186,0 1.777,-0.889 2.031,-1.945l0.932,0.253Zm6.851,2.453l-1.016,0l-0.803,-2.284l-2.92,0l-0.721,2.284l-0.846,0l2.539,-7.868l1.141,0l2.626,7.868Zm-3.215,-6.811l-1.227,3.766l2.412,0l-1.185,-3.766Zm8.883,6.811l-4.652,0l0,-7.868l0.973,0l0,6.979l3.639,0l0,0.889l0.04,0Zm1.143,0l0,-7.868l0.973,0l0,7.868l-0.973,0Zm2.92,0l0,-7.868l4.822,0l0,0.847l-3.809,0l0,2.494l3.172,0l0,0.805l-3.172,0l0,3.723l-1.013,-0.001Zm5.117,-3.849c0,-1.945 0.973,-4.104 3.215,-4.104c2.199,0 3.215,2.03 3.215,3.934c0,1.904 -0.973,4.146 -3.215,4.146c-2.242,0 -3.215,-2.031 -3.215,-3.976Zm5.414,-0.128c0,-0.719 -0.127,-1.521 -0.465,-2.156c-0.338,-0.636 -0.973,-1.059 -1.691,-1.059c-1.734,0 -2.242,1.904 -2.242,3.3c0,1.354 0.551,3.174 2.199,3.174c1.691,0.041 2.199,-1.905 2.199,-3.259Zm7.15,3.977l-1.438,-3.384l-2.158,0l0,3.384l-0.973,0l0,-7.868l2.961,0c0.635,0 1.27,0.085 1.775,0.466c0.508,0.381 0.848,1.059 0.848,1.734c0,0.931 -0.551,1.775 -1.48,2.03l1.566,3.638l-1.101,0Zm-1.777,-4.188c0.508,0 0.973,-0.043 1.354,-0.423c0.297,-0.297 0.381,-0.635 0.381,-1.016c0,-0.466 -0.17,-0.846 -0.551,-1.101c-0.338,-0.254 -0.676,-0.254 -1.1,-0.254l-1.945,0l0,2.792l1.861,0.002Zm10.027,4.188l-0.975,0l-4.02,-6.854l0,6.854l-0.803,0l0,-7.868l1.227,0l3.723,6.388l0,-6.388l0.848,0l0,7.868Zm1.86,0l0,-7.868l0.975,0l0,7.868l-0.975,0Zm8.291,0l-1.016,0l-0.803,-2.284l-2.92,0l-0.719,2.284l-0.846,0l2.537,-7.868l1.143,0l2.624,7.868Zm-3.215,-6.811l-1.227,3.766l2.41,0l-1.183,-3.766Zm-149.45,25.93c-0.042,-0.041 -0.423,-0.465 -1.185,-1.269c0.042,-0.339 0.084,-0.762 0.127,-1.27l0.084,-0.846l-0.338,0.169c-0.127,0.042 -0.465,0.423 -0.846,0.889c-0.846,-0.931 -1.988,-2.115 -3.342,-3.512l0,-3.681c2.623,1.903 4.738,3.47 4.738,3.47c0.127,0.084 0.296,-0.128 0.127,-0.255c-0.931,-0.719 -2.707,-2.029 -4.865,-3.596l0,-2.072c0,-0.254 0,-0.804 -0.253,-0.635c-0.508,0.338 -2.75,-0.085 -2.792,-0.085l-0.592,0.127c-1.988,-1.479 -4.019,-2.961 -5.753,-4.229c-0.423,-0.296 -0.592,-0.127 -0.169,0.212c0.296,0.254 2.75,2.073 5.542,4.104c-0.888,0.169 -1.607,0.169 -2.242,0.127c-1.015,-1.058 -2.073,-2.156 -3.257,-3.342c-0.338,-0.339 -0.592,-0.127 -0.254,0.211c0.042,0.043 1.227,1.312 2.919,3.046c-0.55,-0.042 -1.058,-0.169 -1.565,-0.212c-0.296,-0.423 -0.635,-0.846 -0.889,-1.269c-0.55,-0.72 -0.592,-0.254 -0.296,0.212c0.169,0.253 0.38,0.592 0.677,1.015l-1.058,0c-0.042,-0.169 -0.084,-0.296 -0.169,-0.423c-0.212,-0.55 -0.592,-0.762 -0.339,0.169c0.042,0.127 0.085,0.212 0.085,0.339c-0.211,0.042 -0.508,0.127 -0.804,0.296c-0.085,-0.592 -0.211,-1.143 -0.296,-1.691c-0.127,-0.592 -0.38,-0.55 -0.296,0.085c0.084,0.592 0.169,1.185 0.296,1.775c-0.38,0.212 -0.761,0.467 -0.973,0.848c0,-1.017 -0.042,-1.988 -0.042,-2.919c0,-0.975 -0.254,-0.594 -0.296,0l0,2.665c-0.254,-0.34 -0.719,-0.594 -1.142,-0.805l0.253,-1.564c0.085,-0.636 -0.211,-0.677 -0.296,-0.085c-0.084,0.508 -0.169,1.016 -0.296,1.522c-0.339,-0.127 -0.635,-0.17 -0.804,-0.17l0.084,-0.253c0.254,-0.931 -0.127,-0.762 -0.296,-0.17c-0.042,0.127 -0.084,0.254 -0.127,0.423c-0.38,0 -0.761,0 -1.1,0.043c0.296,-0.423 0.508,-0.762 0.677,-1.016c0.338,-0.465 0.254,-0.931 -0.296,-0.211c-0.296,0.38 -0.592,0.804 -0.889,1.269c-0.55,0 -1.015,0.042 -1.438,0.042c1.607,-1.69 2.707,-2.834 2.75,-2.918c0.338,-0.339 0.084,-0.551 -0.254,-0.212c-1.1,1.101 -2.115,2.157 -3.045,3.13c-1.565,0.085 -2.073,0.127 -2.581,0.17c2.876,-2.114 5.415,-3.977 5.71,-4.229c0.423,-0.339 0.254,-0.508 -0.169,-0.212c-1.819,1.354 -3.977,2.919 -6.049,4.441l-0.634,0c-0.508,0 -1.734,0.042 -2.073,0c-0.127,0 -0.338,-0.085 -0.423,-0.085c-0.254,0 -0.296,0.169 -0.296,0.423l0,2.2c-2.073,1.522 -3.849,2.834 -4.738,3.512c-0.169,0.127 0,0.338 0.127,0.254c0,0 2.073,-1.523 4.653,-3.428l0,3.682c-3.596,3.765 -5.457,5.794 -5.499,5.837c-0.254,0.254 -0.042,0.424 0.169,0.211c0.761,-0.719 2.876,-2.876 5.246,-5.372l0,5.625c-1.946,3.088 -3.3,5.414 -3.342,5.414c-0.296,0.467 -0.254,0.721 0.084,0.34c0.084,-0.086 1.438,-2.201 3.257,-5.035l0,3.469c-0.465,0.043 -1.1,0.17 -1.312,0.467c-0.254,0.338 -0.169,0.635 -0.211,1.1c-0.042,0.297 -0.085,0.719 -0.169,0.932c-0.127,0.381 -0.465,0.635 -0.677,0.846c-0.211,0.213 -0.338,0.551 -0.465,0.848c-0.211,0.506 0.084,1.268 0.423,1.818c0.169,0.295 0.508,0.635 0.846,0.676c1.269,0.213 1.438,-0.676 1.607,-1.143c0,-0.043 0,-0.043 0.042,-0.084c0,0.846 0.042,1.312 0.042,1.354c0,0.043 0.635,0 1.607,-0.041c-0.211,0.676 -0.38,1.057 -0.38,1.1c-0.211,0.805 0.169,0.508 0.254,0.211l0.465,-1.311c0.846,-0.043 1.903,-0.086 2.961,-0.127c0.211,0.338 0.677,0.846 0.846,1.184l0.212,0.381l0.127,0.254c0.169,0.297 0.296,0.551 0.465,0.762c-0.127,0.721 -0.212,1.143 -0.212,1.227c-0.253,1.102 -0.042,1.186 0.254,0.17c0,-0.043 0.084,-0.424 0.211,-1.016c0.127,0.17 0.254,0.381 0.423,0.592c0.338,0.467 1.057,0.932 2.75,1.65c0.634,0.297 1.565,0.465 2.58,0.508c0.042,0.846 0.254,0.635 0.296,0c1.311,0.043 2.792,-0.17 4.23,-0.635c0.762,-0.381 1.312,-0.805 1.65,-1.186l0,0.043c0.296,1.016 0.507,0.932 0.254,-0.17c0,-0.041 0,-0.084 -0.042,-0.168c0.211,-0.254 0.296,-0.424 0.296,-0.467c0.085,-0.168 0.846,-1.775 -0.084,-2.961l-0.042,-0.041l-0.084,-0.043l-0.169,-0.127c1.692,0.084 3.511,0.17 4.738,0.211l0.38,1.016c0.084,0.297 0.508,0.551 0.254,-0.211c0,0 -0.127,-0.297 -0.296,-0.805c0.761,0.043 1.227,0.043 1.227,0l0,-1.735c1.058,-0.168 1.396,-0.465 2.073,-1.057c0.804,-0.719 1.312,-1.691 1.269,-2.666c0.042,0.086 0.084,0.127 0.084,0.127c0.338,0.381 0.381,0.127 0.085,-0.338c0,0 -0.127,-0.17 -0.296,-0.465c-0.169,-0.551 -0.465,-1.016 -0.846,-1.396c-0.38,-0.635 -0.846,-1.396 -1.396,-2.285c0.55,-0.084 1.142,-0.254 1.607,-0.422c0.507,-0.213 1.269,-0.805 1.607,-1.734l0.211,-0.086c0.042,-0.084 0.084,-0.211 0.084,-0.295l1.1,1.1c0.214,0.167 0.467,-0.003 0.214,-0.257Zm-2.454,-2.029c-0.296,0.338 -0.592,0.677 -0.846,0.973c-0.084,-0.338 -0.169,-1.015 -0.253,-1.479c-0.085,-0.381 -0.169,-0.677 -0.296,-0.932c0.507,0.507 0.972,0.972 1.395,1.438Zm-3.088,-3.215c0.38,0.381 0.719,0.762 1.058,1.1l0,0.169c0.126,1.271 -0.127,2.284 -0.296,2.877c-0.169,0.593 -0.338,0.847 -0.634,0.974l-0.169,0.084c0.041,-1.947 0.041,-3.724 0.041,-5.204Zm-0.972,-6.515c0.042,-0.255 0.465,-0.339 0.55,0.127c0.085,0.254 0.042,6.049 0,11.759c-0.169,0.043 -0.338,0.043 -0.507,0.043l-0.042,0c-0.001,-5.795 -0.043,-11.802 -0.001,-11.929Zm-0.804,0c0,-0.17 0.423,-0.255 0.381,0.127c0.042,0.085 -0.042,5.965 -0.084,11.632l-0.212,-0.084c0,-0.084 -0.042,-0.17 -0.042,-0.17c0,-0.592 0.254,-0.677 0,-0.973c-0.042,-0.085 -0.169,-0.127 -0.296,-0.169c0.126,-5.372 0.211,-10.278 0.253,-10.363Zm-1.058,-0.254c0.085,-0.338 0.423,-0.084 0.423,0.043c0,0.127 -0.042,5.287 -0.085,10.575c-0.126,0.042 -0.296,0.042 -0.465,0.084c0.042,-3.088 0.085,-6.683 0.127,-10.702Zm-0.085,10.872l0.084,0c0,0 0.55,-0.17 0.719,-0.043c0.211,0.169 0.127,0.889 0.127,1.143l0,0.254c0,0.043 0.042,0.084 0.042,0.17c0.084,0.211 0.296,0.295 0.296,0.381c-0.127,-0.043 -0.211,-0.086 -0.338,-0.086c-0.169,-0.041 -0.338,-0.084 -0.465,-0.084c-0.169,-0.043 -0.296,-0.043 -0.465,-0.043l-0.381,0c-0.338,0.043 -0.634,0.086 -0.846,0.213c-0.084,0.041 -0.169,0.084 -0.254,0.168c0,0 -0.042,0 -0.042,0.043c-0.084,0.043 -0.127,0.127 -0.211,0.211c-0.127,0.17 -0.211,0.381 -0.296,0.592c-0.042,-0.211 -0.296,-0.465 -0.296,-0.633c0,-0.678 0.423,-1.143 0.719,-1.396c0.084,-0.084 0.211,-0.168 0.296,-0.211c0.042,-0.043 0.084,-0.043 0.084,-0.043l0.211,-0.127c0.042,0 0.084,-0.041 0.084,-0.041c0.084,-0.043 0.127,-0.085 0.211,-0.085c0.042,0 0.042,0 0.085,-0.042c0.298,-0.257 0.509,-0.299 0.636,-0.341Zm1.312,2.241l0.084,0.043l0,1.523c-0.211,0 -0.338,0.041 -0.508,0.084c0,-0.592 0,-1.186 0.042,-1.818c0.084,0.041 0.169,0.084 0.296,0.127l0.086,0.041Zm-0.889,-0.295l0,2.156l-0.084,0.043c-0.084,0.043 -0.211,0.084 -0.338,0.127l0,-2.412l0.422,0.086Zm-0.803,-0.043l0,2.496c-0.084,0 -0.126,0.043 -0.169,0.043c-0.635,0.041 -1.015,-0.213 -1.1,-0.381c-0.042,-0.086 -0.084,-0.17 -0.169,-0.297c-0.042,-0.127 -0.084,-0.381 -0.084,-0.381c0,-0.34 0.169,-0.551 0.507,-0.932c0.253,-0.294 0.592,-0.505 1.015,-0.548Zm-9.01,-11.548c0.127,-1.185 3.299,-1.607 3.849,-1.48c0.508,0.127 1.396,0.297 1.777,0.339c0,0 1.776,0.424 3.384,-0.169l0,10.786c-0.296,0.085 -0.973,0.254 -1.438,0.635c-0.508,0.424 -0.846,0.932 -0.846,1.607c0,0.465 0.169,0.889 0.381,1.48c0.127,0.338 0.211,0.719 0.254,0.719c0.296,0.465 0.211,0.889 0.296,1.311c0.127,0.678 0.55,0.805 0.719,0.848l0.592,0.127l0,0.805l-0.127,0c-1.058,-0.086 -1.438,-0.254 -2.073,-0.551l-0.719,-0.424c-1.269,-0.592 -2.961,-0.551 -3.807,-0.168c-0.465,0.168 -0.719,0.338 -0.973,0.635l-0.042,0.168l0.042,0.127c0.084,0.254 0.296,0.508 0.38,0.719c0.085,0.17 0.042,0.594 0.042,0.721c0,0.338 -0.296,0.678 -0.381,0.762l0.042,0c-0.296,0.17 -0.423,0.551 -0.465,1.057c-0.338,0.17 -0.592,0.297 -0.846,0.467c-0.041,-0.047 -0.168,-20.478 -0.041,-20.521Zm3.257,20.728c0.042,0.127 0.127,0.254 0.254,0.338c0.084,0.129 0.211,0.213 0.381,0.297c0.127,0.086 0.296,0.213 0.465,0.297l0.211,0.127c0.127,0.043 0.211,0.127 0.338,0.211c-0.127,0 -0.211,0 -0.338,0.043l-0.508,0.043c-0.127,0 -0.211,0 -0.296,0.041c-0.296,0.043 -0.55,0.043 -0.973,-0.041c-0.127,0 -0.253,-0.043 -0.423,-0.086c-0.254,-0.041 -0.423,-0.168 -0.592,-0.338c-0.169,-0.17 -0.338,-0.381 -0.423,-0.594c-0.084,-0.168 -0.127,-0.254 -0.127,-0.381l-0.042,-0.338c0,-0.17 0.042,-0.338 0.042,-0.465c0.042,-0.127 0.042,-0.211 0.127,-0.297l0,-0.041c0.042,-0.086 0.127,-0.127 0.169,-0.17l0.085,-0.043c0.127,-0.041 0.211,-0.041 0.338,-0.041l0.423,0l0.381,0.041l0.042,0l0.55,0.127l-0.085,0.213c-0.042,0.084 -0.084,0.211 -0.084,0.295c-0.042,0.084 -0.042,0.211 -0.042,0.297c0,0.168 0.042,0.338 0.127,0.465Zm0.169,-0.551c0,-0.168 0.084,-0.381 0.169,-0.592c0.085,0 0.127,0 0.212,-0.041c0.423,0.127 0.846,0.252 1.269,0.422l-1.65,0.211Zm3.215,0.297c0.55,0.17 1.142,0.254 1.777,0.338c-1.396,0.043 -3.088,0.127 -4.526,0.213c-0.169,-0.127 -0.254,-0.213 -0.338,-0.34c1.014,-0.084 2.115,-0.127 3.087,-0.211Zm-2.665,2.031c0,0.211 -0.042,0.381 -0.211,0.508c-0.931,0.76 -1.692,0.93 -3.469,0.676l-0.508,-0.084l0,-1.016c0.465,0 0.973,-0.127 1.481,-0.508c0.042,0 0.211,-0.043 0.423,-0.043c0.169,0.127 0.381,0.213 0.634,0.254c0.931,0.254 1.058,0.254 1.65,0.213Zm-3.088,-1.693l-0.381,-0.168l0.381,-0.17c-0.043,0.127 -0.043,0.254 0,0.338Zm-1.1,0.043c0.846,0.043 1.312,0.848 1.227,0.932c-0.592,0.676 -1.861,0.719 -2.411,0.043c-0.085,-0.13 0.465,-0.932 1.184,-0.975Zm-1.269,0.379c0.169,0.045 -0.169,0.172 -0.169,0.172c-0.381,-0.086 -1.142,-0.127 -2.03,-0.213l-0.042,-0.086c0,-0.041 -0.042,-0.084 -0.042,-0.168c1.014,0.086 1.86,0.17 2.283,0.295Zm-2.453,-0.803c-0.042,-0.168 -0.127,-0.295 -0.254,-0.465c1.1,0.17 2.834,0.465 3.215,0.762c-0.211,0.084 0.042,-0.043 -0.296,0.211c-0.297,-0.211 -1.353,-0.338 -2.665,-0.508Zm1.776,1.142c0.127,0 0.423,0 0.296,0.254c0,-0.043 -0.592,-0.043 -1.523,-0.043l-0.127,-0.254c0.677,0 1.143,0 1.354,0.043Zm0.338,0.551c0.465,0.168 0.762,0.338 1.227,0.422l0,0.932c-0.338,-0.127 -0.677,-0.254 -1.015,-0.465c0,0 -0.423,-0.213 -0.973,-0.467c-0.254,-0.127 -0.465,-0.295 -0.634,-0.508c0.761,0 1.227,0.043 1.395,0.086Zm-8.037,-23.14c0,-0.169 0,-0.212 0.254,-0.212c3.384,0.043 8.629,-1.227 9.137,1.228c0,0.085 0.127,15.693 0.042,20.517c-1.142,-0.467 -2.03,-0.635 -3.976,-0.889l-0.338,-0.465c-0.381,-0.551 -0.465,-0.764 -0.762,-0.975l-0.719,-0.678c-0.381,-0.295 -0.846,-0.76 -0.931,-0.846c-1.058,-0.719 -1.988,-1.059 -2.75,-1.227c0.086,-9.726 -0.041,-15.352 0.043,-16.453Zm-0.634,0.297c0,-0.509 0.296,-0.509 0.253,-0.127c0.042,0.55 0,5.922 -0.126,16.201c-0.127,-0.043 -0.254,-0.043 -0.381,-0.043c0.085,-5.964 0.254,-15.269 0.254,-16.031Zm-0.973,-0.127c-0.042,-0.255 0.254,-0.382 0.296,-0.042c0.042,0.127 -0.085,9.897 -0.127,16.2l-0.381,0.043c0,-6.388 0.169,-16.116 0.212,-16.201Zm-1.1,-0.127c0.042,-0.339 0.507,-0.17 0.507,0.212c-0.042,6.811 -0.127,12.393 -0.168,16.243l-0.127,0.043l-0.254,0l0.042,-16.498Zm-1.396,22.63c-0.254,0.213 -0.508,0.297 -0.846,0.254c-0.211,0 -0.634,-0.506 -0.846,-1.016c-0.084,-0.21 -0.084,-0.464 -0.042,-0.845c0,-0.127 0,-0.211 0.042,-0.297c0.042,-0.127 0.127,-0.254 0.212,-0.338c0.127,0.17 0.38,0.338 0.634,0.465l0.508,0.297c0.296,0.211 0.719,0.338 1.015,0.381c-0.127,0.34 -0.296,0.804 -0.677,1.099Zm0.593,-1.48c-0.085,0 -0.423,0.043 -0.931,-0.211l-0.465,-0.254c-0.254,-0.338 -0.381,-0.508 -0.381,-0.592c0,0 0,-0.043 0.042,-0.043c0.253,-0.211 1.269,-0.211 1.903,-0.127l0,1.186c-0.041,0.041 -0.126,0.041 -0.168,0.041Zm0.803,1.566c-0.042,-0.17 -0.085,-1.186 -0.042,-1.396l0,-1.354c0.127,0 0.254,0 0.381,0.043c0,1.562 0.042,2.41 0.169,2.453c0.085,0.041 1.65,0.041 3.553,0.041l0,0.043c0,0 0.085,0.127 0.127,0.17l0.042,0.127c-2.242,-0.043 -4.188,-0.086 -4.23,-0.127Zm3.427,-1.099c0.042,0.084 0.127,0.168 0.211,0.295c-1.523,-0.041 -2.665,-0.127 -2.707,-0.168c-0.042,-0.043 -0.042,-0.678 -0.085,-1.691l0.381,0.084c0,0.805 0.042,1.312 0.042,1.354c0.127,0.04 0.973,0.083 2.158,0.126Zm-1.65,-1.27c0.127,0.043 0.254,0.127 0.423,0.211c0,0 0,0.043 0.042,0c0.254,0.127 0.508,0.338 0.762,0.551c-0.719,0 -1.227,0 -1.185,0.041c-0.084,-0.084 -0.042,-0.381 -0.042,-0.803Zm17.09,4.272c0,0.127 0,0.254 -0.042,0.381l0,0.086c-0.042,0.127 -0.042,0.254 -0.084,0.424l-0.127,0.381c0,0.041 0,0.041 -0.042,0.084c-0.042,0.127 -0.084,0.254 -0.169,0.381c-0.085,0.127 -0.127,0.254 -0.211,0.338c-0.338,0.465 -0.804,0.762 -1.988,1.312c-0.338,0.127 -0.677,0.211 -0.973,0.297l-0.169,0.041c-0.254,0.086 -0.55,0.127 -0.804,0.17l-0.127,0c-0.296,0.043 -0.55,0.084 -0.846,0.084l-0.042,0c-0.296,0 -0.592,0.043 -0.846,0c-0.296,0 -0.55,-0.041 -0.804,-0.041l-0.127,0c-0.127,0 -0.296,-0.043 -0.423,-0.086l-0.254,-0.041l-0.296,-0.086l-0.508,-0.168c-1.565,-0.721 -2.623,-1.229 -3.088,-1.861l-0.381,-0.592l-0.254,-0.381c-0.127,-0.256 -0.253,-0.467 -0.423,-0.721l-0.254,-0.297l-0.211,-0.381c-0.127,-0.254 -0.296,-0.549 -0.465,-0.803c-0.042,-0.084 -0.127,-0.17 -0.169,-0.297c0,-0.041 -0.212,-0.422 -0.212,-0.422l0,-0.043l-0.127,-0.17c-0.084,-0.127 -0.126,-0.211 -0.211,-0.297c-0.084,-0.127 -0.127,-0.211 -0.211,-0.295c-0.127,-0.213 -0.254,-0.381 -0.338,-0.424c-0.042,-0.043 -0.084,-0.084 -0.127,-0.084c-0.084,-0.086 -0.169,-0.17 -0.296,-0.254c-0.127,-0.086 -0.296,-0.211 -0.508,-0.297c-0.169,-0.084 -0.381,-0.211 -0.592,-0.295l-0.38,-0.17l-0.508,-0.211l-0.381,-0.127c-0.211,-0.043 -0.38,-0.127 -0.55,-0.127l-0.381,-0.084c-0.169,0 -0.296,-0.043 -0.423,-0.043l-0.127,0c-0.804,0.043 -0.931,-0.041 -1.185,-0.041l-0.169,0c-0.042,0 -0.127,0 -0.211,0.041l0.127,-0.295c0.084,-0.254 0.042,-0.635 0.084,-0.975c0.042,-0.379 0.169,-0.887 0.381,-1.057c0.042,-0.043 0.126,-0.127 0.211,-0.127c0.042,0 0.042,0 0.084,-0.043l0.211,-0.041l0.677,0l0.338,-0.043l0.085,0l0.296,-0.084c0.296,-0.086 0.592,-0.129 0.888,-0.17c0.169,-0.043 0.381,-0.043 0.55,-0.043c0.253,0 0.55,0 0.804,0.084l0.507,0.129c0.042,0 0.042,0 0.085,0.041c0.169,0.043 0.338,0.127 0.507,0.213c0.042,0 0.084,0.041 0.084,0.041c0.169,0.086 0.381,0.213 0.55,0.34l0.084,0.041c0.211,0.127 0.423,0.297 0.634,0.467l0.042,0c0.042,0.041 0.338,0.252 0.592,0.465l0.973,0.762c0.212,0.168 0.592,0.762 0.931,1.227l0.254,0.381c0.211,0.297 0.381,0.719 0.508,1.1c0,0.043 0.042,0.086 0.042,0.17c0.042,0.127 0.085,0.254 0.169,0.381l0.127,0.254l0.169,0.297l0.169,0.254l0.169,0.211c0,0 0,0.043 0.042,0.043c0.042,0.041 0.127,0.127 0.211,0.168l0.042,0.043l0.254,0.17l0.55,0.295c0.211,0.127 0.465,0.254 0.719,0.381c0,0 0.042,0 0.042,0.043c0.254,0.127 0.55,0.211 0.846,0.295l0.381,0.086c0.042,0 0.084,0 0.084,0.043c1.946,0.254 3.553,0 4.188,-0.678c0.212,-0.254 0.339,-0.551 0.296,-0.846l0.127,0c0.634,-0.043 0.846,-0.086 1.227,0.211c0.426,0.252 0.723,0.504 0.723,0.885Zm5.372,-1.735c-0.169,-0.041 -3.722,-0.168 -6.557,-0.211c-0.169,-0.084 -0.38,-0.211 -0.592,-0.295c2.792,0.041 5.795,0.041 6.726,0c0,-0.043 0.042,-0.256 0.042,-0.594l0.465,-0.086c-0.042,0.595 -0.042,1.018 -0.084,1.186Zm2.876,-6.47c0.254,0.338 0.465,0.762 0.508,1.227c0.169,0.932 0.127,1.734 -0.635,2.412l-0.296,0.254l-0.169,0.127c-0.042,0.041 -0.084,0.041 -0.084,0.084l-0.169,0.127l-0.085,0.043l-0.169,0.127l-0.084,0.041c-0.042,0.043 -0.127,0.086 -0.169,0.086l-0.084,0.041l-0.211,0.085c-0.042,0 -0.042,0 -0.085,0.041l-0.253,0.086l-0.085,0l-0.296,0.084l-0.381,0.043l-0.55,0.084c-0.211,0.043 -0.381,0.043 -0.592,0.043c-0.254,0.041 -0.508,0.041 -0.761,0.041l-0.806,0c-0.254,0 -0.465,-0.041 -0.677,-0.041l-0.043,0c-1.185,-0.127 -2.242,-0.424 -3.046,-0.805l-0.592,-0.254l-0.508,-0.211c-0.423,-0.17 -0.804,-0.297 -1.227,-0.381l-0.085,0l-0.465,-0.084l-0.127,0c-0.169,0 -0.338,-0.043 -0.465,0c0.085,-0.254 0.169,-0.594 0.169,-0.848l0,-0.17c-0.042,-0.168 -0.127,-0.381 -0.211,-0.592c-0.084,-0.17 -0.127,-0.297 -0.211,-0.508c0.169,-0.211 0.253,-0.381 0.592,-0.508c0.677,-0.254 2.157,-0.422 3.342,0.127l0.888,0.381c0.634,0.297 1.142,0.592 2.284,0.678l0.634,0.041c0.127,0 0.254,0 0.381,0.043l0.973,0c0.211,0 0.423,0 0.592,-0.043c0.169,0 0.338,-0.041 0.465,-0.041c0.169,0 0.296,-0.043 0.423,-0.043c0.211,-0.043 0.381,-0.084 0.55,-0.127c0.042,0 0.042,0 0.084,-0.043c0.169,-0.041 0.296,-0.084 0.423,-0.127c1.144,-0.38 1.313,-1.099 1.313,-1.52Zm-5.203,0.929c0.127,0 0.296,0.043 0.423,0l0,0.805c-0.127,0 -0.254,0 -0.423,-0.043l0,-0.762Zm0.889,0.805l0,-0.932l0.042,0c0.127,-0.041 0.296,-0.127 0.465,-0.254l0,1.186c-0.169,0.041 -0.338,0 -0.507,0Zm1.058,0.041l0,-1.605l0.507,-0.424c0,0.678 0,1.354 -0.042,1.988c-0.127,0 -0.254,0.041 -0.465,0.041Zm2.792,-1.902c0.042,0.254 0.127,1.1 -0.973,1.48l-0.888,0.295l0,-2.242c0.38,-0.252 0.846,-0.295 1.819,0.381c0.042,0 0.042,0.043 0.042,0.086Zm-0.17,-0.762l-0.508,-0.084l-0.507,0c-0.127,0 -0.212,0 -0.338,0.041c-0.127,0 -0.212,0.043 -0.296,0.086c-0.169,0.041 -0.296,0.127 -0.423,0.211c-0.169,0.084 -0.296,0.211 -0.465,0.381c-0.042,0 -0.042,0.041 -0.042,0.041c-0.211,0.213 -0.38,0.297 -0.55,0.381c-0.17,0.086 -0.296,0.129 -0.465,0.17l-0.042,0l-0.127,0.043l-0.338,0.127c-0.253,0.084 -0.55,0.127 -0.804,0.084c-0.084,0 -0.169,-0.041 -0.296,-0.084c-0.465,-0.211 -0.719,-0.635 -0.761,-0.805c-0.042,-0.297 0.042,-0.338 -0.042,-0.803c0.127,0.041 0.296,0.084 0.465,0.084l0.719,0c0.084,0 0.169,-0.043 0.253,-0.084l0.381,-0.17l0.042,0c0.169,-0.127 0.38,-0.211 0.634,-0.297c0.085,-0.041 0.211,-0.041 0.338,-0.084l0.931,0c0.254,0 0.55,-0.043 0.889,0.043c0.042,0 0.084,0 0.169,0.041c0.042,0 0.084,0 0.127,0.043l0.169,0.043c0.042,0 0.042,0 0.084,0.041l0.254,0.127l0.084,0.043l0.211,0.127l0.084,0.043c0,0.041 0.085,0.127 0.17,0.211Zm-2.58,-1.059l0,-1.27c0.169,0.084 0.381,0.17 0.55,0.211l0,1.102l-0.55,-0.043Zm2.326,0.508c-0.719,-0.508 -1.015,-0.508 -1.396,-0.465l0,-0.975c0.169,0.043 0.296,0.043 0.465,0.043c0.339,0.508 0.677,0.975 0.931,1.397Zm2.749,-5.371c-0.084,0.465 -0.169,0.846 -0.254,1.142c-0.042,0.085 -0.084,0.213 -0.084,0.298l-0.084,0.168c-0.338,0.846 -0.719,1.521 -2.031,1.945c-0.169,0.043 -0.338,0.084 -0.465,0.084l-0.423,0c-0.169,0 -0.338,-0.041 -0.507,-0.084l-0.212,-0.043l-0.253,-0.041l-0.127,-0.043c-0.55,-0.17 -0.973,-0.465 -1.1,-0.762l0,-0.041l-0.042,-0.127l0,-0.043c0.169,0.043 0.38,0.084 0.634,0.084c0.169,0 0.338,0 0.55,-0.041c0.127,0 0.296,-0.043 0.423,-0.086l0.084,-0.041c0.423,-0.127 0.888,-0.34 1.142,-1.144c0.127,-0.381 0.169,-1.606 0.211,-2.283c0.381,0.846 0.592,2.325 0.592,2.496l0.084,0.465c0,0 0.169,-0.168 0.296,-0.381c0.38,-0.507 0.634,-0.888 0.888,-1.185c0.084,-0.126 0.169,-0.211 0.211,-0.296l0.296,-0.338l0.044,0l0.296,-0.254c-0.126,0.17 -0.126,0.382 -0.169,0.551Zm-30.033,-10.914c-0.211,0.127 -0.338,-0.084 -0.084,-0.211c0.507,-0.297 8.587,-3.935 9.222,-4.23c0.38,-0.169 0.592,0.085 0.211,0.297c-0.043,-0.002 -8.842,3.89 -9.349,4.144Zm9.179,-5.077c0,0 0.127,0.127 -0.042,0.17c-0.212,0.084 -2.75,0.211 -2.919,0.211c-0.084,0 -0.762,0.043 -0.931,0.043c-0.465,-0.043 -0.127,-0.17 0.084,-0.17c0.804,-0.169 3.554,-0.381 3.808,-0.254Zm17.091,5.035c0.211,0.127 0.338,-0.085 0.084,-0.212c-0.507,-0.296 -8.587,-3.934 -9.222,-4.229c-0.381,-0.169 -0.592,0.084 -0.211,0.255c-0.001,0.04 8.84,3.932 9.349,4.186Zm-8.927,-5.035c0,0 -0.127,0.127 0.042,0.17c0.211,0.042 2.707,0.169 2.834,0.169c0.085,0 0.719,0.042 0.931,0.042c0.465,-0.042 0.127,-0.127 -0.084,-0.169c-0.253,-0.085 -3.385,-0.381 -3.723,-0.212Zm-8.46,37.987l-0.042,0.084c-0.084,0 -0.127,0 -0.169,0.127l-0.677,2.496c-0.042,0.127 0,0.17 0.085,0.17l-0.042,0.084l-0.973,-0.254l0,-0.084c0.126,0.041 0.169,0 0.211,-0.086l0.507,-1.859c-0.084,0 -0.296,0 -0.38,0.084l-0.085,-0.043l0.169,-0.719l0.084,0.043c0,0.084 0.042,0.084 0.127,0.127c0.127,0.041 0.211,-0.043 0.254,-0.17c0,-0.084 0,-0.127 -0.084,-0.127l0,-0.084l1.015,0.211Zm1.354,1.649c-0.296,-0.127 -0.465,-0.422 -0.465,-0.676c0.042,-0.424 0.55,-0.762 1.396,-0.678c0.931,0.084 1.354,0.465 1.312,0.889c-0.042,0.254 -0.254,0.549 -0.592,0.594c0.38,0.168 0.592,0.465 0.55,0.803c-0.042,0.508 -0.592,0.846 -1.523,0.762c-0.931,-0.084 -1.438,-0.551 -1.396,-1.016c0.084,-0.339 0.337,-0.594 0.718,-0.678Zm0.762,1.228c0.381,0.041 0.762,-0.086 0.804,-0.424c0.042,-0.295 -0.296,-0.508 -0.719,-0.549c-0.381,-0.043 -0.762,0.084 -0.804,0.422c-0.042,0.338 0.295,0.508 0.719,0.551Zm0.126,-1.353c0.465,0.041 0.677,-0.086 0.677,-0.34c0,-0.254 -0.169,-0.422 -0.634,-0.465c-0.465,-0.041 -0.677,0.086 -0.677,0.338c-0.001,0.213 0.168,0.424 0.634,0.467Zm4.018,-0.381l-0.084,-0.043c0,-0.17 -0.296,-0.338 -0.677,-0.295c-0.55,0.041 -0.846,0.506 -0.804,1.016c0.211,-0.213 0.55,-0.424 0.888,-0.424c0.677,-0.043 1.227,0.254 1.269,1.016c0.042,0.508 -0.423,1.016 -1.269,1.057c-1.015,0.043 -1.48,-0.592 -1.523,-1.354c-0.042,-0.932 0.423,-1.691 1.481,-1.775c0.507,-0.043 0.888,0.168 1.015,0.168c0.042,0 0.084,0 0.084,-0.041l0.042,0.041l-0.422,0.634Zm-0.126,1.269c0,-0.297 -0.339,-0.551 -0.719,-0.508c-0.381,0 -0.677,0.295 -0.635,0.592c0,0.338 0.338,0.549 0.719,0.508c0.381,-0.043 0.635,-0.297 0.635,-0.592Zm1.608,-0.931c-0.296,0 -0.592,-0.211 -0.677,-0.465c-0.126,-0.424 0.212,-0.889 1.058,-1.143c0.889,-0.254 1.438,-0.043 1.565,0.381c0.084,0.254 -0.042,0.592 -0.338,0.762c0.423,0 0.719,0.211 0.804,0.549c0.127,0.51 -0.254,1.018 -1.142,1.271c-0.931,0.254 -1.565,0 -1.692,-0.467c-0.044,-0.297 0.082,-0.636 0.422,-0.888Zm0.76,-0.424c0.423,-0.127 0.592,-0.338 0.508,-0.549c-0.085,-0.211 -0.296,-0.338 -0.719,-0.211c-0.423,0.127 -0.592,0.338 -0.508,0.549c0.043,0.254 0.297,0.338 0.719,0.211Zm0.381,1.355c0.38,-0.127 0.677,-0.381 0.592,-0.678c-0.085,-0.297 -0.465,-0.34 -0.846,-0.254c-0.381,0.125 -0.677,0.381 -0.592,0.678c0.085,0.295 0.465,0.338 0.846,0.254Zm-15.1,-15.228l0.804,0.295c0.042,0 0.042,0 0.084,-0.084l0.042,0l-0.254,0.635l-0.042,0l0,-0.127l-1.227,-0.465l0,-0.043c0.084,0 0.084,0 0.084,-0.043l0.635,-1.732c0,-0.043 0,-0.043 -0.042,-0.086l0,-0.041l0.508,0.168l0,0.043c-0.042,0 -0.085,0 -0.085,0.043l-0.507,1.437Zm2.325,0.802c0,-0.043 0,-0.084 -0.042,-0.127l-0.423,-0.254l-0.169,0.297l0.719,0.422c0.042,0 0.042,0 0.084,-0.084l0.042,0l-0.338,0.592l-0.042,0c0.042,-0.041 0.042,-0.084 0,-0.084l-1.1,-0.635l0.042,-0.043c0.042,0.043 0.084,0 0.084,-0.041l0.931,-1.566c0,-0.041 0.042,-0.041 -0.042,-0.084l0.042,-0.043l1.1,0.635c0.042,0 0.042,0 0.084,-0.084l0.042,0l-0.338,0.592l-0.042,0c0.042,-0.084 0.042,-0.084 0,-0.127l-0.719,-0.422l-0.169,0.295l0.423,0.254c0.042,0.043 0.084,0 0.127,-0.041l0.042,0l-0.338,0.548Zm0.466,1.311c0.085,0 0.127,0 0.127,-0.041l1.016,-1.059l-0.296,-0.295c0,0 -0.042,0 -0.127,0.041l-0.042,0l0.465,-0.508l0.042,0c-0.042,0.084 -0.042,0.084 -0.042,0.127l0.888,0.889c0,0 0.042,0 0.127,-0.041l0.042,0.041l-0.507,0.467c0.042,-0.086 0.084,-0.086 0.042,-0.127l-0.338,-0.297l-1.015,1.057c-0.042,0.043 -0.042,0.043 0,0.086l-0.042,0.041l-0.34,-0.381Zm1.439,2.031c0.084,0.043 0.084,0.043 0.127,0l1.354,-0.592l-0.169,-0.383c0,-0.041 -0.042,-0.041 -0.127,0l0,-0.041l0.634,-0.297l0,0.043c-0.084,0.041 -0.084,0.041 -0.084,0.084l0.508,1.143c0,0.043 0.042,0.043 0.126,0l0,0.043l-0.634,0.297l0,-0.043c0.084,-0.043 0.084,-0.084 0.084,-0.084l-0.211,-0.424l-1.354,0.592c-0.042,0 -0.042,0.043 -0.042,0.086l-0.043,0l-0.169,-0.424Zm1.522,2.707c-0.042,0 -0.042,0.043 0,0.086l-0.042,0.041l-0.296,-0.422l0.042,-0.043c0.042,0.043 0.085,0.043 0.085,0l0.592,-0.424l-0.38,-0.551l-0.592,0.424c-0.042,0 -0.042,0.043 0,0.084l-0.042,0.044l-0.296,-0.424l0.042,-0.041c0.042,0.041 0.084,0.041 0.084,0l1.48,-1.059c0.042,0 0.042,-0.043 0,-0.084l0.042,-0.043l0.296,0.424l-0.042,0.041c-0.042,-0.041 -0.084,-0.041 -0.084,0l-0.508,0.381l0.381,0.551l0.508,-0.381c0.042,0 0.042,-0.043 0,-0.084l0.042,-0.043l0.296,0.424l-0.042,0.041c-0.042,-0.041 -0.084,-0.041 -0.084,0l-1.482,1.058Zm1.776,0.592c0,-0.041 0,-0.084 -0.042,-0.127l-0.381,-0.295l-0.211,0.295l0.677,0.467c0.042,0 0.042,0 0.127,-0.086l0.042,0l-0.381,0.551l-0.042,0c0.042,-0.043 0.042,-0.084 0,-0.084l-1.015,-0.762l0.042,-0.043c0.042,0.043 0.084,0 0.084,0l1.058,-1.48c0,-0.043 0.042,-0.043 0,-0.084l0.042,-0.043l1.016,0.762c0.042,0 0.042,0 0.084,-0.041l0.042,0l-0.423,0.549l-0.042,0c0.042,-0.084 0.042,-0.084 0.042,-0.127l-0.677,-0.465l-0.211,0.253l0.381,0.297c0.042,0.041 0.084,0 0.126,-0.043l0.042,0l-0.38,0.506Zm0.889,1.143c0,0.043 0,0.043 0.042,0.084l0,0.043l-0.507,-0.168l0,-0.043c0.084,0 0.084,0 0.084,-0.043l0.55,-1.732c0,-0.043 0,-0.043 -0.042,-0.086l0,-0.041l0.888,0.295c0.338,0.127 0.465,0.381 0.296,0.805c-0.127,0.338 -0.296,0.465 -0.55,0.508l0.084,0.719c0,0.043 0,0.086 0.042,0.086l0,0.041l-0.508,-0.17l0,-0.041c0.042,0 0.042,0 0.085,-0.043c0,-0.043 -0.085,-0.635 -0.085,-0.719l-0.253,-0.086l-0.126,0.591Zm0.338,-1.016l0.423,0.127c0.127,0.043 0.211,-0.041 0.254,-0.127c0.042,-0.127 0.042,-0.211 -0.127,-0.254l-0.423,-0.127l-0.127,0.381Zm2.412,0.889c-0.042,-0.041 -0.042,-0.084 -0.084,-0.084l-0.465,-0.043l-0.042,0.381l0.804,0.043c0.042,0 0.042,0 0.042,-0.127l0.042,0l-0.042,0.678l-0.043,0c0,-0.084 0,-0.084 -0.042,-0.084l-1.269,-0.086l0,-0.041c0.042,0 0.085,-0.045 0.085,-0.086l0.126,-1.818c0,-0.043 0,-0.084 -0.084,-0.084l0,-0.043l1.269,0.084c0.042,0 0.042,0 0.042,-0.127l0.042,0l-0.042,0.678l-0.042,0c0,-0.084 0,-0.127 -0.042,-0.127l-0.804,-0.043l-0.042,0.338l0.465,0.043c0.042,0 0.084,-0.043 0.084,-0.084l0.042,0l0,0.632Zm1.354,-1.311c0,-0.043 -0.042,-0.043 -0.084,-0.043l0,-0.043l0.931,-0.295c0.253,-0.084 0.507,0 0.634,0.381c0.084,0.211 0,0.381 -0.127,0.465c0.169,0 0.338,0.127 0.423,0.381c0.084,0.297 0.042,0.592 -0.338,0.719l-0.931,0.297l0,-0.043c0.042,-0.043 0.042,-0.043 0.042,-0.084l-0.55,-1.735Zm0.591,0.508l0.338,-0.086c0.211,-0.041 0.254,-0.084 0.211,-0.254c-0.042,-0.168 -0.127,-0.168 -0.296,-0.084l-0.338,0.084l0.085,0.34Zm0.254,0.846l0.423,-0.127c0.17,-0.043 0.212,-0.127 0.17,-0.297c-0.042,-0.168 -0.127,-0.211 -0.296,-0.168l-0.423,0.127l0.126,0.465Zm2.284,-1.313c-0.042,-0.041 -0.084,-0.041 -0.127,-0.041l-0.423,0.211l0.169,0.338l0.719,-0.381c0.042,0 0.042,-0.041 0,-0.127l0.042,0l0.296,0.594l-0.042,0c-0.042,-0.043 -0.042,-0.086 -0.084,-0.043l-1.142,0.592l-0.042,-0.041c0.042,-0.043 0.042,-0.043 0.042,-0.086l-0.846,-1.648c0,-0.043 -0.042,-0.043 -0.084,-0.043l-0.042,-0.041l1.143,-0.594c0.042,0 0.042,-0.043 0,-0.127l0.042,0l0.296,0.594l-0.042,0c-0.042,-0.086 -0.084,-0.086 -0.084,-0.086l-0.719,0.467l0.169,0.295l0.423,-0.211c0.042,-0.043 0.042,-0.084 0.042,-0.127l0.042,0l0.252,0.505Zm-0.719,-6.767l0.846,0.213c0.042,0 0.042,0 0.084,-0.086l0.042,0l-0.169,0.678l-0.042,0l0,-0.127l-1.312,-0.338l0,-0.043c0.084,0 0.084,0 0.084,-0.041l0.423,-1.777c0,-0.043 0,-0.043 -0.042,-0.084l0,-0.043l0.507,0.127l0,0.043c-0.042,0 -0.084,0 -0.084,0.041l-0.337,1.437Zm1.184,0.845l0,-0.041c0.042,0 0.084,0 0.084,-0.043l0.677,-1.691c0,-0.043 0,-0.043 -0.042,-0.086l0,-0.041l0.466,0.211l0,0.043c-0.042,0 -0.085,0 -0.085,0.041l-0.677,1.693c0,0.041 0,0.041 0.042,0.084l0,0.043l-0.465,-0.213Zm2.539,0.086l-0.296,-0.086c-0.042,0 -0.042,0 -0.042,0.086l-0.042,0l0.127,-0.551l0.042,0l0,0.084l0.719,0.213l0,0.041c-0.042,0 -0.042,0 -0.042,0.043l-0.169,0.592l0,0.127c-0.254,0.127 -0.55,0.17 -0.888,0.084c-0.423,-0.125 -0.719,-0.549 -0.508,-1.227c0.169,-0.678 0.677,-0.932 1.058,-0.805c0.169,0.043 0.211,0.086 0.381,0.213c0.084,0.041 0.127,0.127 0.169,0.168c0,0 0.042,0 0.042,-0.041l0.042,0.041l-0.296,0.424l-0.042,-0.041l0,-0.043c0,-0.084 -0.212,-0.254 -0.381,-0.297c-0.254,-0.043 -0.508,0.086 -0.592,0.467c-0.127,0.422 0.084,0.676 0.296,0.719c0.126,0.043 0.253,0.043 0.38,0l0.042,-0.211Zm2.495,0.93c0,0.043 0,0.043 0.084,0.084l0,0.043l-0.507,-0.043l0,-0.041c0.084,0 0.084,-0.043 0.084,-0.086l0.042,-0.719l-0.677,-0.041l-0.042,0.719c0,0.041 0,0.041 0.084,0.084l0,0.043l-0.507,-0.043l0,-0.043c0.084,0 0.084,-0.041 0.084,-0.084l0.127,-1.818c0,-0.043 0,-0.043 -0.084,-0.084l0,-0.043l0.507,0.043l0,0.041c-0.042,0 -0.084,0.043 -0.084,0.084l-0.042,0.637l0.677,0.041l0.042,-0.635c0,-0.043 0,-0.084 -0.084,-0.084l0,-0.043l0.507,0.043l0,0.041c-0.084,0 -0.084,0.043 -0.084,0.086l-0.127,1.818Zm1.312,-0.043l0,-0.041c0.042,0 0.084,-0.043 0.042,-0.086l-0.211,-1.438l-0.423,0.085c-0.042,0 -0.042,0.043 -0.042,0.127l-0.042,0l-0.127,-0.678l0.042,0c0.042,0.086 0.042,0.086 0.085,0.086l1.227,-0.213c0.042,0 0.042,-0.041 0.042,-0.127l0.042,0l0.127,0.678l-0.043,0l-0.042,-0.084l-0.423,0.084l0.211,1.438c0,0.043 0,0.043 0.084,0.043l0,0.043l-0.549,0.083Zm-25.72,5.035l-0.042,0.041c-0.084,-0.041 -0.127,-0.041 -0.211,0l-1.607,1.65l0.592,0.592c0.127,0.127 0.169,0.127 0.254,0.086l0.084,0.084l-0.508,0.508l-0.042,-0.043c0.042,-0.084 0,-0.127 -0.084,-0.254l-1.734,-1.648c-0.127,-0.127 -0.169,-0.127 -0.254,-0.086l-0.084,-0.084l0.507,-0.508l0.084,0.084c-0.084,0.086 -0.042,0.127 0.085,0.254l0.592,0.594l1.607,-1.65c0.084,-0.084 0.084,-0.127 0,-0.211l0.042,-0.043l0.719,0.634Zm-3.636,-1.904l0.931,-0.676c0.084,-0.043 0.084,-0.127 0,-0.254l0.084,-0.043l0.634,0.889l-0.084,0.041c-0.084,-0.125 -0.127,-0.125 -0.211,-0.084l-2.115,1.48c-0.084,0.043 -0.084,0.086 0,0.254l-0.085,0.043l-0.592,-0.891l0.084,-0.041c0.085,0.127 0.127,0.127 0.211,0.084l0.804,-0.549l-0.888,-1.229l-0.804,0.551c-0.084,0.043 -0.084,0.127 0,0.254l-0.084,0.043l-0.635,-0.889l0.085,-0.043c0.084,0.127 0.127,0.127 0.211,0.084l2.115,-1.48c0.085,-0.041 0.085,-0.127 0,-0.252l0.085,-0.043l0.634,0.889l-0.084,0.043c-0.084,-0.127 -0.127,-0.127 -0.211,-0.084l-0.931,0.676l0.846,1.227Zm-1.523,-4.145l-0.677,-1.48c-0.085,-0.17 -0.085,-0.213 -0.211,-0.17l-0.042,-0.084l0.634,-0.297l0.042,0.084c-0.084,0.043 -0.084,0.127 0,0.254l1.058,2.328l-0.085,0.041c-0.085,-0.168 -0.127,-0.168 -0.212,-0.127l-2.326,1.016c-0.085,0.043 -0.127,0.084 -0.042,0.297l-0.084,0.041l-1.016,-2.24c-0.084,-0.17 -0.084,-0.211 -0.211,-0.17l-0.042,-0.086l0.634,-0.295l0.042,0.084c-0.042,0.043 -0.042,0.127 0,0.256l0.634,1.395l0.677,-0.295l-0.38,-0.846c-0.085,-0.127 -0.127,-0.213 -0.211,-0.17l-0.042,-0.086l0.634,-0.297l0.042,0.086c-0.042,0.041 -0.042,0.127 0,0.254l0.381,0.805l0.803,-0.298Zm-4.57,-7.699l0.085,0c0.042,0.127 0.042,0.168 0.169,0.168l1.693,-0.041c0.38,0 0.634,-0.297 0.634,-0.805c0,-0.508 -0.296,-0.762 -0.677,-0.762l-1.692,0.044c-0.085,0 -0.127,0.041 -0.127,0.169l-0.085,0l-0.042,-1.017l0.084,0c0.042,0.127 0.042,0.17 0.169,0.17l1.692,-0.043c0.677,-0.042 1.142,0.381 1.185,1.439c0.042,1.057 -0.381,1.479 -1.1,1.521l-1.692,0.043c-0.084,0 -0.127,0.041 -0.127,0.211l-0.084,0l-0.085,-1.097Zm3.003,-3.257l-0.084,0c0,-0.127 -0.042,-0.169 -0.127,-0.169l-2.538,-0.381c-0.084,0 -0.127,0 -0.169,0.127l-0.085,0l0.169,-1.144l0.084,0c0,0.085 0,0.127 0.042,0.127c0.084,0 1.819,-0.931 2.073,-0.973l-1.777,-0.296c-0.084,0 -0.127,0 -0.169,0.127l-0.084,0l0.169,-0.931l0.084,0c0,0.127 0.042,0.169 0.127,0.169l2.538,0.381c0.127,0 0.127,0 0.169,-0.085l0.084,0l-0.211,0.973l-0.084,0c0,-0.084 0,-0.127 -0.042,-0.127c-0.084,0 -1.692,0.931 -2.242,1.101l1.946,0.297c0.085,0 0.127,0 0.169,-0.128l0.084,0l-0.126,0.932Zm0.804,-4.104l-0.084,-0.042c0.042,-0.212 0.042,-0.254 -0.084,-0.254l-2.454,-0.804c-0.084,-0.042 -0.127,0 -0.211,0.169l-0.042,0l0.381,-1.142l0.084,0.042c-0.042,0.212 -0.042,0.254 0.085,0.254l2.453,0.804c0.085,0.042 0.127,0 0.211,-0.169l0.085,0.042l-0.424,1.1Zm1.058,-2.792l-0.084,-0.042c0.042,-0.085 0.042,-0.169 0,-0.212c-0.042,-0.042 -1.988,-0.084 -2.75,-0.169c-0.127,0 -0.254,0 -0.296,0.042l-0.084,-0.042l0.423,-0.889l0.085,0.043c-0.042,0.127 -0.042,0.169 0.042,0.169c0.085,0.042 1.523,0.085 2.2,0.169c-0.507,-0.55 -1.438,-1.607 -1.523,-1.649c-0.042,0 -0.042,0 -0.126,0.127l-0.085,-0.042l0.423,-0.847l0.084,0.043c-0.042,0.127 0.042,0.169 0.127,0.296c0.677,0.762 1.734,1.945 1.861,1.988c0.042,0.042 0.084,0 0.127,-0.085l0.084,0.042l-0.508,1.058Zm1.565,-3.595l0.973,-1.311c0.084,-0.128 0.127,-0.171 0.042,-0.255l0.042,-0.085l0.55,0.424l-0.042,0.085c-0.084,-0.042 -0.127,0 -0.211,0.127l-1.523,2.029l-0.084,-0.042c0.084,-0.17 0.084,-0.212 0,-0.254l-2.031,-1.564c-0.084,-0.042 -0.126,-0.042 -0.253,0.127l-0.042,-0.042l1.48,-1.988c0.084,-0.127 0.127,-0.169 0.042,-0.254l0.042,-0.085l0.55,0.423l-0.042,0.085c-0.084,-0.042 -0.127,0 -0.211,0.127l-0.931,1.228l0.592,0.466l0.55,-0.72c0.084,-0.128 0.127,-0.17 0.042,-0.255l0.042,-0.084l0.55,0.424l-0.042,0.085c-0.084,-0.043 -0.127,0 -0.211,0.127l-0.55,0.719l0.676,0.463Zm2.242,-1.989l-0.042,-0.042c0.084,-0.084 0.084,-0.127 0,-0.211l-1.734,-1.903c-0.085,-0.085 -0.127,-0.085 -0.212,0l-0.042,-0.042l1.311,-1.186c0.592,-0.508 1.142,-0.592 1.481,-0.211c0.296,0.338 0.296,0.719 0,1.184l0.973,0.298c0.296,0.084 0.381,0.127 0.508,0.042l0.042,0.042l-0.761,0.677l-0.084,-0.084c0.042,-0.043 0.084,-0.127 0.042,-0.17c0,-0.042 -0.042,-0.042 -0.169,-0.084l-1.058,-0.296l-0.465,0.423l0.677,0.761c0.084,0.085 0.127,0.085 0.211,0l0.042,0.043l-0.72,0.759Zm-0.508,-1.86l0.592,-0.552c0.338,-0.296 0.338,-0.507 0.169,-0.719c-0.169,-0.169 -0.423,-0.169 -0.719,0.127l-0.592,0.55l0.55,0.594Zm3.428,-1.692l0.084,-0.042l0,0.042c0.084,0.169 0.677,0 1.015,-0.212c0.55,-0.338 0.635,-0.592 0.508,-0.846c-0.338,-0.551 -2.03,0.973 -2.581,0.042c-0.253,-0.382 -0.084,-0.974 0.677,-1.438c0.338,-0.212 0.592,-0.297 0.804,-0.339c0.212,-0.042 0.338,-0.042 0.381,-0.085c0.084,-0.042 0.084,-0.084 0.084,-0.127l0.042,0l0,0.889l-0.084,0c0,0 -0.042,-0.042 -0.042,-0.085c-0.084,-0.126 -0.423,-0.126 -0.931,0.17c-0.338,0.211 -0.38,0.423 -0.296,0.593c0.296,0.508 1.988,-1.016 2.623,0c0.254,0.423 0.042,1.058 -0.888,1.648c-0.296,0.17 -0.55,0.254 -0.762,0.339c-0.211,0.042 -0.338,0.042 -0.423,0.127c-0.042,0 -0.042,0.085 -0.042,0.127l-0.084,0l-0.085,-0.803Zm3.552,-0.931l-0.042,-0.085c0.169,-0.084 0.212,-0.127 0.169,-0.211l-0.973,-2.369c-0.042,-0.085 -0.084,-0.127 -0.296,-0.042l-0.042,-0.085l1.1,-0.423l0.042,0.085c-0.169,0.084 -0.211,0.126 -0.169,0.211l0.973,2.368c0.042,0.085 0.085,0.128 0.296,0.043l0.042,0.085l-1.1,0.423Zm2.876,-1.016l0,-0.084c0.084,-0.043 0.127,-0.085 0.084,-0.17l-0.55,-2.284l-0.846,0.212c-0.169,0.042 -0.211,0.086 -0.211,0.17l-0.084,0.043l-0.169,-0.721l0.085,-0.042c0.042,0.084 0.084,0.084 0.253,0.042l2.327,-0.592c0.169,-0.043 0.211,-0.085 0.211,-0.17l0.127,0.044l0.169,0.677l-0.084,0.042c-0.042,-0.127 -0.127,-0.127 -0.254,-0.085l-0.846,0.212l0.55,2.242c0.042,0.085 0.085,0.127 0.212,0.085l0,0.084l-0.974,0.295Zm4.697,-0.76l-1.058,0.084l0,-0.084c0.127,-0.043 0.169,-0.085 0.169,-0.17l-0.042,-1.015l-1.184,-1.48c-0.042,-0.043 -0.085,-0.085 -0.169,-0.127l0,-0.085l1.1,-0.084l0,0.084c-0.127,0 -0.169,0.042 -0.169,0.085c0,0.042 0.508,0.634 0.804,0.973c0.169,-0.339 0.635,-0.973 0.635,-1.1c0,-0.042 -0.042,-0.085 -0.169,-0.085l0,-0.084l1.058,-0.085l0,0.085c-0.084,0.042 -0.127,0.042 -0.169,0.127l-0.973,1.649l0.084,1.015c0,0.085 0.042,0.127 0.169,0.127l-0.086,0.17Zm8.376,-1.82c1.015,0.34 1.396,1.186 1.1,2.03c-0.296,0.804 -1.1,1.271 -2.115,0.931c-1.015,-0.338 -1.396,-1.185 -1.1,-2.029c0.252,-0.805 1.056,-1.271 2.115,-0.932Zm-0.847,2.496c0.592,0.211 1.058,-0.043 1.269,-0.677c0.211,-0.635 0,-1.143 -0.592,-1.312c-0.592,-0.213 -1.058,0.042 -1.269,0.677c-0.255,0.636 -0.042,1.1 0.592,1.312Zm2.072,1.312l0.042,-0.085c0.169,0.085 0.211,0.085 0.253,0l1.227,-2.242c0.042,-0.085 0.042,-0.127 -0.127,-0.254l0.042,-0.084l2.158,1.184c0.127,0.085 0.169,0.085 0.254,0l0.084,0.043l-0.338,0.592l-0.085,-0.043c0.042,-0.085 0,-0.127 -0.126,-0.212l-1.354,-0.719l-0.38,0.635l0.846,0.466c0.127,0.085 0.211,0.085 0.254,0l0.084,0.042l-0.338,0.593l-0.084,-0.042c0,-0.085 0,-0.127 -0.169,-0.212l-0.846,-0.467l-0.508,0.932c-0.042,0.085 -0.042,0.127 0.127,0.254l-0.042,0.085l-0.974,-0.466Zm10.068,4.821l-0.846,0.085l-0.042,-0.085c0,0 0.042,0 0.042,-0.043c0.169,-0.127 0.084,-0.508 -0.169,-0.804c-0.423,-0.508 -0.931,-0.634 -1.522,-0.127c-0.465,0.381 -0.508,1.017 -0.127,1.48c0.253,0.297 0.634,0.424 0.804,0.297c0,0 0.042,-0.085 0.084,-0.085l0.084,0.042l-0.084,0.847l-0.085,0c0,-0.043 0,-0.085 -0.042,-0.127c-0.127,-0.127 -0.55,-0.043 -1.142,-0.72c-0.677,-0.805 -0.55,-1.734 0.084,-2.284c0.804,-0.677 1.777,-0.338 2.369,0.339c0.211,0.254 0.296,0.465 0.338,0.634c0.042,0.17 0.042,0.297 0.084,0.339l0.127,0.085l0.043,0.127Zm-1.819,2.285l0.085,-0.043c0.042,0.085 0.126,0.085 0.211,0.085l2.665,-0.296c0.127,0 0.169,0 0.211,-0.043c0.042,0 0.042,-0.042 0,-0.169l0.084,-0.042l0.55,1.016l-0.084,0.043c-0.042,-0.085 -0.127,-0.127 -0.169,-0.085c-0.042,0 -0.042,0.042 -0.169,0.169l-1.607,2.03c-0.084,0.084 -0.084,0.127 -0.042,0.211l-0.084,0.043l-0.465,-0.847l0.084,-0.042c0.042,0.084 0.085,0.084 0.127,0.084c0.042,0 0.042,-0.042 0.085,-0.084l0.338,-0.466l-0.635,-1.1l-0.508,0.042c-0.042,0 -0.084,0 -0.084,0.043c-0.042,0.042 -0.084,0.084 0,0.169l-0.084,0.042l-0.509,-0.76Zm2.073,1.269l0.846,-0.974l-1.269,0.17l0.423,0.804Zm2.496,1.523c0.084,-0.043 0.127,-0.085 0.084,-0.254l0.084,-0.043l0.381,1.102l-0.084,0.042c-0.085,-0.169 -0.127,-0.212 -0.212,-0.169l-2.199,0.761l0.507,1.479c0.042,0.17 0.084,0.212 0.211,0.17l0.042,0.085l-0.677,0.254l-0.042,-0.084c0.084,-0.043 0.084,-0.127 0,-0.255l-0.804,-2.326l0.084,-0.042c0.085,0.127 0.127,0.169 0.212,0.127l2.413,-0.847Zm-1.649,4.019l0.084,0c0.042,0.211 0.085,0.211 0.211,0.211l2.496,-0.508c0.084,0 0.127,-0.042 0.084,-0.253l0.084,0l0.211,1.142l-0.082,0c-0.042,-0.212 -0.084,-0.212 -0.211,-0.212l-2.496,0.508c-0.085,0 -0.127,0.043 -0.085,0.254l-0.086,0l-0.21,-1.142Zm0.38,2.029l0.084,0c0.042,0.17 0.084,0.212 0.169,0.212l2.538,-0.169c0.085,0 0.127,-0.043 0.127,-0.255l0.085,0l0.169,2.454c0,0.127 0.042,0.211 0.127,0.211l0,0.085l-0.677,0.042l0,-0.085c0.084,-0.042 0.084,-0.084 0.084,-0.211l-0.126,-1.521l-0.761,0.042l0.084,0.973c0,0.169 0.042,0.212 0.127,0.212l0,0.084l-0.677,0.043l0,-0.085c0.084,-0.042 0.084,-0.085 0.084,-0.254l-0.084,-0.973l-1.058,0.084c-0.084,0 -0.127,0.043 -0.127,0.254l-0.083,0l-0.085,-1.143Zm3.003,5.459c-0.127,1.059 -0.889,1.607 -1.734,1.48c-0.846,-0.127 -1.48,-0.805 -1.312,-1.861c0.127,-1.059 0.888,-1.607 1.734,-1.48c0.846,0.127 1.439,0.802 1.312,1.861Zm-2.581,-0.297c-0.084,0.635 0.254,1.016 0.931,1.102c0.677,0.084 1.1,-0.213 1.185,-0.848c0.084,-0.635 -0.254,-1.016 -0.931,-1.1c-0.677,-0.086 -1.1,0.211 -1.185,0.846Zm-0.888,2.537l0.084,0.043c-0.042,0.127 0,0.17 0.084,0.211l2.411,0.848c0.085,0.043 0.127,0 0.212,-0.127l0.084,0.043l-0.592,1.648c-0.254,0.719 -0.719,1.059 -1.185,0.889c-0.423,-0.127 -0.634,-0.508 -0.55,-1.016l-1.015,0.254c-0.296,0.043 -0.381,0.084 -0.465,0.211l-0.084,-0.041l0.338,-0.975l0.084,0.043c0,0.084 -0.042,0.127 0.042,0.17c0.042,0 0.042,0 0.211,-0.043l1.057,-0.254l0.212,-0.592l-0.973,-0.338c-0.084,-0.043 -0.127,0 -0.211,0.127l-0.084,-0.043l0.34,-1.058Zm1.354,1.396l-0.254,0.762c-0.127,0.424 -0.042,0.635 0.169,0.719c0.253,0.086 0.423,-0.041 0.592,-0.465l0.253,-0.762l-0.76,-0.254Zm-2.75,2.453l0.084,0.043c-0.042,0.127 -0.042,0.17 0.042,0.211l2.2,1.27c0.084,0.043 0.127,0.043 0.211,-0.043l0.084,0.043l-0.592,1.016l-0.084,-0.041c0.042,-0.086 0.042,-0.127 0,-0.127c-0.084,-0.043 -2.03,0.254 -2.284,0.168l1.565,0.889c0.084,0.043 0.127,0.043 0.211,-0.043l0.085,0.043l-0.465,0.846l-0.085,-0.041c0.042,-0.127 0.042,-0.17 -0.042,-0.213l-2.242,-1.268c-0.084,-0.043 -0.127,-0.043 -0.211,0.041l-0.084,-0.041l0.507,-0.891l0.085,0.043c-0.042,0.084 -0.042,0.127 0,0.17c0.084,0.041 1.946,-0.254 2.496,-0.213l-1.734,-0.973c-0.084,-0.041 -0.127,-0.041 -0.211,0.043l-0.084,-0.043l0.548,-0.889Zm-2.242,3.512l0.042,0.043c-0.127,0.168 -0.127,0.211 -0.042,0.295l1.988,1.607c0.084,0.043 0.127,0.043 0.254,-0.084l0.042,0.043l-0.761,0.93l-0.042,-0.043c0.127,-0.168 0.127,-0.211 0.042,-0.295l-1.988,-1.607c-0.084,-0.043 -0.127,-0.043 -0.253,0.084l-0.042,-0.043l0.76,-0.93Zm-1.184,1.481l0.042,0.043c-0.084,0.084 -0.042,0.17 0,0.211l0.931,2.496c0.042,0.084 0.042,0.168 0.084,0.168c0.042,0.045 0.042,0.045 0.169,-0.041l0.042,0.041l-0.846,0.805l-0.042,-0.041c0.085,-0.086 0.085,-0.127 0.042,-0.17l-0.211,-0.127l-2.369,-1.059c-0.084,-0.041 -0.127,-0.041 -0.211,0l-0.042,-0.041l0.719,-0.635l0.042,0.041c-0.042,0.086 -0.084,0.086 -0.042,0.127c0,0 0.042,0.043 0.085,0.043l0.507,0.211l0.931,-0.846l-0.169,-0.465c0,-0.043 -0.042,-0.084 -0.042,-0.084c-0.042,-0.043 -0.084,-0.043 -0.169,0.041l-0.042,-0.041l0.591,-0.677Zm-0.719,2.285l1.185,0.549l-0.508,-1.184l-0.677,0.635Z" style="fill:#fff;fill-rule:nonzero;"/></g></svg>