<?xml version="1.0" encoding="utf-8"?>
<!-- Generator: Adobe Illustrator 15.0.0, SVG Export Plug-In . SVG Version: 6.00 Build 0)  -->
<!DOCTYPE svg PUBLIC "-//W3C//DTD SVG 1.1//EN" "http://www.w3.org/Graphics/SVG/1.1/DTD/svg11.dtd">
<svg version="1.1" id="Layer_1" xmlns="http://www.w3.org/2000/svg" xmlns:xlink="http://www.w3.org/1999/xlink" x="0px" y="0px"
	 width="205px" height="56px" viewBox="41.5 0 205 56" enable-background="new 41.5 0 205 56" xml:space="preserve">
<path fill="#FFFFFF" d="M109.559,54.879c-4.696,0-5.034-2.496-5.034-5.033v-8.588h2.581v9.898c0,1.312,0.423,2.75,2.411,2.75
	c2.157-0.043,2.284-1.523,2.284-2.75v-9.01c0-1.355-0.296-2.158-0.634-3.471c-0.508-1.986-1.185-3.088-2.158-4.947l-2.58-4.949
	c-0.889-1.608-1.185-2.623-1.523-4.399c-0.338-1.691-0.338-2.792-0.338-4.525v-1.988c0-2.496,0.338-4.992,4.907-4.992
	c4.696,0,4.992,2.538,4.992,5.034v7.656h-2.623v-9.011c0-1.27-0.296-2.665-2.284-2.665c-2.158,0.042-2.412,1.48-2.412,2.665v2.707
	c0,1.777,0.042,2.877,0.423,4.695c0.338,1.607,0.719,2.581,1.523,4.147l2.453,4.693c0.508,1.145,1.48,2.666,1.988,4.443
	c0.592,1.859,0.931,2.664,0.931,4.822v7.867C114.424,52.383,114.128,54.836,109.559,54.879z M129.695,54.582h-2.581V33.305h-4.611
	v21.277h-2.622V17.95c0-2.538,0.338-5.033,5.034-5.033c4.569,0,4.822,2.495,4.822,4.991v36.674H129.695z M127.114,31.656V16.553
	c0-1.227-0.127-2.623-2.284-2.665c-1.988,0-2.327,1.396-2.327,2.665v15.06h4.611V31.656z M142.638,38.17V13.085h2.581v41.497h-2.581
	v-7.91l-4.695-22.25v30.16h-2.58V13.085h2.326L142.638,38.17z M159.856,14.651h-3.851v39.931h-2.623V14.651h-3.765v-1.523h10.237
	L159.856,14.651L159.856,14.651z M174.153,54.582h-2.58V33.305h-4.612v21.277h-2.621V17.95c0-2.538,0.338-5.033,5.033-5.033
	c4.568,0,4.822,2.495,4.822,4.991v36.674H174.153z M171.572,31.656V16.553c0-1.227-0.127-2.623-2.284-2.665
	c-1.987,0-2.327,1.396-2.327,2.665v15.06h4.611V31.656z M197.631,41.258v9.434c0,2.283-1.186,4.188-4.865,4.188
	s-5.033-1.818-5.033-4.061V17.95c0-2.538,0.338-5.033,5.033-5.033c4.568,0,4.865,2.495,4.865,4.991v7.826h-2.623v-9.181
	c0-1.227-0.127-2.623-2.242-2.665c-2.031,0-2.412,1.396-2.412,2.665v35.195c0,1.057,0.932,2.029,2.412,2.029
	c1.521-0.041,2.242-0.932,2.242-1.986V41.258H197.631L197.631,41.258z M210.701,54.582V37.027c0-1.227-0.17-2.496-1.016-3.045
	c-0.805-0.594-1.396-0.721-2.412-0.721h-1.184v21.32h-2.623V13.211h4.695c0.719,0,2.621,0.085,3.85,1.017
	c1.27,0.93,1.27,2.198,1.27,3.68V28.99c0,0.762-0.127,1.312-0.635,1.988c-0.592,0.762-2.031,1.521-2.156,1.564
	c0.125,0.043,1.27,0.678,1.818,1.312c0.93,0.973,1.016,1.945,1.016,3.088v17.639H210.701L210.701,54.582z M209.645,14.735
	c-0.467-0.211-1.186-0.38-1.947-0.38h-1.562v17.766h1.227c1.1,0,2.242-0.508,2.707-1.059c0.422-0.424,0.635-1.775,0.635-2.875
	V17.062C210.701,15.877,210.488,15.116,209.645,14.735L209.645,14.735z M221.277,51.791c0,1.057,0.76,1.988,2.283,1.988
	c1.48,0,2.242-0.975,2.242-2.031V13.17h2.623v37.691c0,2.24-1.186,4.061-4.865,4.061c-3.678,0-4.906-1.904-4.906-4.188V13.17h2.623
	V51.791L221.277,51.791z M239.889,14.651h-5.668v-1.565h8.885l-6.135,39.762h6.516v1.693h-9.73L239.889,14.651z M109.898,6.741
	c0,0.761-0.042,1.479-0.592,2.114c-0.508,0.635-1.312,0.889-2.115,0.889c-0.761,0-1.565-0.169-2.115-0.762
	c-0.592-0.635-0.635-1.438-0.635-2.241V1.749h0.973v4.992c0,0.465,0,1.1,0.296,1.521c0.338,0.466,0.973,0.593,1.523,0.593
	c0.507,0,1.058-0.169,1.396-0.551c0.38-0.465,0.38-1.015,0.38-1.563V1.749h0.846v4.992H109.898L109.898,6.741z M117.512,9.617
	h-0.973l-3.976-6.854v6.854h-0.846V1.749h1.227l3.723,6.388V1.749h0.846L117.512,9.617L117.512,9.617z M119.374,9.617V1.749h0.973
	v7.868H119.374z M125.042,9.617h-0.93l-2.665-7.868h1.016l2.199,6.473l2.158-6.473h0.846L125.042,9.617z M133.84,9.617h-5.076V1.749
	h4.992v0.847h-3.977V5.09h3.173v0.805h-3.173v2.877h4.103v0.846L133.84,9.617L133.84,9.617z M139.762,9.617l-1.438-3.384h-2.157
	v3.384h-0.973V1.749h2.961c0.635,0,1.269,0.085,1.777,0.466c0.508,0.381,0.846,1.059,0.846,1.734c0,0.931-0.55,1.775-1.481,2.03
	l1.565,3.638H139.762z M137.986,5.429c0.507,0,0.973-0.043,1.354-0.423c0.296-0.297,0.381-0.635,0.381-1.016
	c0-0.466-0.169-0.846-0.55-1.101c-0.339-0.254-0.677-0.254-1.1-0.254h-1.946v2.792L137.986,5.429L137.986,5.429z M142.681,7.291
	c0.338,1.1,1.227,1.607,2.327,1.607c0.465,0,1.058-0.085,1.396-0.382c0.296-0.212,0.466-0.635,0.466-1.016
	c0-0.804-0.635-1.1-1.354-1.269l-1.312-0.339c-0.507-0.128-1.015-0.255-1.438-0.636c-0.423-0.38-0.634-0.888-0.634-1.438
	c0-1.523,1.312-2.157,2.665-2.157c1.312,0,2.369,0.634,2.793,1.903L146.7,3.82c-0.169-0.848-1.101-1.396-1.944-1.396
	c-0.763,0-1.692,0.381-1.692,1.271c0,0.888,0.677,1.058,1.438,1.269l1.184,0.296c0.508,0.127,1.016,0.254,1.439,0.594
	c0.506,0.381,0.719,0.931,0.719,1.564c0,0.719-0.297,1.354-0.89,1.776c-0.592,0.422-1.354,0.592-2.03,0.592
	c-1.606,0-2.665-0.719-3.172-2.241L142.681,7.291z M149.406,9.617V1.749h0.973v7.868H149.406z M154.779,9.617h-0.973V2.637h-2.242
	V1.792h5.414v0.846h-2.242v6.979H154.779z M160.828,6.317v3.3h-0.973v-3.3l-2.623-4.568h1.143l2.072,3.638l2.115-3.638h0.889
	L160.828,6.317z M167.301,5.768c0-1.945,0.974-4.104,3.215-4.104c2.199,0,3.216,2.03,3.216,3.934c0,1.904-0.974,4.146-3.216,4.146
	C168.274,9.744,167.301,7.713,167.301,5.768z M172.758,5.64c0-0.719-0.127-1.521-0.467-2.156c-0.338-0.636-0.973-1.059-1.691-1.059
	c-1.733,0-2.241,1.904-2.241,3.3c0,1.354,0.55,3.174,2.198,3.174C172.25,8.94,172.758,6.994,172.758,5.64L172.758,5.64z
	 M175.252,9.617V1.749h4.823v0.847h-3.808V5.09h3.174v0.805h-3.174v3.723L175.252,9.617L175.252,9.617z M189.848,7.164
	c-0.381,1.48-1.27,2.58-2.92,2.58c-2.283,0-3.215-2.199-3.215-4.146c0-2.029,1.017-3.977,3.258-3.977
	c1.564,0,2.496,1.058,2.834,2.496l-0.932,0.169c-0.295-1.015-0.762-1.861-1.945-1.861c-1.69,0-2.156,1.861-2.156,3.215
	c0,0.636,0.085,1.396,0.38,1.946c0.339,0.719,0.933,1.27,1.733,1.27c1.186,0,1.777-0.889,2.031-1.945L189.848,7.164z M196.699,9.617
	h-1.016l-0.803-2.284h-2.92l-0.721,2.284h-0.846l2.539-7.868h1.141L196.699,9.617L196.699,9.617z M193.484,2.806l-1.227,3.766h2.412
	L193.484,2.806L193.484,2.806z M202.367,9.617h-4.652V1.749h0.973v6.979h3.639v0.889H202.367z M203.51,9.617V1.749h0.973v7.868
	H203.51z M206.43,9.617V1.749h4.822v0.847h-3.809V5.09h3.172v0.805h-3.172v3.723L206.43,9.617L206.43,9.617z M211.547,5.768
	c0-1.945,0.973-4.104,3.215-4.104c2.199,0,3.215,2.03,3.215,3.934c0,1.904-0.973,4.146-3.215,4.146S211.547,7.713,211.547,5.768z
	 M216.961,5.64c0-0.719-0.127-1.521-0.465-2.156c-0.338-0.636-0.973-1.059-1.691-1.059c-1.734,0-2.242,1.904-2.242,3.3
	c0,1.354,0.551,3.174,2.199,3.174C216.453,8.94,216.961,6.994,216.961,5.64z M224.111,9.617l-1.438-3.384h-2.158v3.384h-0.973V1.749
	h2.961c0.635,0,1.27,0.085,1.775,0.466c0.508,0.381,0.848,1.059,0.848,1.734c0,0.931-0.551,1.775-1.48,2.03l1.566,3.638H224.111z
	 M222.334,5.429c0.508,0,0.973-0.043,1.354-0.423c0.297-0.297,0.381-0.635,0.381-1.016c0-0.466-0.17-0.846-0.551-1.101
	c-0.338-0.254-0.676-0.254-1.1-0.254h-1.945v2.792L222.334,5.429L222.334,5.429z M232.361,9.617h-0.975l-4.02-6.854v6.854h-0.803
	V1.749h1.227l3.723,6.388V1.749h0.848V9.617z M234.221,9.617V1.749h0.975v7.868H234.221z M242.512,9.617h-1.016l-0.803-2.284h-2.92
	l-0.719,2.284h-0.846l2.537-7.868h1.143L242.512,9.617z M239.297,2.806l-1.227,3.766h2.41L239.297,2.806L239.297,2.806z
	 M89.847,28.736c-0.042-0.041-0.423-0.465-1.185-1.269c0.042-0.339,0.084-0.762,0.127-1.27l0.084-0.846l-0.338,0.169
	c-0.127,0.042-0.465,0.423-0.846,0.889c-0.846-0.931-1.988-2.115-3.342-3.512v-3.681c2.623,1.903,4.738,3.47,4.738,3.47
	c0.127,0.084,0.296-0.128,0.127-0.255c-0.931-0.719-2.707-2.029-4.865-3.596v-2.072c0-0.254,0-0.804-0.253-0.635
	c-0.508,0.338-2.75-0.085-2.792-0.085l-0.592,0.127c-1.988-1.479-4.019-2.961-5.753-4.229c-0.423-0.296-0.592-0.127-0.169,0.212
	c0.296,0.254,2.75,2.073,5.542,4.104c-0.888,0.169-1.607,0.169-2.242,0.127c-1.015-1.058-2.073-2.156-3.257-3.342
	c-0.338-0.339-0.592-0.127-0.254,0.211c0.042,0.043,1.227,1.312,2.919,3.046c-0.55-0.042-1.058-0.169-1.565-0.212
	c-0.296-0.423-0.635-0.846-0.889-1.269c-0.55-0.72-0.592-0.254-0.296,0.212c0.169,0.253,0.38,0.592,0.677,1.015h-1.058
	c-0.042-0.169-0.084-0.296-0.169-0.423c-0.212-0.55-0.592-0.762-0.339,0.169c0.042,0.127,0.085,0.212,0.085,0.339
	c-0.211,0.042-0.508,0.127-0.804,0.296c-0.085-0.592-0.211-1.143-0.296-1.691c-0.127-0.592-0.38-0.55-0.296,0.085
	c0.084,0.592,0.169,1.185,0.296,1.775c-0.38,0.212-0.761,0.467-0.973,0.848c0-1.017-0.042-1.988-0.042-2.919
	c0-0.975-0.254-0.594-0.296,0v2.665c-0.254-0.34-0.719-0.594-1.142-0.805l0.253-1.564c0.085-0.636-0.211-0.677-0.296-0.085
	c-0.084,0.508-0.169,1.016-0.296,1.522c-0.339-0.127-0.635-0.17-0.804-0.17l0.084-0.253c0.254-0.931-0.127-0.762-0.296-0.17
	c-0.042,0.127-0.084,0.254-0.127,0.423c-0.38,0-0.761,0-1.1,0.043c0.296-0.423,0.508-0.762,0.677-1.016
	c0.338-0.465,0.254-0.931-0.296-0.211c-0.296,0.38-0.592,0.804-0.889,1.269c-0.55,0-1.015,0.042-1.438,0.042
	c1.607-1.69,2.707-2.834,2.75-2.918c0.338-0.339,0.084-0.551-0.254-0.212c-1.1,1.101-2.115,2.157-3.045,3.13
	c-1.565,0.085-2.073,0.127-2.581,0.17c2.876-2.114,5.415-3.977,5.71-4.229c0.423-0.339,0.254-0.508-0.169-0.212
	c-1.819,1.354-3.977,2.919-6.049,4.441h-0.634c-0.508,0-1.734,0.042-2.073,0c-0.127,0-0.338-0.085-0.423-0.085
	c-0.254,0-0.296,0.169-0.296,0.423v2.2c-2.073,1.522-3.849,2.834-4.738,3.512c-0.169,0.127,0,0.338,0.127,0.254
	c0,0,2.073-1.523,4.653-3.428v3.682c-3.596,3.765-5.457,5.794-5.499,5.837c-0.254,0.254-0.042,0.424,0.169,0.211
	c0.761-0.719,2.876-2.876,5.246-5.372v5.625c-1.946,3.088-3.3,5.414-3.342,5.414c-0.296,0.467-0.254,0.721,0.084,0.34
	c0.084-0.086,1.438-2.201,3.257-5.035v3.469c-0.465,0.043-1.1,0.17-1.312,0.467c-0.254,0.338-0.169,0.635-0.211,1.1
	c-0.042,0.297-0.085,0.719-0.169,0.932c-0.127,0.381-0.465,0.635-0.677,0.846c-0.211,0.213-0.338,0.551-0.465,0.848
	c-0.211,0.506,0.084,1.268,0.423,1.818c0.169,0.295,0.508,0.635,0.846,0.676c1.269,0.213,1.438-0.676,1.607-1.143
	c0-0.043,0-0.043,0.042-0.084c0,0.846,0.042,1.312,0.042,1.354c0,0.043,0.635,0,1.607-0.041c-0.211,0.676-0.38,1.057-0.38,1.1
	c-0.211,0.805,0.169,0.508,0.254,0.211l0.465-1.311c0.846-0.043,1.903-0.086,2.961-0.127c0.211,0.338,0.677,0.846,0.846,1.184
	l0.212,0.381l0.127,0.254c0.169,0.297,0.296,0.551,0.465,0.762c-0.127,0.721-0.212,1.143-0.212,1.227
	c-0.253,1.102-0.042,1.186,0.254,0.17c0-0.043,0.084-0.424,0.211-1.016c0.127,0.17,0.254,0.381,0.423,0.592
	c0.338,0.467,1.057,0.932,2.75,1.65c0.634,0.297,1.565,0.465,2.58,0.508c0.042,0.846,0.254,0.635,0.296,0
	c1.311,0.043,2.792-0.17,4.23-0.635c0.762-0.381,1.312-0.805,1.65-1.186v0.043c0.296,1.016,0.507,0.932,0.254-0.17
	c0-0.041,0-0.084-0.042-0.168c0.211-0.254,0.296-0.424,0.296-0.467c0.085-0.168,0.846-1.775-0.084-2.961l-0.042-0.041l-0.084-0.043
	l-0.169-0.127c1.692,0.084,3.511,0.17,4.738,0.211l0.38,1.016c0.084,0.297,0.508,0.551,0.254-0.211c0,0-0.127-0.297-0.296-0.805
	c0.761,0.043,1.227,0.043,1.227,0V38.51c1.058-0.168,1.396-0.465,2.073-1.057c0.804-0.719,1.312-1.691,1.269-2.666
	c0.042,0.086,0.084,0.127,0.084,0.127c0.338,0.381,0.381,0.127,0.085-0.338c0,0-0.127-0.17-0.296-0.465
	c-0.169-0.551-0.465-1.016-0.846-1.396c-0.38-0.635-0.846-1.396-1.396-2.285c0.55-0.084,1.142-0.254,1.607-0.422
	c0.507-0.213,1.269-0.805,1.607-1.734l0.211-0.086c0.042-0.084,0.084-0.211,0.084-0.295l1.1,1.1
	C89.847,29.16,90.1,28.99,89.847,28.736L89.847,28.736z M87.393,26.707c-0.296,0.338-0.592,0.677-0.846,0.973
	c-0.084-0.338-0.169-1.015-0.253-1.479c-0.085-0.381-0.169-0.677-0.296-0.932C86.505,25.776,86.97,26.241,87.393,26.707
	L87.393,26.707z M84.305,23.492c0.38,0.381,0.719,0.762,1.058,1.1v0.169c0.126,1.271-0.127,2.284-0.296,2.877
	c-0.169,0.593-0.338,0.847-0.634,0.974l-0.169,0.084C84.305,26.749,84.305,24.972,84.305,23.492z M83.333,16.977
	c0.042-0.255,0.465-0.339,0.55,0.127c0.085,0.254,0.042,6.049,0,11.759c-0.169,0.043-0.338,0.043-0.507,0.043h-0.042
	C83.333,23.111,83.291,17.104,83.333,16.977z M82.529,16.977c0-0.17,0.423-0.255,0.381,0.127c0.042,0.085-0.042,5.965-0.084,11.632
	l-0.212-0.084c0-0.084-0.042-0.17-0.042-0.17c0-0.592,0.254-0.677,0-0.973c-0.042-0.085-0.169-0.127-0.296-0.169
	C82.402,21.968,82.487,17.062,82.529,16.977z M81.471,16.723c0.085-0.338,0.423-0.084,0.423,0.043s-0.042,5.287-0.085,10.575
	c-0.126,0.042-0.296,0.042-0.465,0.084C81.386,24.337,81.429,20.742,81.471,16.723z M81.386,27.595h0.084c0,0,0.55-0.17,0.719-0.043
	c0.211,0.169,0.127,0.889,0.127,1.143v0.254c0,0.043,0.042,0.084,0.042,0.17c0.084,0.211,0.296,0.295,0.296,0.381
	c-0.127-0.043-0.211-0.086-0.338-0.086c-0.169-0.041-0.338-0.084-0.465-0.084c-0.169-0.043-0.296-0.043-0.465-0.043h-0.381
	c-0.338,0.043-0.634,0.086-0.846,0.213c-0.084,0.041-0.169,0.084-0.254,0.168c0,0-0.042,0-0.042,0.043
	c-0.084,0.043-0.127,0.127-0.211,0.211c-0.127,0.17-0.211,0.381-0.296,0.592c-0.042-0.211-0.296-0.465-0.296-0.633
	c0-0.678,0.423-1.143,0.719-1.396c0.084-0.084,0.211-0.168,0.296-0.211c0.042-0.043,0.084-0.043,0.084-0.043l0.211-0.127
	c0.042,0,0.084-0.041,0.084-0.041c0.084-0.043,0.127-0.085,0.211-0.085c0.042,0,0.042,0,0.085-0.042
	C81.048,27.679,81.259,27.637,81.386,27.595L81.386,27.595z M82.698,29.836l0.084,0.043v1.523c-0.211,0-0.338,0.041-0.508,0.084
	c0-0.592,0-1.186,0.042-1.818c0.084,0.041,0.169,0.084,0.296,0.127L82.698,29.836z M81.809,29.541v2.156l-0.084,0.043
	c-0.084,0.043-0.211,0.084-0.338,0.127v-2.412L81.809,29.541z M81.006,29.498v2.496c-0.084,0-0.126,0.043-0.169,0.043
	c-0.635,0.041-1.015-0.213-1.1-0.381c-0.042-0.086-0.084-0.17-0.169-0.297c-0.042-0.127-0.084-0.381-0.084-0.381
	c0-0.34,0.169-0.551,0.507-0.932C80.244,29.752,80.583,29.541,81.006,29.498z M71.996,17.95c0.127-1.185,3.299-1.607,3.849-1.48
	c0.508,0.127,1.396,0.297,1.777,0.339c0,0,1.776,0.424,3.384-0.169v10.786c-0.296,0.085-0.973,0.254-1.438,0.635
	c-0.508,0.424-0.846,0.932-0.846,1.607c0,0.465,0.169,0.889,0.381,1.48c0.127,0.338,0.211,0.719,0.254,0.719
	c0.296,0.465,0.211,0.889,0.296,1.311c0.127,0.678,0.55,0.805,0.719,0.848l0.592,0.127v0.805h-0.127
	c-1.058-0.086-1.438-0.254-2.073-0.551l-0.719-0.424c-1.269-0.592-2.961-0.551-3.807-0.168c-0.465,0.168-0.719,0.338-0.973,0.635
	l-0.042,0.168l0.042,0.127c0.084,0.254,0.296,0.508,0.38,0.719c0.085,0.17,0.042,0.594,0.042,0.721c0,0.338-0.296,0.678-0.381,0.762
	h0.042c-0.296,0.17-0.423,0.551-0.465,1.057c-0.338,0.17-0.592,0.297-0.846,0.467C71.996,38.424,71.869,17.993,71.996,17.95
	L71.996,17.95z M75.253,38.678c0.042,0.127,0.127,0.254,0.254,0.338c0.084,0.129,0.211,0.213,0.381,0.297
	c0.127,0.086,0.296,0.213,0.465,0.297l0.211,0.127c0.127,0.043,0.211,0.127,0.338,0.211c-0.127,0-0.211,0-0.338,0.043l-0.508,0.043
	c-0.127,0-0.211,0-0.296,0.041c-0.296,0.043-0.55,0.043-0.973-0.041c-0.127,0-0.253-0.043-0.423-0.086
	c-0.254-0.041-0.423-0.168-0.592-0.338s-0.338-0.381-0.423-0.594c-0.084-0.168-0.127-0.254-0.127-0.381l-0.042-0.338
	c0-0.17,0.042-0.338,0.042-0.465c0.042-0.127,0.042-0.211,0.127-0.297v-0.041c0.042-0.086,0.127-0.127,0.169-0.17l0.085-0.043
	c0.127-0.041,0.211-0.041,0.338-0.041h0.423l0.381,0.041h0.042l0.55,0.127l-0.085,0.213c-0.042,0.084-0.084,0.211-0.084,0.295
	c-0.042,0.084-0.042,0.211-0.042,0.297C75.126,38.381,75.168,38.551,75.253,38.678L75.253,38.678z M75.422,38.127
	c0-0.168,0.084-0.381,0.169-0.592c0.085,0,0.127,0,0.212-0.041c0.423,0.127,0.846,0.252,1.269,0.422L75.422,38.127z M78.637,38.424
	c0.55,0.17,1.142,0.254,1.777,0.338c-1.396,0.043-3.088,0.127-4.526,0.213c-0.169-0.127-0.254-0.213-0.338-0.34
	C76.564,38.551,77.665,38.508,78.637,38.424z M75.972,40.455c0,0.211-0.042,0.381-0.211,0.508c-0.931,0.76-1.692,0.93-3.469,0.676
	l-0.508-0.084v-1.016c0.465,0,0.973-0.127,1.481-0.508c0.042,0,0.211-0.043,0.423-0.043c0.169,0.127,0.381,0.213,0.634,0.254
	C75.253,40.496,75.38,40.496,75.972,40.455L75.972,40.455z M72.884,38.762l-0.381-0.168l0.381-0.17
	C72.841,38.551,72.841,38.678,72.884,38.762z M71.784,38.805c0.846,0.043,1.312,0.848,1.227,0.932
	c-0.592,0.676-1.861,0.719-2.411,0.043C70.515,39.65,71.065,38.848,71.784,38.805z M70.515,39.184
	c0.169,0.045-0.169,0.172-0.169,0.172c-0.381-0.086-1.142-0.127-2.03-0.213l-0.042-0.086c0-0.041-0.042-0.084-0.042-0.168
	C69.246,38.975,70.092,39.059,70.515,39.184z M68.062,38.381c-0.042-0.168-0.127-0.295-0.254-0.465
	c1.1,0.17,2.834,0.465,3.215,0.762c-0.211,0.084,0.042-0.043-0.296,0.211C70.43,38.678,69.374,38.551,68.062,38.381L68.062,38.381z
	 M69.838,39.523c0.127,0,0.423,0,0.296,0.254c0-0.043-0.592-0.043-1.523-0.043l-0.127-0.254
	C69.161,39.48,69.627,39.48,69.838,39.523z M70.176,40.074c0.465,0.168,0.762,0.338,1.227,0.422v0.932
	c-0.338-0.127-0.677-0.254-1.015-0.465c0,0-0.423-0.213-0.973-0.467c-0.254-0.127-0.465-0.295-0.634-0.508
	C69.542,39.988,70.008,40.031,70.176,40.074z M62.139,16.934c0-0.169,0-0.212,0.254-0.212c3.384,0.043,8.629-1.227,9.137,1.228
	c0,0.085,0.127,15.693,0.042,20.517c-1.142-0.467-2.03-0.635-3.976-0.889l-0.338-0.465c-0.381-0.551-0.465-0.764-0.762-0.975
	l-0.719-0.678c-0.381-0.295-0.846-0.76-0.931-0.846c-1.058-0.719-1.988-1.059-2.75-1.227C62.182,23.661,62.055,18.035,62.139,16.934
	z M61.505,17.231c0-0.509,0.296-0.509,0.253-0.127c0.042,0.55,0,5.922-0.126,16.201c-0.127-0.043-0.254-0.043-0.381-0.043
	C61.336,27.298,61.505,17.993,61.505,17.231z M60.532,17.104c-0.042-0.255,0.254-0.382,0.296-0.042
	c0.042,0.127-0.085,9.897-0.127,16.2l-0.381,0.043C60.32,26.917,60.489,17.189,60.532,17.104z M59.432,16.977
	c0.042-0.339,0.507-0.17,0.507,0.212C59.897,24,59.812,29.582,59.771,33.432l-0.127,0.043h-0.254L59.432,16.977z M58.036,39.607
	c-0.254,0.213-0.508,0.297-0.846,0.254c-0.211,0-0.634-0.506-0.846-1.016C56.26,38.635,56.26,38.381,56.302,38
	c0-0.127,0-0.211,0.042-0.297c0.042-0.127,0.127-0.254,0.212-0.338c0.127,0.17,0.38,0.338,0.634,0.465l0.508,0.297
	c0.296,0.211,0.719,0.338,1.015,0.381C58.586,38.848,58.417,39.312,58.036,39.607z M58.629,38.127c-0.085,0-0.423,0.043-0.931-0.211
	l-0.465-0.254c-0.254-0.338-0.381-0.508-0.381-0.592c0,0,0-0.043,0.042-0.043c0.253-0.211,1.269-0.211,1.903-0.127v1.186
	C58.756,38.127,58.671,38.127,58.629,38.127z M59.432,39.693c-0.042-0.17-0.085-1.186-0.042-1.396v-1.354
	c0.127,0,0.254,0,0.381,0.043c0,1.562,0.042,2.41,0.169,2.453c0.085,0.041,1.65,0.041,3.553,0.041v0.043c0,0,0.085,0.127,0.127,0.17
	l0.042,0.127C61.42,39.777,59.474,39.734,59.432,39.693z M62.859,38.594c0.042,0.084,0.127,0.168,0.211,0.295
	c-1.523-0.041-2.665-0.127-2.707-0.168c-0.042-0.043-0.042-0.678-0.085-1.691l0.381,0.084c0,0.805,0.042,1.312,0.042,1.354
	C60.828,38.508,61.674,38.551,62.859,38.594z M61.209,37.324c0.127,0.043,0.254,0.127,0.423,0.211c0,0,0,0.043,0.042,0
	c0.254,0.127,0.508,0.338,0.762,0.551c-0.719,0-1.227,0-1.185,0.041C61.167,38.043,61.209,37.746,61.209,37.324z M78.299,41.596
	c0,0.127,0,0.254-0.042,0.381v0.086c-0.042,0.127-0.042,0.254-0.084,0.424l-0.127,0.381c0,0.041,0,0.041-0.042,0.084
	c-0.042,0.127-0.084,0.254-0.169,0.381s-0.127,0.254-0.211,0.338c-0.338,0.465-0.804,0.762-1.988,1.312
	c-0.338,0.127-0.677,0.211-0.973,0.297l-0.169,0.041c-0.254,0.086-0.55,0.127-0.804,0.17h-0.127
	c-0.296,0.043-0.55,0.084-0.846,0.084h-0.042c-0.296,0-0.592,0.043-0.846,0c-0.296,0-0.55-0.041-0.804-0.041h-0.127
	c-0.127,0-0.296-0.043-0.423-0.086l-0.254-0.041l-0.296-0.086l-0.508-0.168c-1.565-0.721-2.623-1.229-3.088-1.861l-0.381-0.592
	l-0.254-0.381c-0.127-0.256-0.253-0.467-0.423-0.721l-0.254-0.297l-0.211-0.381c-0.127-0.254-0.296-0.549-0.465-0.803
	c-0.042-0.084-0.127-0.17-0.169-0.297c0-0.041-0.212-0.422-0.212-0.422v-0.043l-0.127-0.17c-0.084-0.127-0.126-0.211-0.211-0.297
	c-0.084-0.127-0.127-0.211-0.211-0.295c-0.127-0.213-0.254-0.381-0.338-0.424c-0.042-0.043-0.084-0.084-0.127-0.084
	c-0.084-0.086-0.169-0.17-0.296-0.254c-0.127-0.086-0.296-0.211-0.508-0.297c-0.169-0.084-0.381-0.211-0.592-0.295l-0.38-0.17
	l-0.508-0.211l-0.381-0.127c-0.211-0.043-0.38-0.127-0.55-0.127L59.35,36.52c-0.169,0-0.296-0.043-0.423-0.043H58.8
	c-0.804,0.043-0.931-0.041-1.185-0.041h-0.169c-0.042,0-0.127,0-0.211,0.041l0.127-0.295c0.084-0.254,0.042-0.635,0.084-0.975
	c0.042-0.379,0.169-0.887,0.381-1.057c0.042-0.043,0.126-0.127,0.211-0.127c0.042,0,0.042,0,0.084-0.043l0.211-0.041h0.677
	l0.338-0.043h0.085l0.296-0.084c0.296-0.086,0.592-0.129,0.888-0.17c0.169-0.043,0.381-0.043,0.55-0.043c0.253,0,0.55,0,0.804,0.084
	l0.507,0.129c0.042,0,0.042,0,0.085,0.041c0.169,0.043,0.338,0.127,0.507,0.213c0.042,0,0.084,0.041,0.084,0.041
	c0.169,0.086,0.381,0.213,0.55,0.34l0.084,0.041c0.211,0.127,0.423,0.297,0.634,0.467h0.042c0.042,0.041,0.338,0.252,0.592,0.465
	l0.973,0.762c0.212,0.168,0.592,0.762,0.931,1.227l0.254,0.381c0.211,0.297,0.381,0.719,0.508,1.1c0,0.043,0.042,0.086,0.042,0.17
	c0.042,0.127,0.085,0.254,0.169,0.381l0.127,0.254l0.169,0.297l0.169,0.254l0.169,0.211c0,0,0,0.043,0.042,0.043
	c0.042,0.041,0.127,0.127,0.211,0.168l0.042,0.043l0.254,0.17l0.55,0.295c0.211,0.127,0.465,0.254,0.719,0.381
	c0,0,0.042,0,0.042,0.043c0.254,0.127,0.55,0.211,0.846,0.295l0.381,0.086c0.042,0,0.084,0,0.084,0.043
	c1.946,0.254,3.553,0,4.188-0.678c0.212-0.254,0.339-0.551,0.296-0.846h0.127c0.634-0.043,0.846-0.086,1.227,0.211
	C78.002,40.963,78.299,41.215,78.299,41.596z M83.671,39.861c-0.169-0.041-3.722-0.168-6.557-0.211
	c-0.169-0.084-0.38-0.211-0.592-0.295c2.792,0.041,5.795,0.041,6.726,0c0-0.043,0.042-0.256,0.042-0.594l0.465-0.086
	C83.713,39.27,83.713,39.693,83.671,39.861z M86.547,33.391c0.254,0.338,0.465,0.762,0.508,1.227
	c0.169,0.932,0.127,1.734-0.635,2.412l-0.296,0.254l-0.169,0.127c-0.042,0.041-0.084,0.041-0.084,0.084l-0.169,0.127l-0.085,0.043
	l-0.169,0.127l-0.084,0.041c-0.042,0.043-0.127,0.086-0.169,0.086l-0.084,0.041L84.9,38.045c-0.042,0-0.042,0-0.085,0.041
	l-0.253,0.086h-0.085l-0.296,0.084L83.8,38.299l-0.55,0.084c-0.211,0.043-0.381,0.043-0.592,0.043
	c-0.254,0.041-0.508,0.041-0.761,0.041h-0.806c-0.254,0-0.465-0.041-0.677-0.041h-0.043c-1.185-0.127-2.242-0.424-3.046-0.805
	l-0.592-0.254l-0.508-0.211c-0.423-0.17-0.804-0.297-1.227-0.381h-0.085l-0.465-0.084h-0.127c-0.169,0-0.338-0.043-0.465,0
	c0.085-0.254,0.169-0.594,0.169-0.848v-0.17c-0.042-0.168-0.127-0.381-0.211-0.592c-0.084-0.17-0.127-0.297-0.211-0.508
	c0.169-0.211,0.253-0.381,0.592-0.508c0.677-0.254,2.157-0.422,3.342,0.127l0.888,0.381c0.634,0.297,1.142,0.592,2.284,0.678
	l0.634,0.041c0.127,0,0.254,0,0.381,0.043h0.973c0.211,0,0.423,0,0.592-0.043c0.169,0,0.338-0.041,0.465-0.041
	c0.169,0,0.296-0.043,0.423-0.043c0.211-0.043,0.381-0.084,0.55-0.127c0.042,0,0.042,0,0.084-0.043
	c0.169-0.041,0.296-0.084,0.423-0.127C86.378,34.531,86.547,33.812,86.547,33.391L86.547,33.391z M81.344,34.32
	c0.127,0,0.296,0.043,0.423,0v0.805c-0.127,0-0.254,0-0.423-0.043V34.32z M82.233,35.125v-0.932h0.042
	c0.127-0.041,0.296-0.127,0.465-0.254v1.186C82.571,35.166,82.402,35.125,82.233,35.125L82.233,35.125z M83.291,35.166v-1.605
	l0.507-0.424c0,0.678,0,1.354-0.042,1.988C83.629,35.125,83.502,35.166,83.291,35.166L83.291,35.166z M86.083,33.264
	c0.042,0.254,0.127,1.1-0.973,1.48l-0.888,0.295v-2.242c0.38-0.252,0.846-0.295,1.819,0.381
	C86.083,33.178,86.083,33.221,86.083,33.264z M85.913,32.502l-0.508-0.084h-0.507c-0.127,0-0.212,0-0.338,0.041
	c-0.127,0-0.212,0.043-0.296,0.086c-0.169,0.041-0.296,0.127-0.423,0.211c-0.169,0.084-0.296,0.211-0.465,0.381
	c-0.042,0-0.042,0.041-0.042,0.041c-0.211,0.213-0.38,0.297-0.55,0.381c-0.17,0.086-0.296,0.129-0.465,0.17h-0.042l-0.127,0.043
	l-0.338,0.127c-0.253,0.084-0.55,0.127-0.804,0.084c-0.084,0-0.169-0.041-0.296-0.084c-0.465-0.211-0.719-0.635-0.761-0.805
	c-0.042-0.297,0.042-0.338-0.042-0.803c0.127,0.041,0.296,0.084,0.465,0.084h0.719c0.084,0,0.169-0.043,0.253-0.084l0.381-0.17
	h0.042c0.169-0.127,0.38-0.211,0.634-0.297c0.085-0.041,0.211-0.041,0.338-0.084h0.931c0.254,0,0.55-0.043,0.889,0.043
	c0.042,0,0.084,0,0.169,0.041c0.042,0,0.084,0,0.127,0.043l0.169,0.043c0.042,0,0.042,0,0.084,0.041l0.254,0.127l0.084,0.043
	l0.211,0.127l0.084,0.043C85.743,32.332,85.828,32.418,85.913,32.502z M83.333,31.443v-1.27c0.169,0.084,0.381,0.17,0.55,0.211
	v1.102L83.333,31.443z M85.659,31.951c-0.719-0.508-1.015-0.508-1.396-0.465v-0.975c0.169,0.043,0.296,0.043,0.465,0.043
	C85.067,31.062,85.405,31.529,85.659,31.951L85.659,31.951z M88.408,26.58c-0.084,0.465-0.169,0.846-0.254,1.142
	c-0.042,0.085-0.084,0.213-0.084,0.298l-0.084,0.168c-0.338,0.846-0.719,1.521-2.031,1.945c-0.169,0.043-0.338,0.084-0.465,0.084
	h-0.423c-0.169,0-0.338-0.041-0.507-0.084l-0.212-0.043l-0.253-0.041l-0.127-0.043c-0.55-0.17-0.973-0.465-1.1-0.762v-0.041
	l-0.042-0.127v-0.043c0.169,0.043,0.38,0.084,0.634,0.084c0.169,0,0.338,0,0.55-0.041c0.127,0,0.296-0.043,0.423-0.086l0.084-0.041
	c0.423-0.127,0.888-0.34,1.142-1.144c0.127-0.381,0.169-1.606,0.211-2.283c0.381,0.846,0.592,2.325,0.592,2.496l0.084,0.465
	c0,0,0.169-0.168,0.296-0.381c0.38-0.507,0.634-0.888,0.888-1.185c0.084-0.126,0.169-0.211,0.211-0.296l0.296-0.338h0.044
	l0.296-0.254C88.451,26.199,88.451,26.411,88.408,26.58z M58.375,15.666c-0.211,0.127-0.338-0.084-0.084-0.211
	c0.507-0.297,8.587-3.935,9.222-4.23c0.38-0.169,0.592,0.085,0.211,0.297C67.681,11.52,58.882,15.412,58.375,15.666z M67.554,10.589
	c0,0,0.127,0.127-0.042,0.17c-0.212,0.084-2.75,0.211-2.919,0.211c-0.084,0-0.762,0.043-0.931,0.043
	c-0.465-0.043-0.127-0.17,0.084-0.17C64.55,10.674,67.3,10.462,67.554,10.589z M84.645,15.624c0.211,0.127,0.338-0.085,0.084-0.212
	c-0.507-0.296-8.587-3.934-9.222-4.229c-0.381-0.169-0.592,0.084-0.211,0.255C75.295,11.478,84.136,15.37,84.645,15.624z
	 M75.718,10.589c0,0-0.127,0.127,0.042,0.17c0.211,0.042,2.707,0.169,2.834,0.169c0.085,0,0.719,0.042,0.931,0.042
	c0.465-0.042,0.127-0.127-0.084-0.169C79.188,10.716,76.056,10.42,75.718,10.589z M67.258,48.576l-0.042,0.084
	c-0.084,0-0.127,0-0.169,0.127l-0.677,2.496c-0.042,0.127,0,0.17,0.085,0.17l-0.042,0.084l-0.973-0.254v-0.084
	c0.126,0.041,0.169,0,0.211-0.086l0.507-1.859c-0.084,0-0.296,0-0.38,0.084l-0.085-0.043l0.169-0.719l0.084,0.043
	c0,0.084,0.042,0.084,0.127,0.127c0.127,0.041,0.211-0.043,0.254-0.17c0-0.084,0-0.127-0.084-0.127v-0.084L67.258,48.576z
	 M68.612,50.225c-0.296-0.127-0.465-0.422-0.465-0.676c0.042-0.424,0.55-0.762,1.396-0.678c0.931,0.084,1.354,0.465,1.312,0.889
	c-0.042,0.254-0.254,0.549-0.592,0.594c0.38,0.168,0.592,0.465,0.55,0.803c-0.042,0.508-0.592,0.846-1.523,0.762
	c-0.931-0.084-1.438-0.551-1.396-1.016C67.978,50.564,68.231,50.309,68.612,50.225z M69.374,51.453
	c0.381,0.041,0.762-0.086,0.804-0.424c0.042-0.295-0.296-0.508-0.719-0.549c-0.381-0.043-0.762,0.084-0.804,0.422
	S68.95,51.41,69.374,51.453z M69.5,50.1c0.465,0.041,0.677-0.086,0.677-0.34s-0.169-0.422-0.634-0.465
	c-0.465-0.041-0.677,0.086-0.677,0.338C68.865,49.846,69.034,50.057,69.5,50.1z M73.518,49.719l-0.084-0.043
	c0-0.17-0.296-0.338-0.677-0.295c-0.55,0.041-0.846,0.506-0.804,1.016c0.211-0.213,0.55-0.424,0.888-0.424
	c0.677-0.043,1.227,0.254,1.269,1.016c0.042,0.508-0.423,1.016-1.269,1.057c-1.015,0.043-1.48-0.592-1.523-1.354
	c-0.042-0.932,0.423-1.691,1.481-1.775c0.507-0.043,0.888,0.168,1.015,0.168c0.042,0,0.084,0,0.084-0.041l0.042,0.041L73.518,49.719
	L73.518,49.719z M73.392,50.988c0-0.297-0.339-0.551-0.719-0.508c-0.381,0-0.677,0.295-0.635,0.592c0,0.338,0.338,0.549,0.719,0.508
	C73.138,51.537,73.392,51.283,73.392,50.988z M75,50.057c-0.296,0-0.592-0.211-0.677-0.465c-0.126-0.424,0.212-0.889,1.058-1.143
	c0.889-0.254,1.438-0.043,1.565,0.381c0.084,0.254-0.042,0.592-0.338,0.762c0.423,0,0.719,0.211,0.804,0.549
	c0.127,0.51-0.254,1.018-1.142,1.271c-0.931,0.254-1.565,0-1.692-0.467C74.534,50.648,74.66,50.309,75,50.057L75,50.057z
	 M75.76,49.633c0.423-0.127,0.592-0.338,0.508-0.549c-0.085-0.211-0.296-0.338-0.719-0.211s-0.592,0.338-0.508,0.549
	C75.084,49.676,75.338,49.76,75.76,49.633z M76.141,50.988c0.38-0.127,0.677-0.381,0.592-0.678s-0.465-0.34-0.846-0.254
	c-0.381,0.125-0.677,0.381-0.592,0.678C75.38,51.029,75.76,51.072,76.141,50.988z M61.041,35.76l0.804,0.295
	c0.042,0,0.042,0,0.084-0.084h0.042l-0.254,0.635h-0.042v-0.127l-1.227-0.465v-0.043c0.084,0,0.084,0,0.084-0.043l0.635-1.732
	c0-0.043,0-0.043-0.042-0.086v-0.041l0.508,0.168v0.043c-0.042,0-0.085,0-0.085,0.043L61.041,35.76z M63.366,36.562
	c0-0.043,0-0.084-0.042-0.127l-0.423-0.254l-0.169,0.297l0.719,0.422c0.042,0,0.042,0,0.084-0.084h0.042l-0.338,0.592h-0.042
	c0.042-0.041,0.042-0.084,0-0.084l-1.1-0.635l0.042-0.043c0.042,0.043,0.084,0,0.084-0.041l0.931-1.566
	c0-0.041,0.042-0.041-0.042-0.084l0.042-0.043l1.1,0.635c0.042,0,0.042,0,0.084-0.084h0.042l-0.338,0.592H64
	c0.042-0.084,0.042-0.084,0-0.127l-0.719-0.422l-0.169,0.295l0.423,0.254c0.042,0.043,0.084,0,0.127-0.041h0.042L63.366,36.562z
	 M63.832,37.873c0.085,0,0.127,0,0.127-0.041l1.016-1.059l-0.296-0.295c0,0-0.042,0-0.127,0.041h-0.042l0.465-0.508h0.042
	c-0.042,0.084-0.042,0.084-0.042,0.127l0.888,0.889c0,0,0.042,0,0.127-0.041l0.042,0.041l-0.507,0.467
	c0.042-0.086,0.084-0.086,0.042-0.127l-0.338-0.297l-1.015,1.057c-0.042,0.043-0.042,0.043,0,0.086l-0.042,0.041L63.832,37.873z
	 M65.271,39.904c0.084,0.043,0.084,0.043,0.127,0l1.354-0.592l-0.169-0.383c0-0.041-0.042-0.041-0.127,0v-0.041l0.634-0.297v0.043
	c-0.084,0.041-0.084,0.041-0.084,0.084l0.508,1.143c0,0.043,0.042,0.043,0.126,0v0.043l-0.634,0.297v-0.043
	c0.084-0.043,0.084-0.084,0.084-0.084l-0.211-0.424l-1.354,0.592c-0.042,0-0.042,0.043-0.042,0.086H65.44L65.271,39.904z
	 M66.793,42.611c-0.042,0-0.042,0.043,0,0.086l-0.042,0.041l-0.296-0.422l0.042-0.043c0.042,0.043,0.085,0.043,0.085,0l0.592-0.424
	l-0.38-0.551l-0.592,0.424c-0.042,0-0.042,0.043,0,0.084L66.16,41.85l-0.296-0.424l0.042-0.041c0.042,0.041,0.084,0.041,0.084,0
	l1.48-1.059c0.042,0,0.042-0.043,0-0.084l0.042-0.043l0.296,0.424l-0.042,0.041c-0.042-0.041-0.084-0.041-0.084,0l-0.508,0.381
	l0.381,0.551l0.508-0.381c0.042,0,0.042-0.043,0-0.084l0.042-0.043l0.296,0.424l-0.042,0.041c-0.042-0.041-0.084-0.041-0.084,0
	L66.793,42.611z M68.569,43.203c0-0.041,0-0.084-0.042-0.127l-0.381-0.295l-0.211,0.295l0.677,0.467c0.042,0,0.042,0,0.127-0.086
	h0.042L68.4,44.008h-0.042c0.042-0.043,0.042-0.084,0-0.084l-1.015-0.762l0.042-0.043c0.042,0.043,0.084,0,0.084,0l1.058-1.48
	c0-0.043,0.042-0.043,0-0.084l0.042-0.043l1.016,0.762c0.042,0,0.042,0,0.084-0.041h0.042l-0.423,0.549h-0.042
	c0.042-0.084,0.042-0.084,0.042-0.127l-0.677-0.465L68.4,42.443l0.381,0.297c0.042,0.041,0.084,0,0.126-0.043h0.042L68.569,43.203z
	 M69.458,44.346c0,0.043,0,0.043,0.042,0.084v0.043l-0.507-0.168v-0.043c0.084,0,0.084,0,0.084-0.043l0.55-1.732
	c0-0.043,0-0.043-0.042-0.086v-0.041l0.888,0.295c0.338,0.127,0.465,0.381,0.296,0.805c-0.127,0.338-0.296,0.465-0.55,0.508
	l0.084,0.719c0,0.043,0,0.086,0.042,0.086v0.041l-0.508-0.17v-0.041c0.042,0,0.042,0,0.085-0.043c0-0.043-0.085-0.635-0.085-0.719
	l-0.253-0.086L69.458,44.346z M69.796,43.33l0.423,0.127c0.127,0.043,0.211-0.041,0.254-0.127c0.042-0.127,0.042-0.211-0.127-0.254
	l-0.423-0.127L69.796,43.33z M72.208,44.219c-0.042-0.041-0.042-0.084-0.084-0.084l-0.465-0.043l-0.042,0.381l0.804,0.043
	c0.042,0,0.042,0,0.042-0.127h0.042l-0.042,0.678H72.42c0-0.084,0-0.084-0.042-0.084l-1.269-0.086v-0.041
	c0.042,0,0.085-0.045,0.085-0.086l0.126-1.818c0-0.043,0-0.084-0.084-0.084v-0.043l1.269,0.084c0.042,0,0.042,0,0.042-0.127h0.042
	l-0.042,0.678h-0.042c0-0.084,0-0.127-0.042-0.127l-0.804-0.043l-0.042,0.338l0.465,0.043c0.042,0,0.084-0.043,0.084-0.084h0.042
	L72.208,44.219L72.208,44.219z M73.562,42.908c0-0.043-0.042-0.043-0.084-0.043v-0.043l0.931-0.295c0.253-0.084,0.507,0,0.634,0.381
	c0.084,0.211,0,0.381-0.127,0.465c0.169,0,0.338,0.127,0.423,0.381c0.084,0.297,0.042,0.592-0.338,0.719l-0.931,0.297v-0.043
	c0.042-0.043,0.042-0.043,0.042-0.084L73.562,42.908L73.562,42.908z M74.153,43.416l0.338-0.086
	c0.211-0.041,0.254-0.084,0.211-0.254c-0.042-0.168-0.127-0.168-0.296-0.084l-0.338,0.084L74.153,43.416z M74.407,44.262
	l0.423-0.127C75,44.092,75.042,44.008,75,43.838c-0.042-0.168-0.127-0.211-0.296-0.168l-0.423,0.127L74.407,44.262L74.407,44.262z
	 M76.691,42.949c-0.042-0.041-0.084-0.041-0.127-0.041l-0.423,0.211l0.169,0.338l0.719-0.381c0.042,0,0.042-0.041,0-0.127h0.042
	l0.296,0.594h-0.042c-0.042-0.043-0.042-0.086-0.084-0.043l-1.142,0.592l-0.042-0.041c0.042-0.043,0.042-0.043,0.042-0.086
	l-0.846-1.648c0-0.043-0.042-0.043-0.084-0.043l-0.042-0.041l1.143-0.594c0.042,0,0.042-0.043,0-0.127h0.042l0.296,0.594h-0.042
	c-0.042-0.086-0.084-0.086-0.084-0.086l-0.719,0.467l0.169,0.295l0.423-0.211c0.042-0.043,0.042-0.084,0.042-0.127h0.042
	L76.691,42.949z M75.972,36.182l0.846,0.213c0.042,0,0.042,0,0.084-0.086h0.042l-0.169,0.678h-0.042v-0.127l-1.312-0.338v-0.043
	c0.084,0,0.084,0,0.084-0.041l0.423-1.777c0-0.043,0-0.043-0.042-0.084v-0.043l0.507,0.127v0.043c-0.042,0-0.084,0-0.084,0.041
	L75.972,36.182z M77.156,37.027v-0.041c0.042,0,0.084,0,0.084-0.043l0.677-1.691c0-0.043,0-0.043-0.042-0.086v-0.041l0.466,0.211
	v0.043c-0.042,0-0.085,0-0.085,0.041l-0.677,1.693c0,0.041,0,0.041,0.042,0.084v0.043L77.156,37.027z M79.695,37.113l-0.296-0.086
	c-0.042,0-0.042,0-0.042,0.086h-0.042l0.127-0.551h0.042v0.084l0.719,0.213V36.9c-0.042,0-0.042,0-0.042,0.043l-0.169,0.592v0.127
	c-0.254,0.127-0.55,0.17-0.888,0.084c-0.423-0.125-0.719-0.549-0.508-1.227c0.169-0.678,0.677-0.932,1.058-0.805
	c0.169,0.043,0.211,0.086,0.381,0.213c0.084,0.041,0.127,0.127,0.169,0.168c0,0,0.042,0,0.042-0.041l0.042,0.041l-0.296,0.424
	l-0.042-0.041v-0.043c0-0.084-0.212-0.254-0.381-0.297c-0.254-0.043-0.508,0.086-0.592,0.467c-0.127,0.422,0.084,0.676,0.296,0.719
	c0.126,0.043,0.253,0.043,0.38,0L79.695,37.113z M82.19,38.043c0,0.043,0,0.043,0.084,0.084v0.043l-0.507-0.043v-0.041
	c0.084,0,0.084-0.043,0.084-0.086l0.042-0.719l-0.677-0.041l-0.042,0.719c0,0.041,0,0.041,0.084,0.084v0.043l-0.507-0.043V38
	c0.084,0,0.084-0.041,0.084-0.084l0.127-1.818c0-0.043,0-0.043-0.084-0.084v-0.043l0.507,0.043v0.041
	c-0.042,0-0.084,0.043-0.084,0.084l-0.042,0.637l0.677,0.041l0.042-0.635c0-0.043,0-0.084-0.084-0.084v-0.043l0.507,0.043v0.041
	c-0.084,0-0.084,0.043-0.084,0.086L82.19,38.043z M83.502,38v-0.041c0.042,0,0.084-0.043,0.042-0.086l-0.211-1.438L82.91,36.52
	c-0.042,0-0.042,0.043-0.042,0.127h-0.042l-0.127-0.678h0.042c0.042,0.086,0.042,0.086,0.085,0.086l1.227-0.213
	c0.042,0,0.042-0.041,0.042-0.127h0.042l0.127,0.678h-0.043l-0.042-0.084l-0.423,0.084l0.211,1.438c0,0.043,0,0.043,0.084,0.043
	v0.043L83.502,38z M57.782,43.035l-0.042,0.041c-0.084-0.041-0.127-0.041-0.211,0l-1.607,1.65l0.592,0.592
	c0.127,0.127,0.169,0.127,0.254,0.086l0.084,0.084l-0.508,0.508l-0.042-0.043c0.042-0.084,0-0.127-0.084-0.254l-1.734-1.648
	c-0.127-0.127-0.169-0.127-0.254-0.086l-0.084-0.084l0.507-0.508l0.084,0.084c-0.084,0.086-0.042,0.127,0.085,0.254l0.592,0.594
	l1.607-1.65c0.084-0.084,0.084-0.127,0-0.211l0.042-0.043L57.782,43.035z M54.146,41.131l0.931-0.676
	c0.084-0.043,0.084-0.127,0-0.254l0.084-0.043l0.634,0.889l-0.084,0.041c-0.084-0.125-0.127-0.125-0.211-0.084l-2.115,1.48
	c-0.084,0.043-0.084,0.086,0,0.254L53.3,42.781l-0.592-0.891l0.084-0.041c0.085,0.127,0.127,0.127,0.211,0.084l0.804-0.549
	l-0.888-1.229l-0.804,0.551c-0.084,0.043-0.084,0.127,0,0.254l-0.084,0.043l-0.635-0.889l0.085-0.043
	c0.084,0.127,0.127,0.127,0.211,0.084l2.115-1.48c0.085-0.041,0.085-0.127,0-0.252l0.085-0.043l0.634,0.889l-0.084,0.043
	c-0.084-0.127-0.127-0.127-0.211-0.084L53.3,39.904L54.146,41.131z M52.623,36.986l-0.677-1.48c-0.085-0.17-0.085-0.213-0.211-0.17
	l-0.042-0.084l0.634-0.297l0.042,0.084c-0.084,0.043-0.084,0.127,0,0.254l1.058,2.328l-0.085,0.041
	c-0.085-0.168-0.127-0.168-0.212-0.127l-2.326,1.016c-0.085,0.043-0.127,0.084-0.042,0.297l-0.084,0.041l-1.016-2.24
	c-0.084-0.17-0.084-0.211-0.211-0.17l-0.042-0.086l0.634-0.295l0.042,0.084c-0.042,0.043-0.042,0.127,0,0.256l0.634,1.395
	l0.677-0.295l-0.38-0.846c-0.085-0.127-0.127-0.213-0.211-0.17l-0.042-0.086l0.634-0.297l0.042,0.086
	c-0.042,0.041-0.042,0.127,0,0.254l0.381,0.805L52.623,36.986z M48.053,29.287h0.085c0.042,0.127,0.042,0.168,0.169,0.168L50,29.414
	c0.38,0,0.634-0.297,0.634-0.805s-0.296-0.762-0.677-0.762l-1.692,0.044c-0.085,0-0.127,0.041-0.127,0.169h-0.085l-0.042-1.017
	h0.084c0.042,0.127,0.042,0.17,0.169,0.17l1.692-0.043c0.677-0.042,1.142,0.381,1.185,1.439c0.042,1.057-0.381,1.479-1.1,1.521
	l-1.692,0.043c-0.084,0-0.127,0.041-0.127,0.211h-0.084L48.053,29.287z M51.056,26.03h-0.084c0-0.127-0.042-0.169-0.127-0.169
	l-2.538-0.381c-0.084,0-0.127,0-0.169,0.127h-0.085l0.169-1.144h0.084c0,0.085,0,0.127,0.042,0.127c0.084,0,1.819-0.931,2.073-0.973
	l-1.777-0.296c-0.084,0-0.127,0-0.169,0.127h-0.084l0.169-0.931h0.084c0,0.127,0.042,0.169,0.127,0.169l2.538,0.381
	c0.127,0,0.127,0,0.169-0.085h0.084l-0.211,0.973h-0.084c0-0.084,0-0.127-0.042-0.127c-0.084,0-1.692,0.931-2.242,1.101l1.946,0.297
	c0.085,0,0.127,0,0.169-0.128h0.084L51.056,26.03z M51.86,21.926l-0.084-0.042c0.042-0.212,0.042-0.254-0.084-0.254l-2.454-0.804
	c-0.084-0.042-0.127,0-0.211,0.169h-0.042l0.381-1.142l0.084,0.042c-0.042,0.212-0.042,0.254,0.085,0.254l2.453,0.804
	c0.085,0.042,0.127,0,0.211-0.169l0.085,0.042L51.86,21.926z M52.918,19.134l-0.084-0.042c0.042-0.085,0.042-0.169,0-0.212
	c-0.042-0.042-1.988-0.084-2.75-0.169c-0.127,0-0.254,0-0.296,0.042l-0.084-0.042l0.423-0.889l0.085,0.043
	c-0.042,0.127-0.042,0.169,0.042,0.169c0.085,0.042,1.523,0.085,2.2,0.169c-0.507-0.55-1.438-1.607-1.523-1.649
	c-0.042,0-0.042,0-0.126,0.127l-0.085-0.042l0.423-0.847l0.084,0.043c-0.042,0.127,0.042,0.169,0.127,0.296
	c0.677,0.762,1.734,1.945,1.861,1.988c0.042,0.042,0.084,0,0.127-0.085l0.084,0.042L52.918,19.134z M54.483,15.539l0.973-1.311
	c0.084-0.128,0.127-0.171,0.042-0.255l0.042-0.085l0.55,0.424l-0.042,0.085c-0.084-0.042-0.127,0-0.211,0.127l-1.523,2.029
	l-0.084-0.042c0.084-0.17,0.084-0.212,0-0.254l-2.031-1.564c-0.084-0.042-0.126-0.042-0.253,0.127l-0.042-0.042l1.48-1.988
	c0.084-0.127,0.127-0.169,0.042-0.254l0.042-0.085l0.55,0.423l-0.042,0.085c-0.084-0.042-0.127,0-0.211,0.127l-0.931,1.228
	l0.592,0.466l0.55-0.72c0.084-0.128,0.127-0.17,0.042-0.255l0.042-0.084l0.55,0.424l-0.042,0.085c-0.084-0.043-0.127,0-0.211,0.127
	l-0.55,0.719L54.483,15.539z M56.725,13.55l-0.042-0.042c0.084-0.084,0.084-0.127,0-0.211l-1.734-1.903
	c-0.085-0.085-0.127-0.085-0.212,0l-0.042-0.042l1.311-1.186c0.592-0.508,1.142-0.592,1.481-0.211c0.296,0.338,0.296,0.719,0,1.184
	l0.973,0.298c0.296,0.084,0.381,0.127,0.508,0.042l0.042,0.042l-0.761,0.677l-0.084-0.084c0.042-0.043,0.084-0.127,0.042-0.17
	c0-0.042-0.042-0.042-0.169-0.084l-1.058-0.296l-0.465,0.423l0.677,0.761c0.084,0.085,0.127,0.085,0.211,0l0.042,0.043L56.725,13.55
	z M56.217,11.69l0.592-0.552c0.338-0.296,0.338-0.507,0.169-0.719c-0.169-0.169-0.423-0.169-0.719,0.127l-0.592,0.55L56.217,11.69z
	 M59.645,9.998l0.084-0.042v0.042c0.084,0.169,0.677,0,1.015-0.212c0.55-0.338,0.635-0.592,0.508-0.846
	c-0.338-0.551-2.03,0.973-2.581,0.042c-0.253-0.382-0.084-0.974,0.677-1.438c0.338-0.212,0.592-0.297,0.804-0.339
	s0.338-0.042,0.381-0.085c0.084-0.042,0.084-0.084,0.084-0.127h0.042v0.889h-0.084c0,0-0.042-0.042-0.042-0.085
	c-0.084-0.126-0.423-0.126-0.931,0.17c-0.338,0.211-0.38,0.423-0.296,0.593c0.296,0.508,1.988-1.016,2.623,0
	c0.254,0.423,0.042,1.058-0.888,1.648c-0.296,0.17-0.55,0.254-0.762,0.339c-0.211,0.042-0.338,0.042-0.423,0.127
	c-0.042,0-0.042,0.085-0.042,0.127h-0.084L59.645,9.998z M63.197,9.067l-0.042-0.085c0.169-0.084,0.212-0.127,0.169-0.211
	l-0.973-2.369c-0.042-0.085-0.084-0.127-0.296-0.042l-0.042-0.085l1.1-0.423l0.042,0.085c-0.169,0.084-0.211,0.126-0.169,0.211
	l0.973,2.368c0.042,0.085,0.085,0.128,0.296,0.043l0.042,0.085L63.197,9.067z M66.073,8.051V7.967
	c0.084-0.043,0.127-0.085,0.084-0.17l-0.55-2.284l-0.846,0.212c-0.169,0.042-0.211,0.086-0.211,0.17l-0.084,0.043l-0.169-0.721
	l0.085-0.042c0.042,0.084,0.084,0.084,0.253,0.042l2.327-0.592c0.169-0.043,0.211-0.085,0.211-0.17L67.3,4.499l0.169,0.677
	l-0.084,0.042c-0.042-0.127-0.127-0.127-0.254-0.085l-0.846,0.212l0.55,2.242c0.042,0.085,0.085,0.127,0.212,0.085v0.084
	L66.073,8.051z M70.77,7.291l-1.058,0.084V7.291c0.127-0.043,0.169-0.085,0.169-0.17l-0.042-1.015l-1.184-1.48
	c-0.042-0.043-0.085-0.085-0.169-0.127V4.414l1.1-0.084v0.084c-0.127,0-0.169,0.042-0.169,0.085c0,0.042,0.508,0.634,0.804,0.973
	c0.169-0.339,0.635-0.973,0.635-1.1c0-0.042-0.042-0.085-0.169-0.085V4.203l1.058-0.085v0.085c-0.084,0.042-0.127,0.042-0.169,0.127
	l-0.973,1.649l0.084,1.015c0,0.085,0.042,0.127,0.169,0.127L70.77,7.291z M79.146,5.471c1.015,0.34,1.396,1.186,1.1,2.03
	c-0.296,0.804-1.1,1.271-2.115,0.931c-1.015-0.338-1.396-1.185-1.1-2.029C77.283,5.598,78.087,5.132,79.146,5.471z M78.299,7.967
	c0.592,0.211,1.058-0.043,1.269-0.677c0.211-0.635,0-1.143-0.592-1.312c-0.592-0.213-1.058,0.042-1.269,0.677
	C77.452,7.291,77.665,7.755,78.299,7.967z M80.371,9.279l0.042-0.085c0.169,0.085,0.211,0.085,0.253,0l1.227-2.242
	c0.042-0.085,0.042-0.127-0.127-0.254l0.042-0.084l2.158,1.184c0.127,0.085,0.169,0.085,0.254,0l0.084,0.043l-0.338,0.592
	L83.881,8.39c0.042-0.085,0-0.127-0.126-0.212l-1.354-0.719l-0.38,0.635l0.846,0.466c0.127,0.085,0.211,0.085,0.254,0l0.084,0.042
	l-0.338,0.593l-0.084-0.042c0-0.085,0-0.127-0.169-0.212l-0.846-0.467L81.26,9.406c-0.042,0.085-0.042,0.127,0.127,0.254
	l-0.042,0.085L80.371,9.279z M90.439,14.1l-0.846,0.085L89.551,14.1c0,0,0.042,0,0.042-0.043c0.169-0.127,0.084-0.508-0.169-0.804
	c-0.423-0.508-0.931-0.634-1.522-0.127c-0.465,0.381-0.508,1.017-0.127,1.48c0.253,0.297,0.634,0.424,0.804,0.297
	c0,0,0.042-0.085,0.084-0.085l0.084,0.042l-0.084,0.847h-0.085c0-0.043,0-0.085-0.042-0.127c-0.127-0.127-0.55-0.043-1.142-0.72
	c-0.677-0.805-0.55-1.734,0.084-2.284c0.804-0.677,1.777-0.338,2.369,0.339c0.211,0.254,0.296,0.465,0.338,0.634
	c0.042,0.17,0.042,0.297,0.084,0.339l0.127,0.085L90.439,14.1z M88.62,16.385l0.085-0.043c0.042,0.085,0.126,0.085,0.211,0.085
	l2.665-0.296c0.127,0,0.169,0,0.211-0.043c0.042,0,0.042-0.042,0-0.169l0.084-0.042l0.55,1.016l-0.084,0.043
	c-0.042-0.085-0.127-0.127-0.169-0.085c-0.042,0-0.042,0.042-0.169,0.169l-1.607,2.03c-0.084,0.084-0.084,0.127-0.042,0.211
	l-0.084,0.043l-0.465-0.847l0.084-0.042c0.042,0.084,0.085,0.084,0.127,0.084s0.042-0.042,0.085-0.084l0.338-0.466l-0.635-1.1
	l-0.508,0.042c-0.042,0-0.084,0-0.084,0.043c-0.042,0.042-0.084,0.084,0,0.169l-0.084,0.042L88.62,16.385z M90.693,17.654
	l0.846-0.974l-1.269,0.17L90.693,17.654z M93.189,19.177c0.084-0.043,0.127-0.085,0.084-0.254l0.084-0.043l0.381,1.102l-0.084,0.042
	c-0.085-0.169-0.127-0.212-0.212-0.169l-2.199,0.761l0.507,1.479c0.042,0.17,0.084,0.212,0.211,0.17l0.042,0.085l-0.677,0.254
	l-0.042-0.084c0.084-0.043,0.084-0.127,0-0.255l-0.804-2.326l0.084-0.042c0.085,0.127,0.127,0.169,0.212,0.127L93.189,19.177z
	 M91.54,23.196h0.084c0.042,0.211,0.085,0.211,0.211,0.211l2.496-0.508c0.084,0,0.127-0.042,0.084-0.253h0.084l0.211,1.142h-0.082
	c-0.042-0.212-0.084-0.212-0.211-0.212l-2.496,0.508c-0.085,0-0.127,0.043-0.085,0.254H91.75L91.54,23.196z M91.92,25.225h0.084
	c0.042,0.17,0.084,0.212,0.169,0.212l2.538-0.169c0.085,0,0.127-0.043,0.127-0.255h0.085l0.169,2.454
	c0,0.127,0.042,0.211,0.127,0.211v0.085l-0.677,0.042V27.72c0.084-0.042,0.084-0.084,0.084-0.211L94.5,25.988l-0.761,0.042
	l0.084,0.973c0,0.169,0.042,0.212,0.127,0.212v0.084l-0.677,0.043v-0.085c0.084-0.042,0.084-0.085,0.084-0.254l-0.084-0.973
	l-1.058,0.084c-0.084,0-0.127,0.043-0.127,0.254h-0.083L91.92,25.225z M94.923,30.684c-0.127,1.059-0.889,1.607-1.734,1.48
	c-0.846-0.127-1.48-0.805-1.312-1.861c0.127-1.059,0.888-1.607,1.734-1.48S95.05,29.625,94.923,30.684z M92.342,30.387
	c-0.084,0.635,0.254,1.016,0.931,1.102c0.677,0.084,1.1-0.213,1.185-0.848c0.084-0.635-0.254-1.016-0.931-1.1
	C92.85,29.455,92.427,29.752,92.342,30.387z M91.454,32.924l0.084,0.043c-0.042,0.127,0,0.17,0.084,0.211l2.411,0.848
	c0.085,0.043,0.127,0,0.212-0.127l0.084,0.043l-0.592,1.648c-0.254,0.719-0.719,1.059-1.185,0.889
	c-0.423-0.127-0.634-0.508-0.55-1.016l-1.015,0.254c-0.296,0.043-0.381,0.084-0.465,0.211l-0.084-0.041l0.338-0.975l0.084,0.043
	c0,0.084-0.042,0.127,0.042,0.17c0.042,0,0.042,0,0.211-0.043l1.057-0.254l0.212-0.592l-0.973-0.338
	c-0.084-0.043-0.127,0-0.211,0.127l-0.084-0.043L91.454,32.924z M92.808,34.32l-0.254,0.762c-0.127,0.424-0.042,0.635,0.169,0.719
	c0.253,0.086,0.423-0.041,0.592-0.465l0.253-0.762L92.808,34.32z M90.058,36.773l0.084,0.043c-0.042,0.127-0.042,0.17,0.042,0.211
	l2.2,1.27c0.084,0.043,0.127,0.043,0.211-0.043l0.084,0.043l-0.592,1.016l-0.084-0.041c0.042-0.086,0.042-0.127,0-0.127
	c-0.084-0.043-2.03,0.254-2.284,0.168l1.565,0.889c0.084,0.043,0.127,0.043,0.211-0.043l0.085,0.043l-0.465,0.846l-0.085-0.041
	c0.042-0.127,0.042-0.17-0.042-0.213l-2.242-1.268c-0.084-0.043-0.127-0.043-0.211,0.041l-0.084-0.041l0.507-0.891l0.085,0.043
	c-0.042,0.084-0.042,0.127,0,0.17c0.084,0.041,1.946-0.254,2.496-0.213l-1.734-0.973c-0.084-0.041-0.127-0.041-0.211,0.043
	l-0.084-0.043L90.058,36.773z M87.816,40.285l0.042,0.043c-0.127,0.168-0.127,0.211-0.042,0.295l1.988,1.607
	c0.084,0.043,0.127,0.043,0.254-0.084l0.042,0.043l-0.761,0.93l-0.042-0.043c0.127-0.168,0.127-0.211,0.042-0.295l-1.988-1.607
	c-0.084-0.043-0.127-0.043-0.253,0.084l-0.042-0.043L87.816,40.285z M86.632,41.766l0.042,0.043c-0.084,0.084-0.042,0.17,0,0.211
	l0.931,2.496c0.042,0.084,0.042,0.168,0.084,0.168c0.042,0.045,0.042,0.045,0.169-0.041l0.042,0.041l-0.846,0.805l-0.042-0.041
	c0.085-0.086,0.085-0.127,0.042-0.17l-0.211-0.127l-2.369-1.059c-0.084-0.041-0.127-0.041-0.211,0l-0.042-0.041l0.719-0.635
	l0.042,0.041c-0.042,0.086-0.084,0.086-0.042,0.127c0,0,0.042,0.043,0.085,0.043l0.507,0.211l0.931-0.846l-0.169-0.465
	c0-0.043-0.042-0.084-0.042-0.084c-0.042-0.043-0.084-0.043-0.169,0.041l-0.042-0.041L86.632,41.766L86.632,41.766z M85.913,44.051
	l1.185,0.549l-0.508-1.184L85.913,44.051L85.913,44.051z"/>
<circle fill="#FFFFFF" cx="50.126" cy="32.502" r="0.465"/>
<path fill="#FFFFFF" d="M58.84,45.615c-0.254,0-0.465,0.211-0.465,0.465s0.211,0.465,0.465,0.465s0.465-0.211,0.465-0.465
	S59.094,45.615,58.84,45.615z M64.55,48.873c-0.254,0-0.465,0.211-0.465,0.465s0.211,0.465,0.465,0.465s0.465-0.211,0.465-0.465
	S64.804,48.873,64.55,48.873z M78.383,48.66c-0.254,0-0.465,0.213-0.465,0.467s0.211,0.465,0.465,0.465s0.465-0.211,0.465-0.465
	S78.637,48.66,78.383,48.66z M83.249,45.869c-0.254,0-0.465,0.211-0.465,0.465s0.211,0.465,0.465,0.465
	c0.254,0,0.465-0.211,0.465-0.465C83.756,46.039,83.544,45.869,83.249,45.869z"/>
<circle fill="#FFFFFF" cx="85.743" cy="10.885" r="0.465"/>
<circle fill="#FFFFFF" cx="74.618" cy="6.021" r="0.465"/>
<g>
	<path fill="#FFFFFF" d="M65.481,34.912h0.635c0.084,0,0.55,0.043,0.761,0.086c0.084,0,0.169,0.254,0.042,0.254
		c-0.677-0.043-0.423,0-1.1-0.086C65.185,35.125,65.481,34.912,65.481,34.912z M67.978,35.039c0.169-0.041,2.073,0.254,2.2,0.381
		c0,0,0.085,0.043,0.042,0.17c-0.127,0.211-0.465-0.17-1.777-0.211c-0.296-0.043-0.719,0-0.677-0.213
		C67.765,35.125,67.892,35.039,67.978,35.039z"/>
</g>
<path fill="#FFFFFF" d="M64.085,20.065c-0.084,0.085-0.084,0.339-0.127,0.423c0,0.043-0.253,0-0.253-0.042
	c0,0,0.084-0.508,0.126-0.635h0.508c0.042-0.084-0.127-0.593-0.127-0.593c-0.084,0.042-0.169,0.636-0.169,0.636h-0.212
	c0,0,0.169-1.102,0.339-1.102c0.042,0,0.169-0.042,0.211,0.043c0.042,0.127,0.465,1.522,0.465,1.649
	c-0.085,0.042-0.296,0.127-0.296,0c0,0,0-0.296-0.084-0.381C64.382,20.023,64.17,19.981,64.085,20.065z"/>
<g>
	<path fill="#FFFFFF" d="M65.524,24.126c-0.042,0.169-0.465,0.084-0.762,0.084c-0.719,0-1.48,0.085-1.48-0.084
		c-0.042-0.297,0.846-0.17,1.185-0.17C64.974,23.957,65.608,23.83,65.524,24.126z M66.582,24.083
		c-0.085,0.127-0.296,0.127-0.55,0.085c-0.084,0-0.126,0-0.169-0.085c0-0.169,0.254-0.169,0.592-0.169
		C66.582,23.957,66.624,24,66.582,24.083z M67.935,24.168c-0.084,0.042-0.846,0.127-0.888-0.042c-0.042-0.17,0.296-0.212,0.634-0.17
		C68.062,23.915,68.02,24.126,67.935,24.168z M70.515,24.676c-0.084,0.084-0.93-0.339-1.311-0.423c-0.296-0.085-0.508,0-0.719-0.043
		c-0.169-0.042-0.084-0.211,0.084-0.254C69.034,23.83,70.684,24.506,70.515,24.676z"/>
</g>
<g>
	<path fill="#FFFFFF" d="M65.058,25.437c-0.042,0.17-0.465,0.085-0.762,0.085c-0.677,0-1.015,0-1.015-0.213
		c0-0.169,0.381-0.041,0.719-0.041C64.508,25.268,65.143,25.141,65.058,25.437z M66.877,25.437c-0.042,0.17-0.465,0.085-0.761,0.085
		c-0.677,0-0.719,0-0.719-0.085c-0.042-0.128,0.084-0.169,0.423-0.169C66.327,25.268,66.962,25.184,66.877,25.437z M68.104,25.48
		c-0.084,0.127-0.296,0.042-0.592,0.042c-0.085,0-0.127,0-0.169-0.085c0-0.169,0.296-0.169,0.634-0.169
		C68.062,25.268,68.146,25.395,68.104,25.48z M70.557,26.03c-0.042,0.211-0.423-0.169-0.846-0.254
		c-0.296-0.085-0.888-0.127-1.142-0.127c-0.169-0.042-0.169-0.212,0-0.212C69.416,25.268,70.6,25.818,70.557,26.03z"/>
</g>
<g>
	<path fill="#FFFFFF" d="M70.642,27.383c0,0.296-0.592-0.085-0.973-0.127c-0.296-0.042-0.804-0.085-1.227-0.042
		c-0.169,0-0.169-0.254,0-0.254C68.823,26.875,70.642,27.171,70.642,27.383z M67.808,27.044c-0.084,0.127-0.381,0.085-0.635,0.085
		c-0.084,0-0.169-0.042-0.169-0.127c0-0.169,0.169-0.169,0.508-0.169C67.85,26.792,67.85,26.96,67.808,27.044z M65.271,26.96
		c-0.084,0.127-0.55,0.084-0.804,0.042c-0.677-0.127-1.269,0.212-1.269-0.085c0-0.211,0.677-0.169,1.015-0.169
		C64.72,26.749,65.439,26.665,65.271,26.96z M66.54,26.96c-0.084,0.169-0.296,0.127-0.55,0.127c-0.084,0-0.169,0-0.169-0.085
		c0-0.212,0.296-0.212,0.635-0.212C66.496,26.833,66.582,26.875,66.54,26.96z"/>
</g>
<g>
	<path fill="#FFFFFF" d="M67.173,18.289c0.042,0.169-0.465,0.085-0.846,0.127c-0.719,0.084-0.762,0.169-0.719,0
		C65.778,18.12,67.173,18.035,67.173,18.289z M67.554,18.416c-0.042-0.042-0.084-0.085,0-0.169c0.296-0.212,0.719-0.043,0.804,0.042
		c0.084,0.127-0.042,0.211-0.127,0.211C68.146,18.458,67.681,18.5,67.554,18.416z M70.43,19.134
		c-0.084,0.085-0.592-0.254-0.846-0.381c-0.423-0.127-0.846-0.127-0.846-0.338C68.738,17.993,70.812,18.753,70.43,19.134z"/>
</g>
<g>
	<path fill="#FFFFFF" d="M67.004,21.292c-0.042,0.085-0.423,0-0.719,0.043c-0.338,0-0.55,0.084-0.592-0.127
		c0-0.169,0.338-0.127,0.677-0.127C66.75,21.081,67.131,21.039,67.004,21.292z M67.385,21.334c-0.127-0.043-0.085-0.127,0-0.212
		c0.338-0.042,0.761,0,0.846,0c0.127,0.042,0.085,0.212-0.042,0.212C67.469,21.334,67.554,21.376,67.385,21.334z M70.43,21.968
		l-0.719-0.211c-0.296-0.085-0.423-0.085-0.507-0.169c-0.127-0.043-0.042-0.212,0-0.254C69.288,21.334,70.77,21.715,70.43,21.968z
		 M68.992,21.334c-0.042,0.254-0.254,0.127-0.381,0.127c-0.084-0.043-0.084-0.127-0.042-0.17
		C68.654,21.165,68.95,21.25,68.992,21.334z"/>
</g>
<g>
	<path fill="#FFFFFF" d="M66.158,19.896c0.085,0.212-0.296,0.212-0.38,0.212c-0.042-0.043-0.085-0.127-0.042-0.17
		C65.82,19.811,66.116,19.811,66.158,19.896z M66.708,20.023c-0.042-0.042-0.085-0.127,0-0.212c0.296-0.128,1.1-0.042,1.184,0
		c0.211,0.127,0.084,0.254,0,0.254C67.427,19.981,66.835,20.065,66.708,20.023z M69.754,20.361
		c-0.084,0.085-0.634-0.127-0.931-0.169c-0.296-0.042-0.507-0.084-0.507-0.169c0-0.212,0.465-0.169,0.888-0.085
		C69.585,20.023,69.965,20.15,69.754,20.361L69.754,20.361z M70.473,20.531c-0.042,0.254-0.254,0.127-0.338,0.084
		c-0.042-0.042-0.127-0.169-0.042-0.211C70.176,20.277,70.515,20.446,70.473,20.531z"/>
</g>
<g>
	<path fill="#FFFFFF" d="M63.408,22.393c0.423-0.086,0.719,0.423,0.084,0.338c-0.211-0.042-0.253-0.084-0.253-0.169
		C63.281,22.519,63.281,22.434,63.408,22.393L63.408,22.393z M66.496,22.603c-0.042,0.169-0.973,0.127-1.227,0.127
		c-0.719,0-0.973,0-1.015-0.127c0-0.17,0.38-0.17,0.719-0.17C65.312,22.434,66.582,22.307,66.496,22.603L66.496,22.603z
		 M67.978,22.688c-0.042,0.084-0.126,0.042-0.423,0.042c-0.296,0-0.507,0-0.55-0.127c0-0.17,0.296-0.17,0.634-0.17
		C68.02,22.475,68.062,22.603,67.978,22.688z M69.711,23.026c-0.211,0.17-0.338-0.084-0.677-0.169
		c-0.296-0.042-0.55-0.042-0.804-0.085c-0.169-0.084-0.084-0.253,0.042-0.297C69.161,22.475,69.923,22.857,69.711,23.026z
		 M70.388,23.323c-0.042,0.169-0.169,0.211-0.338,0.084c-0.042-0.042-0.127-0.169-0.085-0.211
		C70.05,23.069,70.346,23.153,70.388,23.323z"/>
</g>
<g>
	<path fill="#FFFFFF" d="M70.346,28.736c-0.084,0.213-0.719-0.127-1.185-0.127h-0.55c-0.169-0.041-0.169-0.254,0-0.254
		C69.161,28.271,70.473,28.482,70.346,28.736z M67.3,28.441c-0.084,0.127-0.253,0.084-0.55,0.041c-0.084,0-0.465,0.127-0.592,0
		c-0.042-0.211,0.465-0.254,0.677-0.211C67.216,28.229,67.342,28.355,67.3,28.441z M65.439,28.441c-0.085,0.127-1.016,0-1.312-0.043
		c-0.508,0-0.846,0.17-0.846-0.127c0.085-0.17,0.973-0.084,1.185-0.084C64.931,28.229,65.566,28.188,65.439,28.441z M68.231,28.314
		c0.085,0.211-0.296,0.211-0.38,0.211c-0.042-0.043-0.085-0.127-0.042-0.17C67.892,28.229,68.146,28.271,68.231,28.314z"/>
</g>
<g>
	<path fill="#FFFFFF" d="M73.688,18.374c0.423,0,0.465,0.084,0.423,0.253c-0.042,0.085-0.55,0.043-0.677,0.043
		c-0.507,0-0.719,0.296-0.888,0.254c-0.211-0.043-0.084-0.212,0.127-0.339C72.841,18.5,73.222,18.374,73.688,18.374z M74.745,18.331
		c0,0,0.592,0.043,0.677,0.085c0.169,0.084,0.127,0.211,0.084,0.254c-0.042,0.042-0.846-0.043-0.846-0.085
		c-0.042-0.042-0.084-0.042-0.084-0.127C74.534,18.374,74.576,18.331,74.745,18.331z M79.821,18.416
		c0.169,0.042,0.211,0.296,0.084,0.338c-0.592,0.085-0.719,0.043-0.719-0.042C78.975,18.374,79.779,18.416,79.821,18.416z
		 M77.665,18.542c0,0,0.677,0,0.846,0.042c0.084,0,0.169,0.127,0.042,0.254c-0.042,0.085-0.931,0.085-1.015-0.212
		C77.537,18.669,77.537,18.542,77.665,18.542z M76.141,18.5c0,0,0.592,0.043,0.761,0.085c0.084,0,0.211,0.127,0.127,0.212
		c-0.042,0.084-0.931,0.084-1.015-0.212C76.056,18.584,76.014,18.5,76.141,18.5z"/>
</g>
<g>
	<path fill="#FFFFFF" d="M74.618,19.938c0.084-0.169,0.592-0.127,0.719-0.042c0,0,0.042,0.085-0.042,0.169
		C75,20.192,74.576,20.065,74.618,19.938z M76.099,20.023c0.169-0.127,0.804,0,0.592,0.254c-0.042,0.042-0.465,0.084-0.635,0
		C76.014,20.234,75.93,20.15,76.099,20.023z M78.214,20.108c0.211,0.296-0.55,0.253-0.635,0.253c-0.085,0-0.254-0.042-0.296-0.127
		C77.283,19.981,78.045,19.938,78.214,20.108z M79.863,19.981c0.127,0.38-0.507,0.296-0.592,0.296c-0.084,0-0.253,0-0.296-0.127
		C78.933,19.938,79.779,19.727,79.863,19.981z M73.688,19.643c0.169,0,0.508,0,0.508,0.169c-0.127,0.212-0.762,0.17-0.931,0.212
		c-0.592,0.085-0.719,0.296-0.889,0.254c-0.211-0.043-0.084-0.212,0.127-0.339C72.715,19.896,73.265,19.684,73.688,19.643z"/>
</g>
<g>
	<path fill="#FFFFFF" d="M76.48,21.376c0.042,0.127-0.042,0.169-0.042,0.169c-0.042,0.085-0.634,0.043-0.719-0.169
		c0-0.042,0-0.212,0.169-0.169C76.056,21.292,76.48,21.123,76.48,21.376L76.48,21.376z M77.114,21.292c0.042,0,1.058,0,0.804,0.297
		c-0.042,0.042-0.127,0.084-0.211,0.084c-0.254,0-0.677-0.042-0.761-0.084c-0.042-0.043-0.042-0.127,0-0.212
		C76.987,21.334,77.029,21.292,77.114,21.292z M78.51,21.292c0.761,0.127,1.312-0.084,1.354,0.085c0.085,0.169,0,0.212,0,0.212
		c-0.084,0.084-1.522,0.127-1.565-0.127C78.299,21.334,78.425,21.292,78.51,21.292z M75.168,21.25
		c0.169,0.254-0.381,0.212-0.423,0.212c-0.085,0-0.211-0.043-0.211-0.127C74.491,21.081,75.042,21.039,75.168,21.25z M73.476,21.039
		c0.169,0,0.38-0.085,0.507,0.126c-0.127,0.254-0.465,0.127-0.931,0.212c-0.592,0.085-0.592,0.254-0.719,0.127s0-0.212,0.211-0.296
		C72.757,21.123,73.053,21.081,73.476,21.039L73.476,21.039z"/>
</g>
<g>
	<path fill="#FFFFFF" d="M74.28,22.561c0.084,0,0.254,0.042,0.38,0.127c0.085,0.084,0.042,0.169,0,0.211
		c-0.719,0.085-0.677-0.084-0.677-0.084C73.899,22.519,74.195,22.519,74.28,22.561z M79.863,22.646
		c0.338,0.169-0.211,0.338-0.592,0.253c-0.042,0-0.084-0.042-0.126-0.084C79.103,22.603,79.737,22.603,79.863,22.646L79.863,22.646z
		 M75.803,22.561c0.169,0.042,0.169,0.296,0,0.338c-0.042,0-0.719,0.127-0.762-0.084C75.042,22.393,75.718,22.519,75.803,22.561z
		 M78.891,22.73c0.042,0.212-0.169,0.212-0.338,0.169c-0.254,0-0.973,0.085-0.931-0.127c0.042-0.126,0.296-0.084,0.423-0.084
		C78.256,22.603,78.848,22.603,78.891,22.73z M77.114,22.899c-0.084,0.17-0.804,0.085-0.677-0.169
		C76.48,22.646,77.198,22.519,77.114,22.899z M73.095,22.434c0.169,0,0.465,0,0.508,0.213c-0.211,0.169-0.465,0.042-0.931,0.169
		c-0.423,0.084-0.508,0.169-0.508-0.043C72.166,22.603,72.673,22.434,73.095,22.434z"/>
</g>
<g>
	<path fill="#FFFFFF" d="M74.153,23.957c0,0,0.592-0.084,0.761,0.043c0.042,0.042,0.169,0.127,0.085,0.254
		c-0.085,0.084-0.931,0.084-0.931-0.17C74.069,24.083,74.026,24,74.153,23.957z M75.591,24.083c0.212-0.084,0.889,0.085,0.592,0.339
		c-0.042,0.042-0.55,0-0.677-0.127C75.465,24.253,75.422,24.168,75.591,24.083z M76.903,24.126c0.169-0.043,0.761,0.084,0.508,0.296
		c-0.042,0.042-0.423,0.084-0.55-0.042C76.818,24.337,76.734,24.168,76.903,24.126z M78.552,24.21
		c-0.211,0.043-0.508,0.085-0.508,0.212c0.042,0.127,0.169,0.084,0.592,0.084c0.211,0,0.846,0.085,1.015,0.043
		c0.169-0.043,0.169-0.212,0.127-0.212C79.398,24.337,79.103,24.168,78.552,24.21z M73.18,23.957c0.169,0,0.465-0.084,0.465,0.17
		c-0.169,0.211-0.423,0.127-0.888,0.253c-0.423,0.085-0.508,0.17-0.508-0.084C72.208,24.126,72.757,23.957,73.18,23.957z"/>
</g>
<path fill="#FFFFFF" d="M74.322,25.691h0.338c0.169,0,0.085,0.212,0.085,0.254c0,0.043-0.296,0.085-0.508,0.043
	c-0.084,0-0.296-0.043-0.296-0.212C73.984,25.649,74.195,25.691,74.322,25.691z M75.465,25.691c0.042,0,0.973,0,0.719,0.254
	c-0.042,0.043-0.127,0.085-0.169,0.085c-0.254,0-0.635-0.042-0.719-0.085c-0.042-0.042-0.042-0.084,0-0.169
	C75.338,25.734,75.38,25.691,75.465,25.691z M76.903,25.734c0.169-0.085,0.761,0.169,0.55,0.338c-0.042,0-0.507,0-0.634-0.127
	C76.776,25.945,76.691,25.818,76.903,25.734z M78.172,25.861c0.042,0,1.058,0,0.804,0.296c-0.042,0.042-0.127,0.084-0.211,0.084
	c-0.254,0-0.677-0.042-0.762-0.084c-0.042-0.043-0.042-0.127,0-0.212C78.002,25.903,78.087,25.861,78.172,25.861z M73.095,25.607
	c0.211,0,0.508-0.085,0.508,0.169c-0.169,0.212-0.338,0.127-0.804,0.212c-0.423,0.084-0.508,0.169-0.508-0.085
	C72.334,25.734,72.673,25.649,73.095,25.607z M79.441,25.945c0.169-0.042,0.761,0.085,0.508,0.296
	c-0.042,0.043-0.423,0.085-0.55-0.042C79.356,26.157,79.271,25.988,79.441,25.945z M76.056,27.298c0.042,0,0.973,0,0.719,0.254
	c-0.042,0.043-0.127,0.085-0.169,0.085c-0.254,0-0.635-0.042-0.719-0.085c-0.042-0.042-0.042-0.084,0-0.169
	C75.929,27.341,76.014,27.298,76.056,27.298z M77.579,27.425c0.296-0.042,0.804,0.043,0.762,0.296
	c-0.042,0.17-0.212,0.043-0.296,0.043c-0.211,0-0.846,0.084-0.761-0.169C77.283,27.468,77.495,27.468,77.579,27.425z M78.721,27.764
	c0,0.17,0.719,0.382,0.719,0.127C79.398,27.764,78.764,27.383,78.721,27.764z M75.295,27.256c0,0-0.508-0.127-0.719-0.085
	c-0.042,0-0.127,0.127-0.084,0.212s0.846,0.169,0.846-0.042C75.38,27.383,75.38,27.298,75.295,27.256z M73.392,27.171
	c0.169,0,0.804,0,0.804,0.254c-0.085,0.212-0.592,0-1.227,0.085c-0.423,0.042-0.507,0.169-0.507-0.085
	C72.461,27.256,72.968,27.171,73.392,27.171z M74.915,28.652c0.211-0.084,0.931,0.084,0.635,0.338c-0.042,0.043-0.592,0-0.762-0.084
	C74.787,28.863,74.745,28.736,74.915,28.652z M76.396,28.863c0.169-0.041,0.762,0.086,0.508,0.297c-0.042,0.043-0.465,0-0.592-0.084
	C76.268,28.99,76.226,28.906,76.396,28.863z M78.172,29.117c0.169,0.297-0.465,0.213-0.55,0.213c-0.085,0-0.211-0.043-0.211-0.17
	C77.452,28.906,78.087,28.949,78.172,29.117z M78.594,29.33c0,0.168,0.423,0.295,0.423,0.041
	C78.975,29.287,78.637,28.99,78.594,29.33z M72.588,28.736c0.042,0,1.692-0.254,1.649,0.043c0,0.043,0.084,0.127-0.846,0.17
	c-0.212,0-0.889,0.127-0.973,0.084C72.376,28.99,72.292,28.863,72.588,28.736z M74.407,31.443c0,0,0.592-0.041,0.761,0.086
	c0.042,0.041,0.169,0.127,0.084,0.254c-0.042,0.084-0.931,0.084-0.888-0.17C74.322,31.57,74.28,31.486,74.407,31.443z
	 M76.056,31.656c0.042,0,0.973,0.041,0.719,0.295c-0.042,0.043-0.127,0.086-0.169,0.086c-0.254,0-0.635-0.043-0.677-0.127
	c-0.042-0.043-0.042-0.086,0-0.17C75.929,31.656,75.972,31.656,76.056,31.656z M77.707,32.121c-0.254-0.043-0.634-0.17-0.55-0.297
	s0.338,0.043,0.423,0.043C78.087,31.783,78.172,32.205,77.707,32.121z M79.06,32.248c-0.254,0-0.677-0.084-0.634-0.254
	c0.042-0.127,0.254,0,0.338-0.043C79.441,31.74,79.525,32.248,79.06,32.248z M73.688,31.529c0.042,0.168-0.211,0.127-0.635,0.127
	c-0.423,0-0.719,0.338-0.846,0.084c-0.042-0.084,0.042-0.17,0.296-0.254C72.715,31.402,73.646,31.359,73.688,31.529z M74.703,30.049
	c0.042,0,0.719,0,0.55,0.254c-0.042,0.041-0.084,0.084-0.127,0.084c-0.169,0-0.465-0.043-0.507-0.084
	c-0.042-0.043-0.042-0.086,0-0.17C74.618,30.049,74.66,30.049,74.703,30.049z M75.76,30.133c0.169-0.084,1.142,0.084,0.846,0.381
	c-0.042,0-0.804-0.043-0.931-0.17C75.633,30.344,75.591,30.217,75.76,30.133z M77.876,30.387c0.169,0,0.888,0.127,0.846,0.338
	c0,0.043-0.254,0.043-0.38,0c-0.381-0.084-0.592-0.168-0.889-0.168c-0.127,0-0.127-0.127-0.084-0.213
	C77.368,30.344,77.792,30.387,77.876,30.387z M73.984,30.176c0.042,0.254-0.338,0.127-0.804,0.127c-0.423,0-0.719,0.295-0.846,0.041
	c-0.042-0.084,0.042-0.168,0.296-0.254C72.841,30.049,73.984,30.006,73.984,30.176z M78.552,33.094c0.042,0,1.058,0.043,0.761,0.338
	c-0.042,0.043-0.127,0.086-0.211,0.086c-0.254,0-0.677-0.086-0.761-0.127c-0.042-0.043-0.042-0.127,0-0.213
	C78.383,33.137,78.467,33.094,78.552,33.094z M77.833,33.305c-0.084,0.17-0.804,0.043-0.677-0.211
	C77.198,33.01,77.96,32.924,77.833,33.305z M76.014,32.883c0.042,0,0.973,0.041,0.719,0.295c-0.042,0.043-0.127,0.086-0.169,0.086
	c-0.254,0-0.635-0.086-0.677-0.127c-0.042-0.043-0.042-0.086,0-0.17C75.887,32.883,75.972,32.883,76.014,32.883L76.014,32.883z
	 M75.126,32.797c0.169,0.297-0.38,0.213-0.423,0.17c-0.084,0-0.211-0.043-0.211-0.127C74.449,32.629,75,32.586,75.126,32.797z
	 M73.222,32.713c0.169,0,0.508-0.084,0.465,0.17c-0.127,0.211-0.423,0.127-0.888,0.254c-0.423,0.084-0.508,0.168-0.508-0.086
	C72.292,32.84,72.757,32.713,73.222,32.713z M72.503,34.152c0,0,0.508-0.17,0.762-0.086c0.084,0,0.127,0.086,0.084,0.213
	c-0.211,0-0.761,0.084-0.846,0.168C72.461,34.447,72.376,34.236,72.503,34.152z"/>
<g>
	<path fill="#FFFFFF" d="M66.412,29.709c0.254-0.041,0.888,0.254,0.211,0.297c-0.042,0-0.423,0-0.465-0.043
		C65.904,29.752,66.327,29.709,66.412,29.709z M65.651,29.879c0,0.127-0.719,0.127-1.269,0.084c-0.677-0.041-1.1,0.043-1.1-0.168
		c0.042-0.254,0.677-0.086,1.015-0.086C64.804,29.752,65.651,29.541,65.651,29.879L65.651,29.879z M69.542,30.09
		c-0.042,0.254-1.015-0.084-1.48-0.084c-0.338,0-0.592-0.043-0.635-0.043c-0.169-0.041-0.169-0.254,0-0.254
		C67.765,29.668,69.542,29.922,69.542,30.09z M70.43,30.641c-0.084,0.127-0.211,0-0.423-0.084c-0.084-0.043-0.211-0.086-0.169-0.213
		c0.127-0.168,0.338-0.041,0.423,0.043C70.43,30.471,70.473,30.557,70.43,30.641z"/>
</g>
<g>
	<path fill="#FFFFFF" d="M68.654,32.924c0,0.213-1.058-0.084-1.481-0.127h-0.888c-0.169-0.041-0.169-0.252,0-0.295
		C66.793,32.459,68.696,32.629,68.654,32.924z M65.693,32.713c0,0.127-0.677,0.084-1.269,0.043c-1.057,0-1.142-0.043-1.1-0.211
		c0.084-0.254,0.677-0.17,1.015-0.17C64.804,32.418,65.693,32.375,65.693,32.713z M70.473,33.475
		c-0.084,0.127-0.423-0.127-0.719-0.17c-0.084,0-0.423-0.041-0.381-0.168c0-0.17,0.254-0.17,0.592-0.086
		C70.303,33.137,70.557,33.348,70.473,33.475z"/>
</g>
<g>
	<path fill="#FFFFFF" d="M69.5,31.613c-0.084,0.338-0.465-0.043-1.48-0.084c-0.338,0-0.592-0.043-0.634-0.043
		c-0.169-0.043-0.169-0.254,0-0.254C67.892,31.105,69.542,31.359,69.5,31.613z M66.496,31.105c0.254-0.043,0.889,0.254,0.212,0.297
		c-0.042,0-0.423,0-0.465-0.043C65.989,31.148,66.412,31.105,66.496,31.105z M65.651,31.232c0,0.254-1.142,0.084-1.396,0.084
		c-0.677-0.041-0.931,0.086-0.973-0.211c0.042-0.254,0.677-0.084,1.015-0.084C64.804,31.021,65.651,30.895,65.651,31.232
		L65.651,31.232z M70.134,31.74c0.254,0.084,0.677,0.635,0.042,0.381c-0.042,0-0.38-0.17-0.38-0.254
		C69.669,31.57,70.092,31.74,70.134,31.74z"/>
</g>
<g>
	<path fill="#FFFFFF" d="M70.346,36.773c0.042,0,0.169,0,0.084,0.17c-0.084,0.127-1.861-0.17-1.946-0.17
		c-0.169-0.041-0.169-0.084-0.169-0.211c0.042-0.084,0.169-0.084,0.211-0.084C68.569,36.479,70.303,36.732,70.346,36.773z
		 M67.681,36.562c-0.084,0.084-0.846,0.127-0.804-0.084c0-0.213,0.211-0.086,0.55-0.086S67.765,36.479,67.681,36.562L67.681,36.562z
		"/>
</g>
<path fill="#FFFFFF" d="M73.349,36.52c0.169,0,0.296-0.127,0.296,0.127c-0.042,0.17-0.253,0.086-0.719,0.213
	c-0.423,0.084-0.55,0.211-0.465-0.043C72.419,36.732,72.926,36.562,73.349,36.52L73.349,36.52z M73.349,35.252
	c0.169,0,0.338-0.086,0.338,0.168c-0.084,0.127-0.338,0.043-0.804,0.17c-0.423,0.084-0.508,0.211-0.465,0
	C72.376,35.42,72.926,35.252,73.349,35.252z M63.366,18.5c0,0-0.042,0.127-0.042,0.339v1.988h0.042
	c-0.042-0.042-0.042-1.271-0.042-1.271v-0.76C63.366,18.626,63.366,18.5,63.366,18.5c0.38-0.084,1.438-0.211,1.692-0.084
	c0.084,0.042,0.084,0.381,0.084,0.804c0,0.636-0.042,1.438-0.084,1.522c-0.042,0.043-0.381,0.085-0.804,0.127
	c0.38,0,0.761-0.042,0.804-0.127c0.042-0.084,0.084-0.888,0.084-1.522c0-0.423-0.042-0.762-0.084-0.804
	C64.804,18.289,63.748,18.416,63.366,18.5z M63.408,20.869c0.127,0.043,0.508,0.043,0.888,0H63.408z M63.366,18.374
	c-0.127,0.042-0.169,0.084-0.127,1.142v1.354c0.042,0.212,0.253,0.212,0.507,0.17l0.381-0.043h0.381c0.677,0,0.804,0,0.888-0.169
	v-0.423l-0.042-0.848c0.042-1.184-0.084-1.227-0.169-1.269C64.804,18.12,63.62,18.289,63.366,18.374z M65.016,18.542v1.015
	l0.042,0.89v0.212c-0.127,0-0.592,0.042-0.592,0.042h-0.381l-0.38,0.042h-0.254c0.042,0,0.042-0.338,0.042-0.465v-1.65
	C63.958,18.542,64.804,18.458,65.016,18.542z M96.699,26.538c-0.211-1.354-0.254-2.496-0.296-3.427
	c-0.042-0.974-0.042-1.649-0.254-2.072v0.042l-2.03-4.992c-0.423-1.479-3.934-5.583-4.146-5.795
	c-0.423-0.635-2.792-2.453-3.469-2.792c-0.042,0-2.623-1.818-2.623-1.818c-1.057-0.762-2.834-1.479-4.272-1.903l-1.692-0.592
	c-2.115-0.72-5.372-0.805-5.837-0.763h-1.185c-0.381-0.042-3.68,0.043-5.668,0.805L64,3.653c-1.565,0.424-3.003,0.889-4.103,1.649
	c0,0-2.919,2.072-3.046,2.157c-0.677,0.338-3.765,2.58-4.146,3.173l0.042-0.043c-0.169,0.212-3.342,3.978-3.765,5.457l-2.073,5.034
	v-0.042c-0.211,0.423-0.169,1.269-0.211,2.199s-0.127,1.944-0.338,3.3c-0.169,1.058-0.042,2.031,0.084,3.171
	c0.127,1.145,0.169,2.496,0.381,3.512c0.169,0.848,0.423,1.607,0.465,2.158c0.296,1.354,0.973,3.172,1.312,3.637
	c0.253,0.383,0.719,1.059,0.719,1.059c0.423,0.551,0.889,1.227,1.227,1.734c0.296,0.465,0.423,0.805,0.634,1.227
	c0.338,0.592,0.635,1.1,0.973,1.607c0.338,0.467,0.719,0.889,1.227,1.312c0.127,0.084,1.227,0.846,1.777,1.184
	c0.634,0.424,0.846,0.551,0.973,0.678l0.381,0.381c1.058,1.1,1.861,1.902,2.581,2.326c0.253,0.17,0.973,0.34,1.184,0.34
	s0.423-0.043,0.592-0.127c0.296-0.17,0.465-0.467,0.592-0.891c0-0.041,0.169-0.381,0.296-0.719c0.253,0.043,0.507,0.338,0.761,0.551
	l-0.127,0.506c-0.127,0.426-0.042,0.848,0.254,1.229c1.142,1.48,5.415,2.072,9.137,1.945c3.85,0.127,8.672-1.016,9.307-2.494
	c0.127-0.297,0.084-0.551-0.169-0.805c-0.084-0.086-0.127-0.17-0.169-0.213c0.042-0.041,0.042-0.084,0.127-0.127
	c0.169-0.084,0.38-0.041,0.507-0.041c0.169,0.295,0.338,0.592,0.508,0.932c0.084,0.127,0.211,0.211,0.38,0.254
	c1.1,0.168,4.696-2.963,4.738-3.004c0.127-0.127,0.804-0.678,1.396-1.102c0.508-0.338,0.973-0.635,1.1-0.762
	c0.973-0.803,1.692-1.734,2.369-2.875c0.465-0.848,1.015-1.777,1.861-2.92l0.084-0.084c0.762-1.059,1.819-3.088,1.988-4.611
	c0.042-0.549,0.211-1.27,0.381-2.156C96.53,31.232,97.038,28.695,96.699,26.538z M62.647,49.084
	c-0.169-0.17-0.423-0.338-0.719-0.424c0.761-1.818,1.1-2.664,1.185-3.088v-0.254l-0.127-0.295c-0.084-0.17-0.338-0.51-0.338-0.764
	c0-0.381,0.127-0.295,0.296-0.295s0.888,0.168,1.396,0.422c0.381,0.17,0.677,0.551,0.804,0.721c0.042,0.084,0.042,0.211-0.042,0.297
	c-0.084,0.084-0.169,0.127-0.38,0.211s-0.592,0.381-0.677,0.422c-0.465,0.17-0.762,0.932-1.185,2.285c0,0.043,0,0.043-0.042,0.084
	c-0.042,0.127-0.084,0.297-0.127,0.467C62.647,48.957,62.647,49,62.647,49.084z M62.224,44.684
	c-0.253-0.127-0.507-0.254-0.846-0.506c-0.508-0.381-1.777-1.396-2.369-1.734c-0.38-0.211-0.423-0.424-0.888-0.932
	c-0.381-0.424-0.804-0.846-1.142-1.1c-0.465-0.338-1.312-1.607-1.565-2.072c-0.931-1.523-2.454-4.525-2.792-7.488
	c-0.042-0.381-0.042-1.354-0.042-2.24c0-0.763,0-1.397-0.042-1.693c0.042-0.592,0.211-2.199,0.338-2.622
	c0.126-0.296,0.211-0.931,0.338-1.438c0.084-0.424,0.211-1.101,0.296-1.312c0-0.042,0.423-1.227,0.719-1.776l1.354-2.537
	c0-0.042,0.719-1.48,1.227-1.988l0.508-0.55c0.55-0.593,1.142-1.228,1.692-1.649c0.889-0.677,2.242-1.606,3.427-2.157l1.649-0.804
	c0.592-0.297,0.889-0.466,1.396-0.593c0.042,0,3.3-1.059,5.499-1.186c-0.211,0.467-0.338,0.89-0.423,1.101
	c0,0-0.507,0.085-1.185,0.127c-0.38,0-1.522,0.212-1.522,0.212c0.804,1.227,1.48,1.946,1.819,2.284c0,0-0.381,2.284-0.381,2.58
	c0.042,0,1.269-0.635,1.65-0.847c0.38-0.212,0.846-0.381,0.931-0.381c0.042,0,1.142,0.466,1.396,0.635
	c0.634,0.382,1.057,0.593,1.184,0.636V14.61c0,0-0.592-2.453-0.592-2.58c0,0,0.296-0.296,0.508-0.55
	c0.338-0.424,0.677-0.678,0.888-0.932c0.212-0.254,0.635-0.719,0.635-0.762c-0.042,0-2.665-0.338-2.792-0.381
	c0,0-0.254-0.592-0.465-1.101c0.55,0.043,0.888,0.085,1.48,0.169h0.042c1.607,0.255,3.384,0.932,4.146,1.229
	c0,0,0.634,0.254,0.719,0.296c0.042,0,1.142,0.465,1.142,0.465c0.761,0.381,1.396,0.804,1.692,1.017l0.381,0.296
	c0.804,0.55,2.58,1.733,2.876,2.199l0.465,0.593c0.254,0.339,0.423,0.762,0.55,1.1c0.254,0.635,0.846,1.312,1.396,2.031
	c0.381,0.465,0.761,0.93,0.973,1.311c0,0,0.719,1.017,0.889,1.946c0.169,1.185,0.465,2.961,0.634,3.511
	c0.846,2.877,0.592,4.358,0.254,5.879c-0.084,0.467-0.338,1.102-0.381,1.566c-0.042,0.508-0.127,1.1-0.465,1.775
	c-0.127,0.254-0.38,0.846-0.465,1.186c-0.169,0.549-0.338,1.1-0.634,1.521c-0.127,0.17-0.338,0.508-0.677,1.016
	c-0.719,1.186-1.861,2.961-2.834,4.146c-0.296,0.381-1.142,1.059-1.819,1.564c-0.423,0.338-0.761,0.635-0.931,0.805
	c-0.254,0.254-0.804,0.678-1.269,1.016l0.042-0.127c0-0.084,0-0.127-0.042-0.211c-0.042-0.129-0.169-0.34-0.507-0.424
	c-0.338-0.086-0.719,0.041-1.185,0.252c-0.338,0.129-0.719,0.34-1.269,0.805c-0.211,0.17-0.508,0.508-0.423,0.762
	c0.084,0.17,0.253,0.34,0.465,0.467c-1.142,0.338-2.242,0.678-2.665,0.762c-0.254,0.043-1.185,0.338-1.777,0.424
	c-0.677,0.125-1.354,0.211-1.692,0.252c-1.396,0.043-3.384-0.465-3.807-0.676c-0.973-0.383-2.242-0.848-3.046-1.059
	c0,0,0.042,0,0.042-0.043c0.338-0.127,0.55-0.338,0.634-0.592c0.042-0.127,0.042-0.381-0.211-0.635
	c-0.253-0.295-0.634-0.592-1.015-0.762c-0.084-0.043-0.973-0.381-1.354-0.381c-0.296,0-0.423-0.043-0.55,0.043
	c-0.169,0.084-0.212,0.254-0.212,0.422C62.097,44.346,62.139,44.516,62.224,44.684z M71.657,10.886
	c-0.296-0.212-0.889-1.312-0.889-1.312c0.042-0.127,0.889-2.03,0.889-2.03c0.084,0.338,0.042,1.016,0.042,1.691
	C71.657,9.871,71.615,10.547,71.657,10.886z M68.358,10.125c0.296,0.084,1.142,0.338,1.142,0.338
	c0.635,0.254,1.185,0.466,1.861,0.635c-0.084,0.213-0.296,0.594-0.296,0.594s-1.438,2.24-1.523,2.368c0,0,0.423-2.284,0.423-2.326
	C69.838,11.605,68.992,10.886,68.358,10.125z M74.322,10.801c0,0.085-0.55,0.72-0.55,0.72c-0.084,0-1.692-0.382-1.903-0.466
	c0,0,0.634-1.227,0.888-1.354l2.327,0.254c-0.169,0.084-0.846,0.253-1.48,0.465l-1.354,0.508
	C72.25,10.928,74.111,10.843,74.322,10.801z M73.772,14.1c-0.169-0.043-1.776-0.931-1.776-0.931
	c-0.042-0.043-0.296-1.733-0.254-2.031L73.772,14.1z M80.541,50.564c-0.38,0.93-4.399,2.453-8.375,2.326
	c-4.188,0.127-8.291-0.508-9.179-1.65c-0.127-0.168-0.211-0.592-0.211-0.76c0-0.086,0-0.17,0.042-0.256l0.211-0.676l0.042-0.086
	v-0.041c0.381-1.312,0.804-2.793,1.142-2.877c0.296,0,0.296-0.17,1.904,0.422c0.592,0.297,3.722,1.229,4.399,1.271
	c0.508,0.041,2.242,0,2.961-0.127c0.592-0.086,1.058-0.254,1.269-0.297c0.55-0.043,3.511-0.932,4.061-1.1c0,0,0.042,0,0.042,0.041
	c0.127,0.127,0.211,0.465,0.338,0.762l0.084,0.254c0.042,0.17,0.127,0.381,0.169,0.594l0.042,0.168L79.65,49
	c0.042,0.084,0.084,0.168,0.084,0.211c0.042,0.127,0.127,0.254,0.212,0.381l0.127,0.211c0.042,0.043,0.042,0.084,0.084,0.17
	l0.38,0.508C80.583,50.521,80.583,50.521,80.541,50.564z M80.667,49.254c-0.084,0.041-0.169,0.084-0.211,0.127
	c-0.169-0.254-0.296-0.551-0.38-0.848l-0.042-0.127c-0.042-0.127-0.084-0.254-0.127-0.338l-0.084-0.254l-0.042-0.168
	c-0.211-0.721-0.381-1.271-0.761-1.396h-0.254c-0.465,0.041-0.973-0.17-1.015-0.338c0-0.043,0.042-0.213,0.084-0.254
	c0.465-0.424,0.677-0.678,0.973-0.805c0.212-0.086,0.719-0.34,1.227-0.213c0.127,0.043,0.127,0.213,0.127,0.213v0.041
	c0,0.17-0.211,0.51-0.338,0.721c-0.254,0.211-0.381,0.465-0.381,0.719c0,0.424,0.296,0.889,0.761,1.564
	c0.212,0.34,0.508,0.762,0.804,1.312C80.921,49.127,80.794,49.168,80.667,49.254z M95.6,33.137
	c-0.169,0.889-0.338,1.607-0.381,2.199c-0.211,2.072-0.973,3.088-1.903,4.357l-0.085,0.084c-0.846,1.143-1.396,2.113-1.903,3.004
	c-0.635,1.143-1.142,2.029-2.073,2.75c-0.127,0.084-0.592,0.422-1.1,0.719c-0.931,0.592-1.522,1.016-1.649,1.143
	c-0.889,0.846-3.85,3.045-4.315,2.875c-0.634-1.227-1.185-2.113-1.565-2.748c-0.465-0.721-0.677-1.059-0.677-1.312
	c0-0.127,0.084-0.254,0.211-0.338s1.311-1.016,1.861-1.523l1.184-0.846c0.719-0.592,1.904-1.904,2.242-2.326
	c0.973-1.227,1.523-2.115,2.284-3.301c0.296-0.465,0.804-1.268,0.888-1.438c0.338-0.467,0.508-0.848,0.677-1.396
	c0.085-0.295,0.296-0.676,0.423-0.93c0.338-0.721,0.465-1.607,0.55-2.158c0.042-0.422,0.042-0.592,0.127-1.057
	c0.169-0.805,0.508-1.988,0.508-3.174c0-0.973-0.169-1.732-0.55-3.045c-0.169-0.508-0.465-2.369-0.677-3.512
	c-0.169-1.015-0.846-2.326-0.846-2.411c-0.253-0.423-0.719-0.846-1.142-1.354c-0.55-0.678-1.015-1.396-1.227-1.945
	c-0.169-0.423-0.507-0.804-0.761-1.186l-0.423-0.55c-0.338-0.508-1.522-1.396-2.75-2.241l-0.423-0.213
	c-0.296-0.253-1.1-0.677-1.946-1.1l-1.015-0.592l-0.719-0.296c-0.762-0.297-2.75-0.932-3.469-1.059h-0.042
	c-0.804-0.127-1.438-0.254-2.496-0.297c-0.042-0.127-0.084-0.253-0.127-0.338c-0.084-0.212-0.338-0.72-0.465-1.016
	c-0.169,0.127-0.465,0.72-0.761,1.354c-2.242,0.17-5.33,1.017-5.5,1.059c-0.55,0.17-0.888,0.339-1.48,0.635l-2.369,1.185
	c-1.565,0.719-2.369,1.438-2.834,1.776c-0.592,0.466-1.015,0.762-1.607,1.396l-0.507,0.551c-0.55,0.592-1.607,2.621-1.607,2.665
	L54.23,18.75c-0.296,0.551-1.227,2.919-1.269,2.962c-0.084,0.253-0.211,0.677-0.296,1.185c-0.126,0.508-0.296,0.974-0.338,1.27
	c-0.127,1.861-0.253,2.707-0.253,2.961v0.042c0.042,0.254-0.085,0.973-0.085,1.524c0.042,0.93,0.042,1.859,0.042,2.283
	c0.169,1.734,1.185,4.652,2.157,6.262c0.042,0.084,0.762,1.605,2.538,3.68c0.254,0.295,0.931,0.889,1.312,1.312
	c0.465,0.508,0.634,0.762,1.058,1.016l1.607,1.057c0.592,0.424,1.184,0.848,1.776,1.186c0,0.043,0,0.084-0.042,0.17v0.041
	l-0.085,0.254l-0.042,0.084c-0.042,0.086-0.085,0.213-0.127,0.34c0,0,0,0.041-0.042,0.041c-0.042,0.127-0.084,0.254-0.169,0.381
	l-0.042,0.127c-0.042,0.127-0.084,0.254-0.169,0.381l-0.085,0.213c-0.042,0.084-0.084,0.168-0.084,0.252
	c-0.042,0.045-0.042,0.129-0.084,0.213l-0.085,0.17c-0.084,0.211-0.169,0.381-0.211,0.549c0,0,0,0.043-0.042,0.043l-0.042,0.043
	c-0.254,0.592-0.338,0.762-0.338,0.846c-0.084,0.297-0.169,0.465-0.338,0.592c-0.211,0.127-0.423,0.211-0.846,0.043
	c-0.592-0.211-1.058-0.719-1.607-1.227l-1.269-1.227l-0.634-0.551c-0.127-0.127-0.508-0.424-1.438-1.016l-0.634-0.381
	c-0.211-0.17-0.719-0.678-0.762-0.719c-0.931-0.721-1.1-1.271-1.734-2.412c-0.465-0.848-1.184-2.115-1.396-2.369l-0.55-0.719
	c-0.931-1.27-1.649-2.242-1.903-4.357c-0.042-0.549-0.254-1.057-0.465-1.945c-0.084-0.381-0.127-1.057-0.211-1.521
	c-0.127-1.65-0.423-3.553-0.127-5.204c0.211-1.396,0.211-2.284,0.211-3.215c0.042-0.847,0.042-1.522,0.211-1.818l0.084-0.297
	l1.777-4.695c0.211-0.677,1.607-3.003,2.157-3.765c0.55-0.762,1.988-2.326,1.988-2.326c0.254-0.466,2.665-2.115,3.426-2.496
	l3.088-2.157c1.016-0.72,2.961-1.354,4.399-1.775l1.058-0.424c1.988-0.678,4.949-0.932,5.33-0.889h1.269
	c0.423-0.043,3.892,0.211,5.88,0.889l1.269,0.297c1.438,0.465,3.13,1.1,4.146,1.86l3.299,2.199
	c-0.423-0.212,2.792,1.565,3.426,2.707c0.042,0.043,3.554,4.484,3.934,5.838l1.819,4.441c0.169,0.296,0.212,1.227,0.254,2.115
	c0.042,0.931,0.211,2.198,0.423,3.596C96.657,28.779,96.023,31.148,95.6,33.137L95.6,33.137z"/>
<g>
	<path fill="#FFFFFF" d="M70.303,34.32c-0.042,0.211-1.015-0.168-1.48-0.211c-0.338,0-1.142-0.043-1.185-0.043
		c-0.169-0.041-0.253-0.211-0.084-0.254C68.062,33.729,70.346,34.066,70.303,34.32z M65.608,33.898h-1.015
		c-1.058,0-1.142,0-1.1-0.127c0.085-0.256,0.677-0.086,1.016-0.129C65.016,33.686,65.608,33.559,65.608,33.898z M66.243,33.855
		c0.084-0.084,0.719-0.127,0.677,0.084c0,0.17-0.085,0.127-0.423,0.086C66.116,34.025,66.158,33.939,66.243,33.855L66.243,33.855z"
		/>
</g>
<g>
	<path fill="#FFFFFF" d="M71.572,1.495c-0.296,0-0.507-0.254-0.507-0.507c0-0.297,0.211-0.508,0.507-0.508s0.508,0.254,0.508,0.508
		C72.08,1.284,71.869,1.495,71.572,1.495z M69.754,1.538c-0.296,0-0.507-0.212-0.55-0.466c0-0.296,0.169-0.508,0.465-0.55
		c0.296,0,0.507,0.212,0.55,0.466C70.261,1.284,70.05,1.538,69.754,1.538z M67.935,1.707c-0.296,0.042-0.55-0.169-0.55-0.423
		c-0.042-0.296,0.169-0.55,0.423-0.55c0.296-0.043,0.55,0.169,0.55,0.423C68.442,1.411,68.231,1.665,67.935,1.707z M66.158,2.002
		c-0.296,0.042-0.55-0.127-0.592-0.381c-0.042-0.296,0.127-0.55,0.381-0.592c0.296-0.042,0.55,0.127,0.592,0.381
		C66.624,1.707,66.412,1.96,66.158,2.002z M64.382,2.425c-0.296,0.085-0.55-0.084-0.635-0.338c-0.085-0.254,0.084-0.55,0.338-0.635
		s0.55,0.085,0.635,0.339C64.804,2.087,64.635,2.341,64.382,2.425z M62.605,2.975c-0.254,0.086-0.55-0.041-0.634-0.296
		c-0.085-0.254,0.042-0.55,0.296-0.635c0.254-0.084,0.55,0.043,0.635,0.297C63.028,2.595,62.901,2.891,62.605,2.975z M60.913,3.652
		c-0.254,0.127-0.55,0-0.677-0.253c-0.127-0.254,0-0.552,0.253-0.679c0.254-0.126,0.55,0,0.677,0.254
		C61.293,3.229,61.167,3.525,60.913,3.652z M59.263,4.414c-0.254,0.127-0.55,0.042-0.677-0.211
		c-0.127-0.254-0.042-0.551,0.211-0.678c0.254-0.126,0.55-0.042,0.677,0.212S59.517,4.287,59.263,4.414z M57.698,5.302
		c-0.254,0.169-0.55,0.084-0.677-0.17c-0.127-0.253-0.085-0.55,0.169-0.677c0.254-0.126,0.55-0.084,0.677,0.17
		C57.994,4.836,57.909,5.175,57.698,5.302z M56.133,6.317c-0.211,0.17-0.55,0.127-0.719-0.127c-0.169-0.211-0.127-0.551,0.126-0.72
		c0.254-0.169,0.55-0.127,0.719,0.127C56.429,5.852,56.386,6.148,56.133,6.317z M54.695,7.417c-0.211,0.169-0.55,0.127-0.719-0.085
		c-0.169-0.212-0.169-0.55,0.084-0.719c0.211-0.17,0.55-0.127,0.719,0.084C54.948,6.91,54.906,7.248,54.695,7.417z M53.299,8.6
		c-0.211,0.213-0.508,0.171-0.719-0.041c-0.211-0.212-0.169-0.509,0.042-0.72c0.211-0.212,0.507-0.169,0.719,0.042
		C53.51,8.094,53.51,8.432,53.299,8.6z M52.029,9.913c-0.211,0.212-0.508,0.212-0.719,0.043c-0.211-0.212-0.211-0.508-0.042-0.72
		c0.211-0.211,0.507-0.211,0.719-0.042C52.198,9.405,52.198,9.702,52.029,9.913z M50.803,11.309
		c-0.169,0.211-0.508,0.254-0.719,0.084S49.83,10.885,50,10.673c0.169-0.212,0.507-0.254,0.719-0.085
		C50.972,10.759,50.972,11.055,50.803,11.309z M49.703,12.747c-0.169,0.212-0.465,0.297-0.719,0.127
		c-0.211-0.169-0.296-0.465-0.127-0.719s0.465-0.296,0.719-0.127S49.873,12.494,49.703,12.747z M48.73,14.27
		c-0.127,0.254-0.465,0.296-0.677,0.169c-0.253-0.127-0.338-0.466-0.169-0.678c0.169-0.254,0.465-0.296,0.719-0.169
		C48.772,13.72,48.857,14.016,48.73,14.27z M47.841,15.877c-0.127,0.254-0.423,0.338-0.677,0.211
		c-0.254-0.126-0.338-0.423-0.211-0.677c0.127-0.254,0.423-0.338,0.677-0.211C47.841,15.285,47.968,15.624,47.841,15.877z
		 M47.038,17.527c-0.127,0.254-0.423,0.381-0.677,0.254s-0.381-0.381-0.254-0.677c0.127-0.255,0.423-0.382,0.677-0.255
		C47.038,16.934,47.166,17.231,47.038,17.527z M46.361,19.219c-0.084,0.254-0.381,0.381-0.634,0.296
		c-0.254-0.085-0.423-0.381-0.296-0.635c0.084-0.254,0.381-0.423,0.635-0.296C46.319,18.669,46.488,18.923,46.361,19.219z
		 M45.854,20.954c-0.085,0.254-0.339,0.423-0.635,0.338c-0.254-0.084-0.423-0.338-0.338-0.634c0.084-0.297,0.338-0.424,0.634-0.339
		C45.77,20.404,45.896,20.658,45.854,20.954z M45.43,22.73c-0.042,0.296-0.338,0.466-0.592,0.381
		c-0.296-0.042-0.465-0.296-0.38-0.592c0-0.255,0.296-0.425,0.55-0.382C45.303,22.18,45.473,22.434,45.43,22.73z M45.092,24.549
		c-0.042,0.296-0.296,0.465-0.55,0.423c-0.296-0.042-0.465-0.296-0.423-0.55c0.042-0.296,0.296-0.466,0.55-0.423
		C44.965,24,45.134,24.253,45.092,24.549z M44.923,26.368c0,0.297-0.254,0.508-0.55,0.466c-0.296,0-0.507-0.254-0.465-0.55
		c0-0.296,0.254-0.508,0.55-0.466C44.754,25.818,44.965,26.072,44.923,26.368z M44.881,28.188c0,0.295-0.211,0.508-0.508,0.508
		c-0.296,0-0.507-0.213-0.507-0.508c0-0.297,0.211-0.509,0.507-0.509C44.669,27.679,44.881,27.891,44.881,28.188z M44.965,30.006
		c0,0.297-0.169,0.508-0.465,0.551c-0.296,0.041-0.507-0.17-0.55-0.467c0-0.295,0.169-0.508,0.465-0.549
		C44.711,29.498,44.923,29.709,44.965,30.006z M45.176,31.824c0.042,0.297-0.169,0.551-0.423,0.594
		c-0.296,0.041-0.55-0.127-0.592-0.424s0.169-0.551,0.423-0.592C44.881,31.359,45.134,31.529,45.176,31.824z M45.473,33.6
		c0.042,0.299-0.127,0.553-0.381,0.594c-0.296,0.043-0.55-0.127-0.592-0.381c-0.084-0.254,0.127-0.551,0.381-0.592
		C45.176,33.178,45.43,33.348,45.473,33.6z M45.938,35.379c0.084,0.254-0.084,0.549-0.338,0.635c-0.254,0.084-0.55-0.086-0.635-0.34
		c-0.084-0.295,0.085-0.549,0.338-0.635C45.557,34.955,45.854,35.125,45.938,35.379z M46.488,37.113
		c0.084,0.254-0.042,0.549-0.296,0.633c-0.254,0.086-0.55-0.041-0.635-0.295s0.042-0.551,0.296-0.635
		C46.107,36.732,46.403,36.859,46.488,37.113z M47.208,38.805c0.127,0.254,0,0.551-0.254,0.678c-0.254,0.127-0.55,0-0.677-0.254
		s0-0.551,0.254-0.678S47.08,38.551,47.208,38.805z M48.011,40.455c0.127,0.254,0.042,0.549-0.211,0.676
		c-0.254,0.127-0.55,0.043-0.677-0.211c-0.127-0.254-0.042-0.551,0.211-0.678C47.546,40.115,47.841,40.201,48.011,40.455z
		 M48.899,42.018c0.169,0.256,0.084,0.553-0.169,0.721c-0.254,0.17-0.55,0.084-0.719-0.168c-0.169-0.254-0.084-0.553,0.169-0.721
		C48.434,41.723,48.772,41.809,48.899,42.018z M49.915,43.543c0.169,0.211,0.127,0.549-0.127,0.719
		c-0.211,0.168-0.55,0.127-0.719-0.127c-0.169-0.211-0.127-0.551,0.127-0.719C49.449,43.246,49.745,43.33,49.915,43.543z
		 M51.056,44.98c0.169,0.211,0.169,0.551-0.084,0.719c-0.211,0.17-0.55,0.17-0.719-0.041c-0.169-0.213-0.169-0.551,0.085-0.721
		C50.549,44.727,50.887,44.768,51.056,44.98z M52.283,46.334c0.211,0.211,0.169,0.508,0,0.719c-0.211,0.213-0.508,0.213-0.719,0
		c-0.211-0.211-0.169-0.508,0-0.719C51.776,46.123,52.072,46.123,52.283,46.334z M53.594,47.604
		c0.211,0.211,0.211,0.508,0.042,0.719s-0.508,0.211-0.719,0.043c-0.211-0.213-0.211-0.508-0.042-0.719
		C53.045,47.434,53.383,47.434,53.594,47.604z M54.99,48.787c0.211,0.17,0.254,0.508,0.085,0.719
		c-0.169,0.213-0.508,0.254-0.719,0.086c-0.211-0.17-0.254-0.508-0.085-0.719C54.441,48.66,54.737,48.619,54.99,48.787z
		 M56.471,49.887c0.254,0.17,0.296,0.467,0.127,0.721c-0.169,0.211-0.465,0.297-0.719,0.127s-0.296-0.467-0.127-0.721
		C55.921,49.803,56.217,49.719,56.471,49.887z M57.994,50.861c0.254,0.127,0.338,0.465,0.169,0.676
		c-0.127,0.254-0.465,0.338-0.677,0.17c-0.254-0.127-0.339-0.467-0.169-0.678C57.444,50.775,57.74,50.734,57.994,50.861z
		 M59.601,51.707c0.254,0.127,0.338,0.422,0.211,0.676c-0.127,0.254-0.423,0.338-0.677,0.213c-0.254-0.127-0.338-0.424-0.211-0.678
		C59.051,51.707,59.347,51.58,59.601,51.707z M61.251,52.469c0.254,0.127,0.381,0.379,0.254,0.678
		c-0.127,0.254-0.381,0.379-0.677,0.295c-0.254-0.127-0.381-0.422-0.296-0.678C60.701,52.51,60.998,52.383,61.251,52.469z
		 M62.986,53.145c0.254,0.084,0.423,0.381,0.338,0.635s-0.381,0.424-0.635,0.338c-0.253-0.084-0.423-0.381-0.338-0.635
		C62.393,53.188,62.689,53.018,62.986,53.145z M64.72,53.652c0.296,0.084,0.423,0.338,0.38,0.635
		c-0.084,0.254-0.338,0.422-0.634,0.381c-0.296-0.086-0.423-0.338-0.381-0.635C64.17,53.736,64.466,53.568,64.72,53.652z
		 M66.496,54.033c0.296,0.043,0.465,0.297,0.423,0.592c-0.042,0.297-0.296,0.465-0.592,0.424c-0.296-0.043-0.465-0.297-0.423-0.594
		C65.989,54.16,66.243,53.99,66.496,54.033z M68.316,54.33c0.296,0.041,0.465,0.295,0.423,0.549
		c-0.042,0.297-0.296,0.465-0.55,0.465c-0.296-0.041-0.465-0.295-0.465-0.549C67.765,54.455,68.02,54.287,68.316,54.33z
		 M70.134,54.455c0.296,0,0.507,0.254,0.465,0.508c0,0.297-0.254,0.508-0.508,0.508c-0.296,0-0.507-0.254-0.465-0.549
		C69.627,54.668,69.838,54.455,70.134,54.455L70.134,54.455z M71.953,54.498c0.296,0,0.508,0.211,0.508,0.508
		s-0.212,0.508-0.508,0.508c-0.296,0-0.508-0.211-0.508-0.508S71.699,54.498,71.953,54.498z M73.772,54.371
		c0.296-0.041,0.508,0.17,0.55,0.465c0.042,0.297-0.169,0.508-0.465,0.551s-0.507-0.17-0.55-0.465
		C73.307,54.668,73.518,54.414,73.772,54.371z M75.591,54.16c0.296-0.043,0.55,0.127,0.592,0.422
		c0.042,0.297-0.127,0.551-0.423,0.594c-0.296,0.041-0.55-0.127-0.592-0.424S75.295,54.203,75.591,54.16L75.591,54.16z
		 M77.41,53.822c0.296-0.086,0.55,0.084,0.592,0.381c0.042,0.252-0.084,0.549-0.38,0.592c-0.296,0.084-0.55-0.127-0.592-0.381
		C76.945,54.16,77.114,53.863,77.41,53.822L77.41,53.822z M79.146,53.314c0.253-0.086,0.55,0.084,0.634,0.338
		s-0.042,0.551-0.338,0.635c-0.254,0.084-0.55-0.084-0.635-0.338S78.891,53.398,79.146,53.314z M80.879,52.721
		c0.253-0.084,0.55,0.043,0.634,0.297c0.084,0.256-0.042,0.551-0.296,0.635c-0.254,0.086-0.55-0.041-0.677-0.295
		C80.499,53.145,80.625,52.848,80.879,52.721z M82.529,52.045c0.254-0.127,0.55,0,0.677,0.254c0.127,0.254,0,0.549-0.253,0.676
		c-0.254,0.129-0.55,0-0.677-0.254C82.19,52.469,82.275,52.172,82.529,52.045z M84.178,51.199c0.254-0.127,0.55-0.043,0.677,0.211
		s0.042,0.551-0.211,0.678c-0.253,0.127-0.55,0.041-0.677-0.213S83.924,51.326,84.178,51.199z M85.743,50.268
		c0.254-0.17,0.55-0.086,0.719,0.17c0.169,0.254,0.084,0.551-0.169,0.719c-0.254,0.17-0.55,0.084-0.719-0.168
		C85.447,50.734,85.532,50.438,85.743,50.268z M87.266,49.211c0.211-0.17,0.55-0.127,0.719,0.084s0.127,0.551-0.084,0.719
		c-0.212,0.17-0.55,0.127-0.719-0.084C86.97,49.719,87.012,49.379,87.266,49.211z M88.662,48.068c0.211-0.17,0.508-0.17,0.719,0.043
		c0.169,0.211,0.169,0.549-0.042,0.719S88.79,49,88.62,48.787C88.408,48.576,88.451,48.279,88.662,48.068z M90.016,46.842
		c0.211-0.211,0.508-0.211,0.719,0s0.211,0.508,0,0.719c-0.211,0.213-0.508,0.213-0.719,0C89.804,47.35,89.804,47.053,90.016,46.842
		z M91.285,45.531c0.169-0.213,0.508-0.213,0.719-0.043s0.254,0.508,0.042,0.719c-0.169,0.211-0.508,0.211-0.719,0.043
		C91.116,46.039,91.073,45.742,91.285,45.531z M92.427,44.092c0.169-0.211,0.465-0.254,0.719-0.084
		c0.211,0.17,0.254,0.465,0.084,0.719c-0.169,0.213-0.507,0.256-0.719,0.084C92.3,44.643,92.258,44.305,92.427,44.092z
		 M93.485,42.611c0.169-0.254,0.465-0.295,0.719-0.127c0.254,0.17,0.296,0.465,0.127,0.719c-0.169,0.254-0.465,0.297-0.719,0.127
		C93.4,43.162,93.358,42.822,93.485,42.611z M94.458,41.047c0.127-0.254,0.465-0.338,0.677-0.211
		c0.254,0.127,0.338,0.422,0.211,0.676s-0.465,0.338-0.677,0.17C94.374,41.596,94.288,41.301,94.458,41.047z M95.303,39.439
		c0.127-0.256,0.423-0.34,0.677-0.256c0.254,0.129,0.381,0.424,0.254,0.678s-0.423,0.381-0.677,0.254
		C95.261,39.988,95.176,39.693,95.303,39.439z M96.023,37.746c0.127-0.252,0.381-0.379,0.677-0.295
		c0.254,0.084,0.381,0.381,0.296,0.676c-0.127,0.254-0.381,0.381-0.677,0.297C96.065,38.34,95.938,38.043,96.023,37.746z
		 M96.657,36.055c0.084-0.254,0.38-0.422,0.634-0.338c0.254,0.084,0.423,0.381,0.338,0.635s-0.381,0.424-0.634,0.34
		C96.699,36.605,96.572,36.309,96.657,36.055z M97.124,34.279c0.084-0.297,0.338-0.424,0.592-0.381
		c0.254,0.084,0.423,0.338,0.381,0.592c-0.084,0.295-0.338,0.422-0.634,0.381C97.25,34.828,97.08,34.574,97.124,34.279z
		 M97.503,32.502c0.042-0.297,0.296-0.465,0.592-0.424c0.296,0.043,0.465,0.297,0.423,0.594c-0.042,0.295-0.296,0.465-0.592,0.422
		S97.461,32.797,97.503,32.502L97.503,32.502z M97.757,30.684c0.042-0.297,0.254-0.467,0.55-0.467
		c0.296,0.043,0.465,0.254,0.465,0.551c-0.042,0.297-0.296,0.467-0.55,0.467C97.926,31.189,97.715,30.979,97.757,30.684z
		 M97.884,28.863c0-0.295,0.254-0.508,0.508-0.508c0.296,0,0.507,0.254,0.507,0.508c0,0.297-0.254,0.508-0.507,0.508
		C98.095,29.371,97.884,29.16,97.884,28.863z M97.884,27.044c0-0.296,0.211-0.507,0.465-0.507c0.296,0,0.507,0.211,0.507,0.465
		c0,0.296-0.211,0.508-0.507,0.508C98.095,27.51,97.884,27.298,97.884,27.044z M97.757,25.225c-0.042-0.296,0.169-0.508,0.465-0.55
		c0.296-0.043,0.508,0.169,0.55,0.465c0.042,0.297-0.169,0.551-0.465,0.551C98.011,25.691,97.757,25.48,97.757,25.225z
		 M97.503,23.407c-0.042-0.296,0.127-0.55,0.423-0.592c0.296-0.043,0.55,0.127,0.592,0.423s-0.126,0.55-0.423,0.592
		C97.799,23.873,97.546,23.661,97.503,23.407z M97.124,21.63c-0.085-0.296,0.084-0.55,0.38-0.592c0.254-0.085,0.55,0.084,0.635,0.38
		c0.084,0.297-0.085,0.55-0.381,0.635C97.461,22.053,97.208,21.884,97.124,21.63z M96.615,19.854
		c-0.084-0.255,0.042-0.551,0.338-0.636c0.254-0.085,0.55,0.042,0.635,0.338c0.084,0.255-0.042,0.552-0.339,0.636
		C96.996,20.277,96.699,20.15,96.615,19.854z M95.98,18.162c-0.126-0.254,0-0.55,0.296-0.677c0.254-0.085,0.55,0,0.677,0.296
		c0.127,0.254,0,0.55-0.296,0.677C96.403,18.542,96.107,18.416,95.98,18.162z M95.261,16.469c-0.127-0.254,0-0.55,0.253-0.677
		c0.254-0.127,0.55-0.042,0.677,0.212c0.126,0.254,0,0.55-0.254,0.677C95.683,16.809,95.388,16.723,95.261,16.469z M94.416,14.862
		c-0.127-0.254-0.042-0.55,0.169-0.678c0.253-0.127,0.55-0.041,0.677,0.171c0.127,0.253,0.042,0.55-0.169,0.677
		C94.838,15.201,94.542,15.116,94.416,14.862z M93.442,13.297c-0.169-0.254-0.084-0.551,0.127-0.72
		c0.254-0.169,0.55-0.084,0.719,0.127c0.169,0.254,0.084,0.55-0.127,0.72C93.907,13.593,93.612,13.55,93.442,13.297z M92.385,11.816
		c-0.169-0.211-0.127-0.551,0.084-0.72s0.55-0.127,0.719,0.085s0.127,0.551-0.085,0.72C92.85,12.07,92.554,12.028,92.385,11.816z
		 M91.2,10.42c-0.169-0.212-0.169-0.508,0.042-0.719c0.211-0.17,0.507-0.17,0.719,0.042c0.169,0.212,0.169,0.55-0.042,0.719
		C91.708,10.632,91.412,10.632,91.2,10.42z M89.974,9.067c-0.212-0.212-0.212-0.508,0-0.72c0.211-0.212,0.507-0.212,0.719,0
		s0.212,0.508,0,0.72S90.143,9.279,89.974,9.067z M88.62,7.84c-0.211-0.169-0.253-0.508-0.042-0.72
		c0.169-0.211,0.507-0.254,0.719-0.042c0.212,0.169,0.254,0.508,0.042,0.719C89.128,8.009,88.832,8.051,88.62,7.84z M87.182,6.698
		c-0.211-0.169-0.254-0.465-0.084-0.719c0.169-0.213,0.465-0.297,0.719-0.127c0.211,0.169,0.254,0.508,0.085,0.719
		C87.732,6.825,87.393,6.867,87.182,6.698z M85.701,5.684c-0.254-0.171-0.296-0.467-0.169-0.678c0.169-0.254,0.465-0.297,0.719-0.17
		c0.254,0.17,0.296,0.466,0.169,0.72C86.251,5.768,85.913,5.809,85.701,5.684z M84.094,4.752c-0.254-0.127-0.338-0.423-0.212-0.677
		c0.127-0.254,0.423-0.339,0.677-0.212c0.253,0.127,0.338,0.423,0.211,0.677C84.643,4.794,84.347,4.879,84.094,4.752z M82.487,3.906
		c-0.254-0.127-0.381-0.423-0.254-0.677c0.127-0.255,0.423-0.382,0.677-0.255c0.254,0.128,0.381,0.425,0.254,0.678
		C83.036,3.906,82.74,4.033,82.487,3.906z M80.794,3.229c-0.254-0.127-0.38-0.424-0.296-0.678s0.381-0.381,0.634-0.296
		c0.254,0.085,0.381,0.381,0.296,0.677C81.344,3.187,81.048,3.314,80.794,3.229z M79.06,2.637c-0.254-0.085-0.423-0.339-0.338-0.635
		c0.084-0.254,0.338-0.423,0.635-0.338c0.254,0.084,0.423,0.38,0.338,0.634S79.356,2.721,79.06,2.637z M77.325,2.171
		c-0.296-0.084-0.423-0.338-0.38-0.592c0.042-0.296,0.338-0.466,0.592-0.381c0.296,0.042,0.465,0.339,0.38,0.593
		C77.876,2.044,77.579,2.214,77.325,2.171z M75.507,1.792c-0.296-0.043-0.465-0.297-0.423-0.593s0.296-0.465,0.592-0.423
		s0.465,0.296,0.423,0.592C76.056,1.665,75.803,1.833,75.507,1.792z M73.688,1.58c-0.254,0-0.465-0.254-0.465-0.55
		c0.042-0.296,0.254-0.508,0.55-0.466c0.296,0.043,0.508,0.297,0.465,0.55C74.237,1.411,73.984,1.622,73.688,1.58z"/>
</g>
</svg>
